<mxfile host="65bd71144e">
    <diagram id="otumA19PC5rb6TTQ8RxZ" name="Page-1">
        <mxGraphModel dx="3936" dy="2715" grid="1" gridSize="10" guides="1" tooltips="1" connect="1" arrows="1" fold="1" page="1" pageScale="1" pageWidth="827" pageHeight="1169" math="0" shadow="0">
            <root>
                <mxCell id="0"/>
                <mxCell id="1" parent="0"/>
                <mxCell id="45" value="" style="rounded=0;whiteSpace=wrap;html=1;strokeWidth=1;fillColor=#f8cecc;gradientColor=#ea6b66;strokeColor=#b85450;" parent="1" vertex="1">
                    <mxGeometry x="-1455" y="-110" width="860" height="1650" as="geometry"/>
                </mxCell>
                <mxCell id="2" value="" style="rounded=0;whiteSpace=wrap;html=1;fillColor=#f5f5f5;gradientColor=#b3b3b3;strokeColor=#666666;" parent="1" vertex="1">
                    <mxGeometry x="28" y="40" width="770" height="700" as="geometry"/>
                </mxCell>
                <mxCell id="3" value="" style="rounded=0;whiteSpace=wrap;html=1;" parent="1" vertex="1">
                    <mxGeometry x="38" y="60" width="750" height="80" as="geometry"/>
                </mxCell>
                <mxCell id="4" value="NAV ?" style="rounded=0;whiteSpace=wrap;html=1;fillColor=#b1ddf0;strokeColor=#10739e;" parent="1" vertex="1">
                    <mxGeometry x="48" y="70" width="140" height="60" as="geometry"/>
                </mxCell>
                <mxCell id="12" value="" style="rounded=0;whiteSpace=wrap;html=1;strokeWidth=1;fontColor=#000000;" parent="1" vertex="1">
                    <mxGeometry x="38" y="210" width="750" height="500" as="geometry"/>
                </mxCell>
                <mxCell id="127" style="edgeStyle=none;html=1;entryX=0.5;entryY=0;entryDx=0;entryDy=0;strokeWidth=8;fontColor=#000000;fillColor=#f8cecc;strokeColor=#b85450;" parent="1" source="7" target="67" edge="1">
                    <mxGeometry relative="1" as="geometry">
                        <Array as="points">
                            <mxPoint x="830" y="280"/>
                            <mxPoint x="830" y="810"/>
                            <mxPoint x="423" y="810"/>
                        </Array>
                    </mxGeometry>
                </mxCell>
                <mxCell id="7" value="&lt;font color=&quot;#000000&quot;&gt;Article&lt;/font&gt;" style="rounded=0;whiteSpace=wrap;html=1;fillColor=#f9f7ed;strokeColor=#36393d;" parent="1" vertex="1">
                    <mxGeometry x="49" y="230" width="730" height="80" as="geometry"/>
                </mxCell>
                <mxCell id="8" value="" style="rounded=0;whiteSpace=wrap;html=1;fillColor=#f9f7ed;strokeColor=#36393d;" parent="1" vertex="1">
                    <mxGeometry x="49" y="330" width="730" height="75" as="geometry"/>
                </mxCell>
                <mxCell id="9" value="" style="rounded=0;whiteSpace=wrap;html=1;fillColor=#f9f7ed;strokeColor=#36393d;" parent="1" vertex="1">
                    <mxGeometry x="49" y="425" width="730" height="80" as="geometry"/>
                </mxCell>
                <mxCell id="10" value="&lt;font color=&quot;#000000&quot;&gt;Connexion&lt;/font&gt;" style="rounded=0;whiteSpace=wrap;html=1;strokeWidth=1;fillColor=#fad9d5;strokeColor=#ae4132;" parent="1" vertex="1">
                    <mxGeometry x="638" y="70" width="140" height="60" as="geometry"/>
                </mxCell>
                <mxCell id="19" value="" style="rounded=0;whiteSpace=wrap;html=1;fillColor=#f5f5f5;gradientColor=#b3b3b3;strokeColor=#666666;" parent="1" vertex="1">
                    <mxGeometry x="1680" y="110" width="790" height="700" as="geometry"/>
                </mxCell>
                <mxCell id="20" value="&lt;p style=&quot;line-height: 150%;&quot;&gt;&lt;font color=&quot;#000000&quot;&gt;Acceuil&lt;/font&gt;&lt;/p&gt;" style="rounded=1;whiteSpace=wrap;html=1;strokeWidth=1;fillColor=#fad7ac;strokeColor=#b46504;" parent="1" vertex="1">
                    <mxGeometry x="353" y="-60" width="120" height="60" as="geometry"/>
                </mxCell>
                <mxCell id="21" value="&lt;p style=&quot;line-height: 150%;&quot;&gt;&lt;font color=&quot;#000000&quot;&gt;Page Connexion&lt;/font&gt;&lt;/p&gt;" style="rounded=1;whiteSpace=wrap;html=1;strokeWidth=1;fillColor=#fad7ac;strokeColor=#b46504;" parent="1" vertex="1">
                    <mxGeometry x="2005" y="20" width="120" height="60" as="geometry"/>
                </mxCell>
                <mxCell id="22" value="" style="rounded=0;whiteSpace=wrap;html=1;strokeWidth=1;fontColor=#000000;" parent="1" vertex="1">
                    <mxGeometry x="1700" y="220" width="750" height="570" as="geometry"/>
                </mxCell>
                <mxCell id="23" value="" style="rounded=0;whiteSpace=wrap;html=1;" parent="1" vertex="1">
                    <mxGeometry x="1700" y="120" width="750" height="80" as="geometry"/>
                </mxCell>
                <mxCell id="24" value="NAV ?" style="rounded=0;whiteSpace=wrap;html=1;fillColor=#b1ddf0;strokeColor=#10739e;" parent="1" vertex="1">
                    <mxGeometry x="1710" y="130" width="140" height="60" as="geometry"/>
                </mxCell>
                <mxCell id="28" value="&lt;font color=&quot;#000000&quot;&gt;Form connexion / inscription&lt;/font&gt;" style="rounded=0;whiteSpace=wrap;html=1;strokeWidth=1;fillColor=#b1ddf0;strokeColor=#10739e;" parent="1" vertex="1">
                    <mxGeometry x="1900" y="265" width="360" height="475" as="geometry"/>
                </mxCell>
                <mxCell id="29" value="" style="rounded=0;whiteSpace=wrap;html=1;fillColor=#f5f5f5;gradientColor=#b3b3b3;strokeColor=#666666;" parent="1" vertex="1">
                    <mxGeometry x="-1422.5" y="10" width="770" height="700" as="geometry"/>
                </mxCell>
                <mxCell id="30" value="" style="rounded=0;whiteSpace=wrap;html=1;" parent="1" vertex="1">
                    <mxGeometry x="-1412.5" y="30" width="750" height="80" as="geometry"/>
                </mxCell>
                <mxCell id="31" value="NAV ?" style="rounded=0;whiteSpace=wrap;html=1;fillColor=#b1ddf0;strokeColor=#10739e;" parent="1" vertex="1">
                    <mxGeometry x="-1402.5" y="40" width="140" height="60" as="geometry"/>
                </mxCell>
                <mxCell id="32" value="" style="rounded=0;whiteSpace=wrap;html=1;fillColor=none;strokeWidth=7;" parent="1" vertex="1">
                    <mxGeometry x="-1242.5" y="40" width="410" height="60" as="geometry"/>
                </mxCell>
                <mxCell id="33" value="" style="rounded=0;whiteSpace=wrap;html=1;strokeWidth=1;fontColor=#000000;" parent="1" vertex="1">
                    <mxGeometry x="-1412.5" y="190" width="750" height="490" as="geometry"/>
                </mxCell>
                <mxCell id="35" value="" style="rounded=0;whiteSpace=wrap;html=1;fillColor=#f9f7ed;strokeColor=#36393d;" parent="1" vertex="1">
                    <mxGeometry x="-1402.5" y="305" width="730" height="80" as="geometry"/>
                </mxCell>
                <mxCell id="37" value="&lt;font color=&quot;#000000&quot;&gt;Connexion&lt;/font&gt;" style="rounded=0;whiteSpace=wrap;html=1;strokeWidth=1;fillColor=#fad9d5;strokeColor=#ae4132;" parent="1" vertex="1">
                    <mxGeometry x="-812.5" y="40" width="140" height="60" as="geometry"/>
                </mxCell>
                <mxCell id="38" value="" style="rounded=0;whiteSpace=wrap;html=1;strokeWidth=1;fontColor=#000000;" parent="1" vertex="1">
                    <mxGeometry x="-1412.5" y="120" width="750" height="60" as="geometry"/>
                </mxCell>
                <mxCell id="39" value="" style="rounded=0;whiteSpace=wrap;html=1;strokeWidth=1;fillColor=#b0e3e6;strokeColor=#0e8088;" parent="1" vertex="1">
                    <mxGeometry x="-872.5" y="130" width="200" height="40" as="geometry"/>
                </mxCell>
                <mxCell id="40" value="" style="triangle;whiteSpace=wrap;html=1;strokeWidth=1;fontColor=#000000;" parent="1" vertex="1">
                    <mxGeometry x="-702.5" y="135" width="20" height="30" as="geometry"/>
                </mxCell>
                <mxCell id="41" value="" style="rounded=0;whiteSpace=wrap;html=1;strokeWidth=1;fontColor=#000000;" parent="1" vertex="1">
                    <mxGeometry x="-742.5" y="135" width="30" height="30" as="geometry"/>
                </mxCell>
                <mxCell id="42" value="v" style="rounded=0;whiteSpace=wrap;html=1;strokeWidth=1;fontColor=#000000;" parent="1" vertex="1">
                    <mxGeometry x="-782.5" y="135" width="30" height="30" as="geometry"/>
                </mxCell>
                <mxCell id="43" value="" style="triangle;whiteSpace=wrap;html=1;strokeWidth=1;fontColor=#000000;rotation=-180;" parent="1" vertex="1">
                    <mxGeometry x="-852.5" y="135" width="20" height="30" as="geometry"/>
                </mxCell>
                <mxCell id="44" value="v" style="rounded=0;whiteSpace=wrap;html=1;strokeWidth=1;fontColor=#000000;" parent="1" vertex="1">
                    <mxGeometry x="-822.5" y="135" width="30" height="30" as="geometry"/>
                </mxCell>
                <mxCell id="46" value="" style="rounded=0;whiteSpace=wrap;html=1;fillColor=#f9f7ed;strokeColor=#36393d;" parent="1" vertex="1">
                    <mxGeometry x="-1402.5" y="395" width="730" height="80" as="geometry"/>
                </mxCell>
                <mxCell id="47" value="" style="rounded=0;whiteSpace=wrap;html=1;fillColor=#f9f7ed;strokeColor=#36393d;" parent="1" vertex="1">
                    <mxGeometry x="-1402.5" y="485" width="730" height="80" as="geometry"/>
                </mxCell>
                <mxCell id="48" value="" style="rounded=0;whiteSpace=wrap;html=1;fillColor=#f9f7ed;strokeColor=#36393d;" parent="1" vertex="1">
                    <mxGeometry x="-1402.5" y="575" width="730" height="80" as="geometry"/>
                </mxCell>
                <mxCell id="49" value="" style="rounded=0;whiteSpace=wrap;html=1;fillColor=#f9f7ed;strokeColor=#36393d;" parent="1" vertex="1">
                    <mxGeometry x="-1402.5" y="215" width="730" height="80" as="geometry"/>
                </mxCell>
                <mxCell id="51" value="action" style="rounded=1;whiteSpace=wrap;html=1;strokeWidth=1;fillColor=#f8cecc;strokeColor=#b85450;" parent="1" vertex="1">
                    <mxGeometry x="-1392.5" y="225" width="120" height="60" as="geometry"/>
                </mxCell>
                <mxCell id="52" value="action" style="rounded=1;whiteSpace=wrap;html=1;strokeWidth=1;fillColor=#f8cecc;strokeColor=#b85450;" parent="1" vertex="1">
                    <mxGeometry x="-1392.5" y="310" width="120" height="60" as="geometry"/>
                </mxCell>
                <mxCell id="53" value="action" style="rounded=1;whiteSpace=wrap;html=1;strokeWidth=1;fillColor=#f8cecc;strokeColor=#b85450;" parent="1" vertex="1">
                    <mxGeometry x="-1392.5" y="405" width="120" height="60" as="geometry"/>
                </mxCell>
                <mxCell id="54" value="action" style="rounded=1;whiteSpace=wrap;html=1;strokeWidth=1;fillColor=#f8cecc;strokeColor=#b85450;" parent="1" vertex="1">
                    <mxGeometry x="-1392.5" y="495" width="120" height="60" as="geometry"/>
                </mxCell>
                <mxCell id="55" value="action" style="rounded=1;whiteSpace=wrap;html=1;strokeWidth=1;fillColor=#f8cecc;strokeColor=#b85450;" parent="1" vertex="1">
                    <mxGeometry x="-1392.5" y="585" width="120" height="60" as="geometry"/>
                </mxCell>
                <mxCell id="56" value="&lt;font color=&quot;#000000&quot;&gt;Switch D'user a Article&amp;nbsp;&lt;/font&gt;" style="rounded=1;whiteSpace=wrap;html=1;strokeWidth=1;fillColor=#dae8fc;strokeColor=#6c8ebf;" parent="1" vertex="1">
                    <mxGeometry x="-1392.5" y="130" width="350" height="40" as="geometry"/>
                </mxCell>
                <mxCell id="57" value="" style="rounded=0;whiteSpace=wrap;html=1;fillColor=#f5f5f5;gradientColor=#b3b3b3;strokeColor=#666666;" parent="1" vertex="1">
                    <mxGeometry x="2554" y="100" width="790" height="700" as="geometry"/>
                </mxCell>
                <mxCell id="58" value="&lt;p style=&quot;line-height: 150%;&quot;&gt;&lt;font color=&quot;#000000&quot;&gt;Page User&lt;/font&gt;&lt;/p&gt;" style="rounded=1;whiteSpace=wrap;html=1;strokeWidth=1;fillColor=#fad7ac;strokeColor=#b46504;" parent="1" vertex="1">
                    <mxGeometry x="2879" y="10" width="120" height="60" as="geometry"/>
                </mxCell>
                <mxCell id="59" value="" style="rounded=0;whiteSpace=wrap;html=1;strokeWidth=1;fontColor=#000000;" parent="1" vertex="1">
                    <mxGeometry x="2574" y="210" width="750" height="570" as="geometry"/>
                </mxCell>
                <mxCell id="60" value="" style="rounded=0;whiteSpace=wrap;html=1;" parent="1" vertex="1">
                    <mxGeometry x="2574" y="110" width="750" height="80" as="geometry"/>
                </mxCell>
                <mxCell id="61" value="NAV ?" style="rounded=0;whiteSpace=wrap;html=1;fillColor=#b1ddf0;strokeColor=#10739e;" parent="1" vertex="1">
                    <mxGeometry x="2584" y="120" width="140" height="60" as="geometry"/>
                </mxCell>
                <mxCell id="63" value="&lt;font color=&quot;#000000&quot;&gt;(dé)Connexion&lt;br&gt;Inscription&lt;/font&gt;&lt;span style=&quot;color: rgba(0, 0, 0, 0); font-family: monospace; font-size: 0px; text-align: start;&quot;&gt;%3CmxGraphModel%3E%3Croot%3E%3CmxCell%20id%3D%220%22%2F%3E%3CmxCell%20id%3D%221%22%20parent%3D%220%22%2F%3E%3CmxCell%20id%3D%222%22%20value%3D%22%22%20style%3D%22rounded%3D0%3BwhiteSpace%3Dwrap%3Bhtml%3D1%3BfillColor%3D%23f5f5f5%3BgradientColor%3D%23b3b3b3%3BstrokeColor%3D%23666666%3B%22%20vertex%3D%221%22%20parent%3D%221%22%3E%3CmxGeometry%20x%3D%22846%22%20y%3D%2240%22%20width%3D%22790%22%20height%3D%22700%22%20as%3D%22geometry%22%2F%3E%3C%2FmxCell%3E%3CmxCell%20id%3D%223%22%20value%3D%22%26lt%3Bp%20style%3D%26quot%3Bline-height%3A%20150%25%3B%26quot%3B%26gt%3B%26lt%3Bfont%20color%3D%26quot%3B%23000000%26quot%3B%26gt%3BPage%20User%26lt%3B%2Ffont%26gt%3B%26lt%3B%2Fp%26gt%3B%22%20style%3D%22rounded%3D1%3BwhiteSpace%3Dwrap%3Bhtml%3D1%3BstrokeWidth%3D1%3BfillColor%3D%23fad7ac%3BstrokeColor%3D%23b46504%3B%22%20vertex%3D%221%22%20parent%3D%221%22%3E%3CmxGeometry%20x%3D%221171%22%20y%3D%22-50%22%20width%3D%22120%22%20height%3D%2260%22%20as%3D%22geometry%22%2F%3E%3C%2FmxCell%3E%3CmxCell%20id%3D%224%22%20value%3D%22%22%20style%3D%22rounded%3D0%3BwhiteSpace%3Dwrap%3Bhtml%3D1%3BstrokeWidth%3D1%3BfontColor%3D%23000000%3B%22%20vertex%3D%221%22%20parent%3D%221%22%3E%3CmxGeometry%20x%3D%22866%22%20y%3D%22150%22%20width%3D%22750%22%20height%3D%22570%22%20as%3D%22geometry%22%2F%3E%3C%2FmxCell%3E%3CmxCell%20id%3D%225%22%20value%3D%22%22%20style%3D%22rounded%3D0%3BwhiteSpace%3Dwrap%3Bhtml%3D1%3B%22%20vertex%3D%221%22%20parent%3D%221%22%3E%3CmxGeometry%20x%3D%22866%22%20y%3D%2250%22%20width%3D%22750%22%20height%3D%2280%22%20as%3D%22geometry%22%2F%3E%3C%2FmxCell%3E%3CmxCell%20id%3D%226%22%20value%3D%22NAV%20%3F%22%20style%3D%22rounded%3D0%3BwhiteSpace%3Dwrap%3Bhtml%3D1%3BfillColor%3D%23b1ddf0%3BstrokeColor%3D%2310739e%3B%22%20vertex%3D%221%22%20parent%3D%221%22%3E%3CmxGeometry%20x%3D%22876%22%20y%3D%2260%22%20width%3D%22140%22%20height%3D%2260%22%20as%3D%22geometry%22%2F%3E%3C%2FmxCell%3E%3CmxCell%20id%3D%227%22%20value%3D%22Acces%20admin%20si%20droit%22%20style%3D%22rounded%3D0%3BwhiteSpace%3Dwrap%3Bhtml%3D1%3BfillColor%3Dnone%3BstrokeWidth%3D7%3B%22%20vertex%3D%221%22%20parent%3D%221%22%3E%3CmxGeometry%20x%3D%221036%22%20y%3D%2260%22%20width%3D%22410%22%20height%3D%2260%22%20as%3D%22geometry%22%2F%3E%3C%2FmxCell%3E%3CmxCell%20id%3D%228%22%20value%3D%22%26lt%3Bfont%20color%3D%26quot%3B%23000000%26quot%3B%26gt%3BConnexion%26lt%3B%2Ffont%26gt%3B%22%20style%3D%22rounded%3D0%3BwhiteSpace%3Dwrap%3Bhtml%3D1%3BstrokeWidth%3D1%3BfillColor%3D%23fad9d5%3BstrokeColor%3D%23ae4132%3B%22%20vertex%3D%221%22%20parent%3D%221%22%3E%3CmxGeometry%20x%3D%221466%22%20y%3D%2260%22%20width%3D%22140%22%20height%3D%2260%22%20as%3D%22geometry%22%2F%3E%3C%2FmxCell%3E%3CmxCell%20id%3D%229%22%20value%3D%22%26lt%3Bfont%20color%3D%26quot%3B%23000000%26quot%3B%26gt%3BChanger%20Les%20Infos%20d'User%26lt%3B%2Ffont%26gt%3B%22%20style%3D%22rounded%3D0%3BwhiteSpace%3Dwrap%3Bhtml%3D1%3BstrokeWidth%3D1%3BfillColor%3D%23b1ddf0%3BstrokeColor%3D%2310739e%3B%22%20vertex%3D%221%22%20parent%3D%221%22%3E%3CmxGeometry%20x%3D%221066%22%20y%3D%22195%22%20width%3D%22360%22%20height%3D%22475%22%20as%3D%22geometry%22%2F%3E%3C%2FmxCell%3E%3C%2Froot%3E%3C%2FmxGraphModel%3E&lt;/span&gt;&lt;font color=&quot;#000000&quot;&gt;&lt;br&gt;&lt;/font&gt;" style="rounded=0;whiteSpace=wrap;html=1;strokeWidth=1;fillColor=#fad9d5;strokeColor=#ae4132;" parent="1" vertex="1">
                    <mxGeometry x="3175" y="120" width="140" height="60" as="geometry"/>
                </mxCell>
                <mxCell id="64" value="&lt;font color=&quot;#000000&quot;&gt;Changer Les Infos d'User&lt;/font&gt;" style="rounded=0;whiteSpace=wrap;html=1;strokeWidth=1;fillColor=#b1ddf0;strokeColor=#10739e;" parent="1" vertex="1">
                    <mxGeometry x="2774" y="255" width="360" height="475" as="geometry"/>
                </mxCell>
                <mxCell id="99" style="edgeStyle=none;html=1;strokeWidth=8;fontColor=#000000;entryX=0.5;entryY=0;entryDx=0;entryDy=0;fillColor=#f8cecc;strokeColor=#b85450;" parent="1" source="65" target="21" edge="1">
                    <mxGeometry relative="1" as="geometry">
                        <mxPoint x="2320" y="-200" as="targetPoint"/>
                        <Array as="points">
                            <mxPoint x="710" y="-240"/>
                            <mxPoint x="2060" y="-250"/>
                        </Array>
                    </mxGeometry>
                </mxCell>
                <mxCell id="102" value="Text" style="edgeLabel;html=1;align=center;verticalAlign=middle;resizable=0;points=[];fontColor=#000000;" parent="99" vertex="1" connectable="0">
                    <mxGeometry x="-0.1194" y="12" relative="1" as="geometry">
                        <mxPoint as="offset"/>
                    </mxGeometry>
                </mxCell>
                <mxCell id="65" value="&lt;font color=&quot;#000000&quot;&gt;(dé)Connexion&lt;br&gt;Inscription&lt;/font&gt;&lt;span style=&quot;color: rgba(0, 0, 0, 0); font-family: monospace; font-size: 0px; text-align: start;&quot;&gt;%3CmxGraphModel%3E%3Croot%3E%3CmxCell%20id%3D%220%22%2F%3E%3CmxCell%20id%3D%221%22%20parent%3D%220%22%2F%3E%3CmxCell%20id%3D%222%22%20value%3D%22%22%20style%3D%22rounded%3D0%3BwhiteSpace%3Dwrap%3Bhtml%3D1%3BfillColor%3D%23f5f5f5%3BgradientColor%3D%23b3b3b3%3BstrokeColor%3D%23666666%3B%22%20vertex%3D%221%22%20parent%3D%221%22%3E%3CmxGeometry%20x%3D%22846%22%20y%3D%2240%22%20width%3D%22790%22%20height%3D%22700%22%20as%3D%22geometry%22%2F%3E%3C%2FmxCell%3E%3CmxCell%20id%3D%223%22%20value%3D%22%26lt%3Bp%20style%3D%26quot%3Bline-height%3A%20150%25%3B%26quot%3B%26gt%3B%26lt%3Bfont%20color%3D%26quot%3B%23000000%26quot%3B%26gt%3BPage%20User%26lt%3B%2Ffont%26gt%3B%26lt%3B%2Fp%26gt%3B%22%20style%3D%22rounded%3D1%3BwhiteSpace%3Dwrap%3Bhtml%3D1%3BstrokeWidth%3D1%3BfillColor%3D%23fad7ac%3BstrokeColor%3D%23b46504%3B%22%20vertex%3D%221%22%20parent%3D%221%22%3E%3CmxGeometry%20x%3D%221171%22%20y%3D%22-50%22%20width%3D%22120%22%20height%3D%2260%22%20as%3D%22geometry%22%2F%3E%3C%2FmxCell%3E%3CmxCell%20id%3D%224%22%20value%3D%22%22%20style%3D%22rounded%3D0%3BwhiteSpace%3Dwrap%3Bhtml%3D1%3BstrokeWidth%3D1%3BfontColor%3D%23000000%3B%22%20vertex%3D%221%22%20parent%3D%221%22%3E%3CmxGeometry%20x%3D%22866%22%20y%3D%22150%22%20width%3D%22750%22%20height%3D%22570%22%20as%3D%22geometry%22%2F%3E%3C%2FmxCell%3E%3CmxCell%20id%3D%225%22%20value%3D%22%22%20style%3D%22rounded%3D0%3BwhiteSpace%3Dwrap%3Bhtml%3D1%3B%22%20vertex%3D%221%22%20parent%3D%221%22%3E%3CmxGeometry%20x%3D%22866%22%20y%3D%2250%22%20width%3D%22750%22%20height%3D%2280%22%20as%3D%22geometry%22%2F%3E%3C%2FmxCell%3E%3CmxCell%20id%3D%226%22%20value%3D%22NAV%20%3F%22%20style%3D%22rounded%3D0%3BwhiteSpace%3Dwrap%3Bhtml%3D1%3BfillColor%3D%23b1ddf0%3BstrokeColor%3D%2310739e%3B%22%20vertex%3D%221%22%20parent%3D%221%22%3E%3CmxGeometry%20x%3D%22876%22%20y%3D%2260%22%20width%3D%22140%22%20height%3D%2260%22%20as%3D%22geometry%22%2F%3E%3C%2FmxCell%3E%3CmxCell%20id%3D%227%22%20value%3D%22Acces%20admin%20si%20droit%22%20style%3D%22rounded%3D0%3BwhiteSpace%3Dwrap%3Bhtml%3D1%3BfillColor%3Dnone%3BstrokeWidth%3D7%3B%22%20vertex%3D%221%22%20parent%3D%221%22%3E%3CmxGeometry%20x%3D%221036%22%20y%3D%2260%22%20width%3D%22410%22%20height%3D%2260%22%20as%3D%22geometry%22%2F%3E%3C%2FmxCell%3E%3CmxCell%20id%3D%228%22%20value%3D%22%26lt%3Bfont%20color%3D%26quot%3B%23000000%26quot%3B%26gt%3BConnexion%26lt%3B%2Ffont%26gt%3B%22%20style%3D%22rounded%3D0%3BwhiteSpace%3Dwrap%3Bhtml%3D1%3BstrokeWidth%3D1%3BfillColor%3D%23fad9d5%3BstrokeColor%3D%23ae4132%3B%22%20vertex%3D%221%22%20parent%3D%221%22%3E%3CmxGeometry%20x%3D%221466%22%20y%3D%2260%22%20width%3D%22140%22%20height%3D%2260%22%20as%3D%22geometry%22%2F%3E%3C%2FmxCell%3E%3CmxCell%20id%3D%229%22%20value%3D%22%26lt%3Bfont%20color%3D%26quot%3B%23000000%26quot%3B%26gt%3BChanger%20Les%20Infos%20d'User%26lt%3B%2Ffont%26gt%3B%22%20style%3D%22rounded%3D0%3BwhiteSpace%3Dwrap%3Bhtml%3D1%3BstrokeWidth%3D1%3BfillColor%3D%23b1ddf0%3BstrokeColor%3D%2310739e%3B%22%20vertex%3D%221%22%20parent%3D%221%22%3E%3CmxGeometry%20x%3D%221066%22%20y%3D%22195%22%20width%3D%22360%22%20height%3D%22475%22%20as%3D%22geometry%22%2F%3E%3C%2FmxCell%3E%3C%2Froot%3E%3C%2FmxGraphModel%3E&lt;/span&gt;&lt;font color=&quot;#000000&quot;&gt;&lt;br&gt;&lt;/font&gt;" style="rounded=0;whiteSpace=wrap;html=1;strokeWidth=1;fillColor=#fad9d5;strokeColor=#ae4132;" parent="1" vertex="1">
                    <mxGeometry x="638" y="70" width="140" height="60" as="geometry"/>
                </mxCell>
                <mxCell id="66" value="" style="rounded=0;whiteSpace=wrap;html=1;fillColor=#f5f5f5;gradientColor=#b3b3b3;strokeColor=#666666;" parent="1" vertex="1">
                    <mxGeometry x="38" y="960" width="790" height="700" as="geometry"/>
                </mxCell>
                <mxCell id="67" value="&lt;p style=&quot;line-height: 150%;&quot;&gt;&lt;font color=&quot;#000000&quot;&gt;L'article&lt;/font&gt;&lt;/p&gt;" style="rounded=1;whiteSpace=wrap;html=1;strokeWidth=1;fillColor=#fad7ac;strokeColor=#b46504;" parent="1" vertex="1">
                    <mxGeometry x="363" y="870" width="120" height="60" as="geometry"/>
                </mxCell>
                <mxCell id="68" value="" style="rounded=0;whiteSpace=wrap;html=1;strokeWidth=1;fontColor=#000000;" parent="1" vertex="1">
                    <mxGeometry x="58" y="1070" width="750" height="570" as="geometry"/>
                </mxCell>
                <mxCell id="69" value="" style="rounded=0;whiteSpace=wrap;html=1;" parent="1" vertex="1">
                    <mxGeometry x="58" y="970" width="750" height="80" as="geometry"/>
                </mxCell>
                <mxCell id="70" value="NAV ?" style="rounded=0;whiteSpace=wrap;html=1;fillColor=#b1ddf0;strokeColor=#10739e;" parent="1" vertex="1">
                    <mxGeometry x="68" y="980" width="140" height="60" as="geometry"/>
                </mxCell>
                <mxCell id="71" value="&lt;font color=&quot;#000000&quot;&gt;Form connexion / inscription&lt;/font&gt;" style="rounded=0;whiteSpace=wrap;html=1;strokeWidth=1;fillColor=#b1ddf0;strokeColor=#10739e;" parent="1" vertex="1">
                    <mxGeometry x="83" y="1115" width="680" height="475" as="geometry"/>
                </mxCell>
                <mxCell id="78" value="" style="rounded=0;whiteSpace=wrap;html=1;fillColor=#f5f5f5;gradientColor=#b3b3b3;strokeColor=#666666;" parent="1" vertex="1">
                    <mxGeometry x="856" y="130" width="770" height="700" as="geometry"/>
                </mxCell>
                <mxCell id="79" value="" style="rounded=0;whiteSpace=wrap;html=1;" parent="1" vertex="1">
                    <mxGeometry x="866" y="150" width="750" height="80" as="geometry"/>
                </mxCell>
                <mxCell id="80" value="NAV ?" style="rounded=0;whiteSpace=wrap;html=1;fillColor=#b1ddf0;strokeColor=#10739e;" parent="1" vertex="1">
                    <mxGeometry x="876" y="160" width="140" height="60" as="geometry"/>
                </mxCell>
                <mxCell id="82" value="" style="rounded=0;whiteSpace=wrap;html=1;strokeWidth=1;fontColor=#000000;" parent="1" vertex="1">
                    <mxGeometry x="866" y="310" width="750" height="490" as="geometry"/>
                </mxCell>
                <mxCell id="83" value="&lt;font color=&quot;#000000&quot;&gt;Article&lt;/font&gt;" style="rounded=0;whiteSpace=wrap;html=1;fillColor=#f9f7ed;strokeColor=#36393d;" parent="1" vertex="1">
                    <mxGeometry x="876" y="330" width="730" height="140" as="geometry"/>
                </mxCell>
                <mxCell id="84" value="" style="rounded=0;whiteSpace=wrap;html=1;fillColor=#f9f7ed;strokeColor=#36393d;" parent="1" vertex="1">
                    <mxGeometry x="876" y="480" width="730" height="150" as="geometry"/>
                </mxCell>
                <mxCell id="119" style="edgeStyle=none;html=1;strokeWidth=8;fontColor=#000000;entryX=1.008;entryY=0.588;entryDx=0;entryDy=0;entryPerimeter=0;fillColor=#f8cecc;strokeColor=#b85450;" parent="1" source="85" target="66" edge="1">
                    <mxGeometry relative="1" as="geometry">
                        <mxPoint x="1241" y="1350" as="targetPoint"/>
                        <Array as="points">
                            <mxPoint x="1240" y="1372"/>
                        </Array>
                    </mxGeometry>
                </mxCell>
                <mxCell id="85" value="&lt;font color=&quot;#000000&quot;&gt;Un Article&lt;/font&gt;" style="rounded=0;whiteSpace=wrap;html=1;fillColor=#f9f7ed;strokeColor=#36393d;" parent="1" vertex="1">
                    <mxGeometry x="876" y="640" width="730" height="150" as="geometry"/>
                </mxCell>
                <mxCell id="86" value="&lt;font color=&quot;#000000&quot;&gt;Connexion&lt;/font&gt;" style="rounded=0;whiteSpace=wrap;html=1;strokeWidth=1;fillColor=#fad9d5;strokeColor=#ae4132;" parent="1" vertex="1">
                    <mxGeometry x="1466" y="160" width="140" height="60" as="geometry"/>
                </mxCell>
                <mxCell id="87" value="" style="rounded=0;whiteSpace=wrap;html=1;strokeWidth=1;fontColor=#000000;" parent="1" vertex="1">
                    <mxGeometry x="866" y="240" width="750" height="60" as="geometry"/>
                </mxCell>
                <mxCell id="88" value="" style="rounded=0;whiteSpace=wrap;html=1;strokeWidth=1;fillColor=#b0e3e6;strokeColor=#0e8088;" parent="1" vertex="1">
                    <mxGeometry x="1406" y="250" width="200" height="40" as="geometry"/>
                </mxCell>
                <mxCell id="89" value="" style="triangle;whiteSpace=wrap;html=1;strokeWidth=1;fontColor=#000000;" parent="1" vertex="1">
                    <mxGeometry x="1576" y="255" width="20" height="30" as="geometry"/>
                </mxCell>
                <mxCell id="90" value="" style="rounded=0;whiteSpace=wrap;html=1;strokeWidth=1;fontColor=#000000;" parent="1" vertex="1">
                    <mxGeometry x="1536" y="255" width="30" height="30" as="geometry"/>
                </mxCell>
                <mxCell id="91" value="v" style="rounded=0;whiteSpace=wrap;html=1;strokeWidth=1;fontColor=#000000;" parent="1" vertex="1">
                    <mxGeometry x="1496" y="255" width="30" height="30" as="geometry"/>
                </mxCell>
                <mxCell id="92" value="" style="triangle;whiteSpace=wrap;html=1;strokeWidth=1;fontColor=#000000;rotation=-180;" parent="1" vertex="1">
                    <mxGeometry x="1426" y="255" width="20" height="30" as="geometry"/>
                </mxCell>
                <mxCell id="93" value="v" style="rounded=0;whiteSpace=wrap;html=1;strokeWidth=1;fontColor=#000000;" parent="1" vertex="1">
                    <mxGeometry x="1456" y="255" width="30" height="30" as="geometry"/>
                </mxCell>
                <mxCell id="94" value="&lt;p style=&quot;line-height: 150%;&quot;&gt;&lt;font color=&quot;#000000&quot;&gt;Artilcles&lt;/font&gt;&lt;/p&gt;" style="rounded=1;whiteSpace=wrap;html=1;strokeWidth=1;fillColor=#fad7ac;strokeColor=#b46504;" parent="1" vertex="1">
                    <mxGeometry x="1181" y="30" width="120" height="60" as="geometry"/>
                </mxCell>
                <mxCell id="100" style="edgeStyle=none;html=1;strokeWidth=8;fontColor=#000000;entryX=0.5;entryY=0;entryDx=0;entryDy=0;" parent="1" source="95" target="58" edge="1">
                    <mxGeometry relative="1" as="geometry">
                        <mxPoint x="2850" y="-30" as="targetPoint"/>
                        <Array as="points">
                            <mxPoint x="1520" y="-250"/>
                            <mxPoint x="2939" y="-250"/>
                        </Array>
                    </mxGeometry>
                </mxCell>
                <mxCell id="95" value="&lt;font color=&quot;#000000&quot;&gt;(dé)Connexion&lt;br&gt;Inscription&lt;/font&gt;&lt;span style=&quot;color: rgba(0, 0, 0, 0); font-family: monospace; font-size: 0px; text-align: start;&quot;&gt;%3CmxGraphModel%3E%3Croot%3E%3CmxCell%20id%3D%220%22%2F%3E%3CmxCell%20id%3D%221%22%20parent%3D%220%22%2F%3E%3CmxCell%20id%3D%222%22%20value%3D%22%22%20style%3D%22rounded%3D0%3BwhiteSpace%3Dwrap%3Bhtml%3D1%3BfillColor%3D%23f5f5f5%3BgradientColor%3D%23b3b3b3%3BstrokeColor%3D%23666666%3B%22%20vertex%3D%221%22%20parent%3D%221%22%3E%3CmxGeometry%20x%3D%22846%22%20y%3D%2240%22%20width%3D%22790%22%20height%3D%22700%22%20as%3D%22geometry%22%2F%3E%3C%2FmxCell%3E%3CmxCell%20id%3D%223%22%20value%3D%22%26lt%3Bp%20style%3D%26quot%3Bline-height%3A%20150%25%3B%26quot%3B%26gt%3B%26lt%3Bfont%20color%3D%26quot%3B%23000000%26quot%3B%26gt%3BPage%20User%26lt%3B%2Ffont%26gt%3B%26lt%3B%2Fp%26gt%3B%22%20style%3D%22rounded%3D1%3BwhiteSpace%3Dwrap%3Bhtml%3D1%3BstrokeWidth%3D1%3BfillColor%3D%23fad7ac%3BstrokeColor%3D%23b46504%3B%22%20vertex%3D%221%22%20parent%3D%221%22%3E%3CmxGeometry%20x%3D%221171%22%20y%3D%22-50%22%20width%3D%22120%22%20height%3D%2260%22%20as%3D%22geometry%22%2F%3E%3C%2FmxCell%3E%3CmxCell%20id%3D%224%22%20value%3D%22%22%20style%3D%22rounded%3D0%3BwhiteSpace%3Dwrap%3Bhtml%3D1%3BstrokeWidth%3D1%3BfontColor%3D%23000000%3B%22%20vertex%3D%221%22%20parent%3D%221%22%3E%3CmxGeometry%20x%3D%22866%22%20y%3D%22150%22%20width%3D%22750%22%20height%3D%22570%22%20as%3D%22geometry%22%2F%3E%3C%2FmxCell%3E%3CmxCell%20id%3D%225%22%20value%3D%22%22%20style%3D%22rounded%3D0%3BwhiteSpace%3Dwrap%3Bhtml%3D1%3B%22%20vertex%3D%221%22%20parent%3D%221%22%3E%3CmxGeometry%20x%3D%22866%22%20y%3D%2250%22%20width%3D%22750%22%20height%3D%2280%22%20as%3D%22geometry%22%2F%3E%3C%2FmxCell%3E%3CmxCell%20id%3D%226%22%20value%3D%22NAV%20%3F%22%20style%3D%22rounded%3D0%3BwhiteSpace%3Dwrap%3Bhtml%3D1%3BfillColor%3D%23b1ddf0%3BstrokeColor%3D%2310739e%3B%22%20vertex%3D%221%22%20parent%3D%221%22%3E%3CmxGeometry%20x%3D%22876%22%20y%3D%2260%22%20width%3D%22140%22%20height%3D%2260%22%20as%3D%22geometry%22%2F%3E%3C%2FmxCell%3E%3CmxCell%20id%3D%227%22%20value%3D%22Acces%20admin%20si%20droit%22%20style%3D%22rounded%3D0%3BwhiteSpace%3Dwrap%3Bhtml%3D1%3BfillColor%3Dnone%3BstrokeWidth%3D7%3B%22%20vertex%3D%221%22%20parent%3D%221%22%3E%3CmxGeometry%20x%3D%221036%22%20y%3D%2260%22%20width%3D%22410%22%20height%3D%2260%22%20as%3D%22geometry%22%2F%3E%3C%2FmxCell%3E%3CmxCell%20id%3D%228%22%20value%3D%22%26lt%3Bfont%20color%3D%26quot%3B%23000000%26quot%3B%26gt%3BConnexion%26lt%3B%2Ffont%26gt%3B%22%20style%3D%22rounded%3D0%3BwhiteSpace%3Dwrap%3Bhtml%3D1%3BstrokeWidth%3D1%3BfillColor%3D%23fad9d5%3BstrokeColor%3D%23ae4132%3B%22%20vertex%3D%221%22%20parent%3D%221%22%3E%3CmxGeometry%20x%3D%221466%22%20y%3D%2260%22%20width%3D%22140%22%20height%3D%2260%22%20as%3D%22geometry%22%2F%3E%3C%2FmxCell%3E%3CmxCell%20id%3D%229%22%20value%3D%22%26lt%3Bfont%20color%3D%26quot%3B%23000000%26quot%3B%26gt%3BChanger%20Les%20Infos%20d'User%26lt%3B%2Ffont%26gt%3B%22%20style%3D%22rounded%3D0%3BwhiteSpace%3Dwrap%3Bhtml%3D1%3BstrokeWidth%3D1%3BfillColor%3D%23b1ddf0%3BstrokeColor%3D%2310739e%3B%22%20vertex%3D%221%22%20parent%3D%221%22%3E%3CmxGeometry%20x%3D%221066%22%20y%3D%22195%22%20width%3D%22360%22%20height%3D%22475%22%20as%3D%22geometry%22%2F%3E%3C%2FmxCell%3E%3C%2Froot%3E%3C%2FmxGraphModel%3E&lt;/span&gt;&lt;font color=&quot;#000000&quot;&gt;&lt;br&gt;&lt;/font&gt;" style="rounded=0;whiteSpace=wrap;html=1;strokeWidth=1;fillColor=#fad9d5;strokeColor=#ae4132;" parent="1" vertex="1">
                    <mxGeometry x="1466" y="160" width="140" height="60" as="geometry"/>
                </mxCell>
                <mxCell id="97" style="edgeStyle=none;html=1;fontColor=#000000;strokeWidth=8;fillColor=#f8cecc;strokeColor=#b85450;" parent="1" source="96" edge="1">
                    <mxGeometry relative="1" as="geometry">
                        <mxPoint x="850" y="530" as="targetPoint"/>
                        <Array as="points">
                            <mxPoint x="410" y="530"/>
                            <mxPoint x="670" y="530"/>
                        </Array>
                    </mxGeometry>
                </mxCell>
                <mxCell id="96" value="&lt;font color=&quot;#000000&quot;&gt;Voir Plus Darticles&lt;/font&gt;" style="rounded=0;whiteSpace=wrap;html=1;fillColor=#f9f7ed;strokeColor=#36393d;" parent="1" vertex="1">
                    <mxGeometry x="49" y="560" width="730" height="80" as="geometry"/>
                </mxCell>
                <mxCell id="101" style="edgeStyle=none;html=1;strokeWidth=8;fontColor=#000000;entryX=0.5;entryY=0;entryDx=0;entryDy=0;fillColor=#f8cecc;strokeColor=#b85450;" parent="1" source="95" target="58" edge="1">
                    <mxGeometry relative="1" as="geometry">
                        <mxPoint x="1534.909090909091" y="160" as="sourcePoint"/>
                        <mxPoint x="2939" y="10" as="targetPoint"/>
                        <Array as="points">
                            <mxPoint x="1520" y="-250"/>
                            <mxPoint x="2939" y="-250"/>
                        </Array>
                    </mxGeometry>
                </mxCell>
                <mxCell id="103" value="&lt;font color=&quot;#ffffff&quot;&gt;Titre --------------------------------&lt;/font&gt;" style="rounded=0;whiteSpace=wrap;html=1;strokeWidth=1;fontColor=#000000;align=left;" parent="1" vertex="1">
                    <mxGeometry x="100" y="1140" width="640" height="60" as="geometry"/>
                </mxCell>
                <mxCell id="104" value="L'article" style="rounded=0;whiteSpace=wrap;html=1;strokeWidth=1;fontColor=#FFFFFF;" parent="1" vertex="1">
                    <mxGeometry x="100" y="1220" width="640" height="250" as="geometry"/>
                </mxCell>
                <mxCell id="105" value="Les commentaires" style="rounded=0;whiteSpace=wrap;html=1;strokeWidth=1;fontColor=#FFFFFF;" parent="1" vertex="1">
                    <mxGeometry x="100" y="1480" width="650" height="90" as="geometry"/>
                </mxCell>
                <mxCell id="107" style="edgeStyle=none;html=1;strokeWidth=8;fontColor=#FFFFFF;" parent="1" source="106" target="87" edge="1">
                    <mxGeometry relative="1" as="geometry"/>
                </mxCell>
                <mxCell id="106" value="&lt;font color=&quot;#000000&quot;&gt;Recherche&lt;/font&gt;" style="rounded=0;whiteSpace=wrap;html=1;strokeWidth=1;fillColor=#dae8fc;strokeColor=#6c8ebf;" parent="1" vertex="1">
                    <mxGeometry x="886" y="245" width="184" height="45" as="geometry"/>
                </mxCell>
                <mxCell id="108" value="&lt;p style=&quot;line-height: 150%;&quot;&gt;&lt;font color=&quot;#000000&quot;&gt;Creation D'article&lt;/font&gt;&lt;/p&gt;" style="rounded=1;whiteSpace=wrap;html=1;strokeWidth=1;fillColor=#fad7ac;strokeColor=#b46504;" parent="1" vertex="1">
                    <mxGeometry x="-1102.5" y="710" width="120" height="60" as="geometry"/>
                </mxCell>
                <mxCell id="116" value="" style="rounded=0;whiteSpace=wrap;html=1;fillColor=#f5f5f5;gradientColor=#b3b3b3;strokeColor=#666666;" parent="1" vertex="1">
                    <mxGeometry x="-1417.5" y="780" width="790" height="700" as="geometry"/>
                </mxCell>
                <mxCell id="110" value="" style="rounded=0;whiteSpace=wrap;html=1;" parent="1" vertex="1">
                    <mxGeometry x="-1392.5" y="820" width="750" height="80" as="geometry"/>
                </mxCell>
                <mxCell id="111" value="NAV ?" style="rounded=0;whiteSpace=wrap;html=1;fillColor=#b1ddf0;strokeColor=#10739e;" parent="1" vertex="1">
                    <mxGeometry x="-1367.5" y="830" width="140" height="60" as="geometry"/>
                </mxCell>
                <mxCell id="112" value="&lt;font color=&quot;#000000&quot;&gt;Form connexion / inscription&lt;/font&gt;" style="rounded=0;whiteSpace=wrap;html=1;strokeWidth=1;fillColor=#b1ddf0;strokeColor=#10739e;" parent="1" vertex="1">
                    <mxGeometry x="-1362.5" y="965" width="680" height="475" as="geometry"/>
                </mxCell>
                <mxCell id="113" value="&lt;font color=&quot;#ffffff&quot;&gt;Titre --------------------------------&lt;/font&gt;" style="rounded=0;whiteSpace=wrap;html=1;strokeWidth=1;fontColor=#000000;align=left;" parent="1" vertex="1">
                    <mxGeometry x="-1345.5" y="990" width="640" height="60" as="geometry"/>
                </mxCell>
                <mxCell id="114" value="L'article" style="rounded=0;whiteSpace=wrap;html=1;strokeWidth=1;fontColor=#FFFFFF;" parent="1" vertex="1">
                    <mxGeometry x="-1345.5" y="1070" width="640" height="330" as="geometry"/>
                </mxCell>
                <mxCell id="117" value="&lt;font color=&quot;#000000&quot;&gt;Les TAGS&lt;/font&gt;" style="rounded=0;whiteSpace=wrap;html=1;strokeWidth=1;fillColor=#fff2cc;strokeColor=#d6b656;" parent="1" vertex="1">
                    <mxGeometry x="-1217.5" y="1315" width="390" height="60" as="geometry"/>
                </mxCell>
                <mxCell id="118" value="&lt;font color=&quot;#000000&quot;&gt;Les TAGS&lt;/font&gt;" style="rounded=0;whiteSpace=wrap;html=1;strokeWidth=1;fillColor=#fff2cc;strokeColor=#d6b656;" parent="1" vertex="1">
                    <mxGeometry x="238" y="1410" width="390" height="60" as="geometry"/>
                </mxCell>
                <mxCell id="120" value="Acces admin si droit" style="rounded=0;whiteSpace=wrap;html=1;strokeWidth=7;strokeColor=#CCFF99;" parent="1" vertex="1">
                    <mxGeometry x="228" y="980" width="410" height="60" as="geometry"/>
                </mxCell>
                <mxCell id="121" value="Acces admin si droit" style="rounded=0;whiteSpace=wrap;html=1;strokeWidth=7;strokeColor=#CCFF99;" parent="1" vertex="1">
                    <mxGeometry x="208" y="70" width="410" height="60" as="geometry"/>
                </mxCell>
                <mxCell id="122" value="Acces admin si droit" style="rounded=0;whiteSpace=wrap;html=1;strokeWidth=7;strokeColor=#CCFF99;" parent="1" vertex="1">
                    <mxGeometry x="2744" y="120" width="410" height="60" as="geometry"/>
                </mxCell>
                <mxCell id="123" value="Acces admin si droit" style="rounded=0;whiteSpace=wrap;html=1;strokeWidth=7;strokeColor=#CCFF99;" parent="1" vertex="1">
                    <mxGeometry x="1030" y="160" width="410" height="60" as="geometry"/>
                </mxCell>
                <mxCell id="126" style="edgeStyle=none;html=1;strokeWidth=8;fontColor=#000000;fillColor=#d5e8d4;strokeColor=#82b366;" parent="1" source="125" target="45" edge="1">
                    <mxGeometry relative="1" as="geometry"/>
                </mxCell>
                <mxCell id="125" value="Acces admin si droit" style="rounded=0;whiteSpace=wrap;html=1;strokeWidth=7;strokeColor=#CCFF99;" parent="1" vertex="1">
                    <mxGeometry x="-480" y="685" width="410" height="60" as="geometry"/>
                </mxCell>
                <mxCell id="128" value="" style="shape=image;verticalLabelPosition=bottom;labelBackgroundColor=default;verticalAlign=top;aspect=fixed;imageAspect=0;image=data:image/png,iVBORw0KGgoAAAANSUhEUgAAAvcAAALlCAYAAABAYckrAAAABHNCSVQICAgIfAhkiAAAABl0RVh0U29mdHdhcmUAZ25vbWUtc2NyZWVuc2hvdO8Dvz4AAAAodEVYdENyZWF0aW9uIFRpbWUAbHVuLiAwNiBtYXJzIDIwMjMgMTI6MzE6MzQ6tRUOAAAgAElEQVR4nOzdd1wUR/8H8M/d0aTbsHAnvUoRFFFRxN4bEmvUWKKxx/IkP9M0+sQWa3w0lhSTmNi7ErACFhQRRCwU6aDSQTp3ML8/8FaOKxyKmuj3/Xrx0tvZnZ2dLffd2Zk9Xm5+IQMhhBBCCCHkX4//tgtACCGEEEIIaRwU3BNCCCGEEPKOoOCeEEIIIYSQd4RGgxcQCKCjow1NDQ3weK+jSIQQQgghhBAAYAwQSyQoL6+ApKqq3vkbFNxrCAQw0NejoJ4QQgghhJA3gMcDtDQ1oKmhgaLiknoD/AZ1y9HR0abAnhBCCCGEkDeMx6uJxevToOBeU6PBvXgIIYQQQgghjUCdWLxBwT212hNCCCGEEPJ2qBOL09tyCCGEEEIIeUdQcE8IIYQQQsg7goJ7QgghhBBC3hEU3BNCCCGEEPIGVanxvvqX9d6//iYxqwgBdx/jamwWHmQU4OHjQgCAQ1sjOJoao7udCQa6tIWlicFbLikhhBBCCPm3Sk/PQFh4OFLT0lFeXg4dHR20EwnRuVMnCIWmjbYeXm5+IVN35mbGho2y0ti4eFwPvYFuXbvAztamUfJ8GdvPx2Db0WDE3rkJWPsonc9ZZIxZvW0xt5/9myscIYQQQgh5JwSFXEHYrXDY29nCztYWBvr6KCouxsOYWMTGxcGzswd8vHuolVdewTOV6W88uE9OScGhI8dgbtYOKalp+GD0KJibmb1yvg2RmluCoNuxiLj3EFsDHgBaegCrBgzbAAJNhcvweTwsGOCARYMc0K653hstLyGEEEII+Xe6FX4bIVevYfSoEQpj3sSkZBw7cRI9vbvDo2PHevOrL7h/o33un2Zm4tiJU/Do1BFj/Eajk7sbjp04haeZmW+yGNh/NR5jvB3h0U4fzapy4Zh/DY7JB+GduheWcX+gSdZdoEoss0w1Y9gS8ACb/374UutctWoV3NzcUF1d3Rib8EYsW7YMLi4uyM7OlksLDAyESCTC9u3b30LJ5FVXV6N3794YNWrU2y4KIYQQQggAoLy8HMFXrqJfn95KG7MtLczRt08vhFy5hvKKilde5xsL7gsKCnDoyDHY2lijV09vAEAvn56wsbbC4aPHUFBQ+EbKsf18DFYdv4tBn27E2h1/oBMeoa1WGZobG4Mv4MPGiIc22WHgVRQpXP6HwIfYfj6mwes9d+4c+vbtCz6fj6+++goikQjTp0/n0nft2gWRSIQrV67Um1dUVBTGjRsHBwcHODk5YcGCBVwAnpeXh02bNiEiIqLBZawrIyMD+fn5KCpSXBd1nTp1Cr169YKlpSW8vb2xf//+Vy6DKrt27cKpU6cA1AT3T548QVpa2mtd5z/Vg4cxiLwT9baLQQghhJBaHsbEQldXF85O7VXO5+rsDB0dHcTExL7yOt/IgNrS0lIcOHwUrVuZYPDAATJpQwYNxOFjx3HwyBFMmjAeurq6r60ciVlF2HUpDpVPY9DKMAHOjm1w/34exk0Yj6dPn2LBggXYuWsX2j16hCLBYxzI0wVfSxt6GpUoEmsDqGnB33UpDoNcTdUeZBsXF4fk5GQsX75cZvq5c+cQHh6OTp06qb0NRUVFmDRpEp49ewYnJyekp6fj+PHjcHBwwOzZsxEXF4fNmzfD0NAQ7u7u6leOAjt27EBeXh7atWtX77znz5/HvHnzoKGhAWtrayQmJuKzzz6DtrY2fH19X6kcipSUlGDLli3o1q0bhg8fDg0NDQQFBUEgEDT6ut6E5JRUXLh0GTOmTlGZJhaL8f2mLfjP4k+hqVnThay6uhpBISGYOG7smy72K7t+4yaqqqrQw6sb1ny/ERoCgcw+HPeBH9q2baN2ftXV1Vi1Zh2Wf7mMmyYWi/Hduu9ha2ONCWPHKF323IWL0NPVhVe3rirTLgUFAwB6+/REdXU1wsLD0aVzZwA1j1aDgkMw7aPJapdZXXWPkZTUNJz9OwClpaXQ1tHGsMGDuFYhVWmVlZU4cvwE0tMzAB4PXTt7oEd3LwDAnwcO4smTp9DS0uLm1dTUxMJ5c2TKUns7VR27jUUsFmP/ocNISk7BwP594enhoVZabV9/uwqrln/92spICCGKZOfkoG2b1uDV89OyPB4Ppm3bICc395XX+dpb7isrxTh05Bia6Ohg1Ijh4PNlV8nn8+E7Yjh0tHVw6MgxVFaKleT06gLuPkZ0WgEsWxlhz88/YdOWzdi2fTv09PTh2L49IiIj4Td6NFwsTNFGuwJa5bnwaJ6K5f2foklpBowExQCA6LQCBNx9LJf/rFmzIBKJsGfPHjg6OiIvLw9ATRcWXV1d9OghP1BizZo1CsuanJzMtc736dMHly5dAgDcv38f+fn58PPzw5kzZxAREYFdu3Zh9uzZiIiIwAcffAAA+PbbbzF9+nSEhoZCJBJx65E+ITh79iwAwMXFBd27d8dnn30GW1tbjBo1Cunp6QCAJUuWwMvLC0+ePAEA/PLLL3Bzc4OXlxfu378vU96tW7eCMYaDBw/i3LlzOHHiBAQCAbZu3QoA2LRpE0QiEYKCggAAH330EUQiEVdHQUFB6N+/P2xsbDB69GiuDDk5OZg8eTLs7Ozg5uaGlStXQiKRwMXFBcXFxTh37hwcHR0BAP369cPIkSO5Mv3444/o0qULnJ2dsXjxYhQXF8vsp59//hnOzs7w8vJCdHQ0ACAiIgIDBw6ElZUVevTogYMHDyrcP2+LpqYmFsydzQX2AMAYg5/vKBgZGb3Fkr2cBw9j4OjwYqD6jGkfYfHC+dxfQwJ7Veto07oV4uIfoby8/JXz696tK7o/vwEoLS3FjZu3uDRzs3YYO8bvlddRH7FYjAOHDmPUiGFYumghBvbrh/0HD9ebBgCXg0NgZGiIz5YswsK5sxERFYW09Awu3c93FBbMnY0Fc2fD1cVZ4UsP3tR2AkBpWRl+3vs7rCws4NTeUe00Qgj5Jygrq3krjjp0dHRQVlb2yut8rS331dXVOHbyJCoqKzFpwniZgKQ2TU1NfDDaF3/8tR/HTp7EmNG+cjcBjeFqbBYAQE/fEDweD3w+Hw8fPoR7xAFktrBCiWs/3L4dgeKwC/DynY7NsSkY7lIO5IRh5UhXNG0qwYyD+lxec/raKVzPjh07IBKJuO0NCAhAz549oa2tLTNfz549ERwcjAsXLshMZ4xh5syZSElJwdixY3Hx4kV8/PHHuHLlCkxNTcHn83H+/Hls2LABHTp0gLd3TTenNm3aYPDgwfD390fPnj0xYsQIteolPT0d+vr68PX1xZ9//omVK1di9+7dMvOkpKRgxYoV0NPTQ79+/XDixAkurbS0FNHR0bCwsIDH81YzJycntG/fHnfv3kVWVpbK9T9+/BjTpk2DSCTC/PnzsXPnTsyYMQMBAQHYtGkTLl++jPHjxyMzMxNXr15FWVkZZsyYgR07dsDKyoq7oanN398fq1evhqenJ4RCIQ4fPgwdHR2sXr2am+fmzZuYNGkStm3bhg0bNuC3337DkiVLkJmZicmTJ+P69eu4efMmxo5tWIv419+uwsB+fZGWkYHCwkL08PKCo4M9KisrsW7jZny97HMAQHZ2Dg4eOYp5s2cBAKqrq3Dw8FE8fvoETXR04DtyBExatpTLf93GzVwLZGxcPIKfd+XS0tLCsCGD0bxZMwBA8JWriImNA48HNG/WHMOHDpY7B5WVtbq6GqfOnEVKahr4fD4szM0wZNBA8Hg8XAoKRn5BAZ4+zYRJy5b4YLTicQ4xsXG4HRnJPVG4eesWcnPzuKd3ZWVlKCsv48pbX50OGtAfiUlJePbsGUYMGwrTtm0BAHfv3cPFS0EQaAjg5uoqt2xkVBS8unbFnbt3cffePXR+/qSsrKwMx06eQmZmFoyNjWBoaAi9508OVaVdvR4KAHDv4Irf9v2F3Lw8/O/HXRj3gR+KS0pkWrFDrl5D1PMbx3ZCEQYP7A9NTU1cCgpGXn4+ACA3NxdtWrfG8KFDAAA3wsJwMywcGhoC6OnpYcxoX7knmpqamvh0/lzummJpYY6i4mJIJBKVaRoaGoi+dx/Tnz9Z0NbWRkc3N0RFR0MkNEXPHt3R7Pn+EIvFuBV+G3OfH5+1paal19tav+mHbZjx0RQYGta8iOHYyVOwsbKSeTT9rKgIR4+fQFFRMXg8Hry6dYF7hw5yefl494C9nS2OnjjZoLS6rl0PRXhkJFg1wwejR3HHkLLzyD8gEE2bGqOrpycAYP+hw3BzdYW9nS1++vU3tBMJEX3/Pry6dkWXzh5Kz7lroTdwJyoK1YyhdatWGDF0CPd0hBDybmOM1dtqL8Xj8RplbOZrbbk/4/83srNzMPaD0dDVbaJyXl3dJhj7wWhkZ+fgjH/AaynPg4wCAEBcQhK++eYbPHr0CLa2NrjAWqOkSTMUFxejd+9eaDvqYxi1EcK0mR5a6JYjKqkYLu008L2/tlxeivz8888IDAyEgYEBnj59iujoaAwYMEBuvo8//hgCgQAbNmyQmR4XF4eHDx9i9OjRWLlyJb788ktUVlbi7NmzEIlE+Oqrr1BWVoatW7di6tSp8PT0xNWrV9GmTRsMGVITIPj4+GD48OFq1UubNm3wzTffYO3atRAKhbh+/brcPKGhoWCMYdGiRVi/fj2WLl3KpeXk5KC6uhrGxsYyyzRt2hQA6g3uAwICIBaLsXTpUixYsAAjR47E/fv3ER8fj9znj6ecnZ3xxRdf4OTJkzAwMMCMGTMAAFZWVpg7d65cnidP1nzR79y5E1u2bIGdnR2OHz8uM8/XX3+Nzz77DCYmJkhISABQE2jp6enBw8MDe/bswfr161WWXZHq6mq0d3TAuA/8MOXDifAPCERJaWm9yxUUFGL40MFYNH8eevbogSPHjqucv/DZM1wODsHUyZMwc/o09PbpiUNHjgIA7j94iIKCAsycPhUzp09D8+bNuO4k6pS1uroari4uWDhvDubP+QQ5ublITErmlistLcWsGdOUBvbqiImNg72trcy0vb/vww/bf8QP23/E/37cJVNOJ0cHfDh+HPr06oXAcxe4OggIPI/pU6dgwZzZaCcSyeRXXFyM9IzHsLezhZurKyIiX4xLOH/xElqZmGDxwvmY8uFElJSUqJUmZWxsjMkfTkDzZs0wb/YstGjRXCb9wcMYpKSmYs7MjzF/9ifQ19fD5eAQLp3P58Nv1EjMmjEd6RmPkZJaM17EpGVLzJ/zCeZ+MguW5ua4FnpDYf3Vbiy4E3UX5mZm0NDQUJnGGENBYSH09fW5dENDAxQU1FzPhKam0G1Sc62OuBMFCwtzGBm+3FvS3Dt0wO3IOwBqbhQSEhJlntIAAA/A4IEDsGDubHzy8XQEnLsAiUQiM49ukyawt5M9TtRJq6u6uho21tZYOHcOfHr2kDmGlJ1H9dHS0sLiBfPRpbOH0nOuptvcFcx+fhx0dHP713YfJIQ0XH5+PgwM1OvGbaCvj/x85fGlul5by/3Fy0FISEjEhPFjYaxmdwFjIyOM8fPFX/sP4uLlIPTp5dOoZZL+QFWpjgkqypPQunVr6OrqQvjVWmhqauKP337DVzPmov+kMbCwskVedRy+PW8KnTI3aN7SQ+yzVjXfRrXyUqRNmxddCc6dOweBQIA+ffrIzWdmZgY/Pz8cPHgQLWu10D59+hQAuINB+q+0e8zHH3+Mjz76CA8ePEBYWBhWrlyJdevWoXv37i9VL7W/aAwNDZGRkSF35yj98m/RogUA2eChyfNgoO6vrUnzkKYrk/n8bUlz5szBnDkv+vampaVhxowZCA0NxRdffAGgJsg/dOhQvdtUtw4NDQ0RGxvLdc0BwAVCWlpaqHg+On3x4sX49ttvMWtWTWvl+PHjFQb41dXV4PF4Cu/G+Xw+d6Ojo6ODVq1MkJ6eAQtz1a98bdasGVdXDvZ2OHT0GMRi5d3UEpOSUFBYiH1/HeCmlZaVobq6GjFxccjIeIy9v+8DAIglYhgZyp+Hyspqa2ON5JQUXL9xAwK+ANnZOXhW9OLVW6Zt23L197LuP3yI3j49ZaZ9NPlDNK1zkygtp7QFuHUrE+Q/Px5TUlNh1q4dDJ/vZ1GdHwG5czcaTo6O0NDQgL2dLY6dPIXcvDw0b9YMCYlJmDRxPICac6BN69bccqrS1BUTG4f2jg7c+eXi7IS/DhxC/74114La18VWJibIL8iHWTsRysrKsf/QYQj4AuQX5MPExETlehISE3HxchBmTPuoQWmqMMZwLTQUfq/w9qmObh2w55e98PHugej79+HoYC8X1AoEAty4eQtlZWVgYKioqEBJaelL31CowufzYWJSc501NzPDxUtBAFSfR/UxNzPjrgHKzjk+nw+Tli1w4tQZmLUTwdrKkoJ7Qt4TtyMikZ2Tg5HDh6o1v729Ha5eD0VE5B24u8k/xVTXawnuY+PicSv8NgYO6ActTS3uLkRbW0vhgNmysjJUVorBwKCtpY1evXoiIPA8REJT2No0/o9cVWvp4eCNZJQu+T/MmDEN9tYW0NHRwYyZMxHl6YnyKh68vjmBMoExyir0Ab4JEqPABfYNERAQgM6dO8u1akstWbIEJ06c4PqiA0Dr54GE9C010n/bPn+EvGfPHgwYMACurq6wtrbGmjVruKC1brApffQrbXlU1OdYOq2qqgrZ2dkwMjKS6xYlbYWXtqRX1HpVU/PmzaGlpYWMjAxUVVVxX1wpKSng8/lo3bq1ynJIg5cvv/ySG5dQXl4OW1tb6Ojo4OzZs8jOzsb+/ftx4MABXLx4EV5eXgrrU1Edamtr49mzZzAwMJBpsVRkyJAhGDJkCGJjY7F+/Xrs378fS5culQuw/vzzTxgbG2PYsGEq8wNqAiVF/39lDLCysFDces4Ar65d0NHdrWFZPi9f9L37SM/IwIfjx4HH46nV5UFVfnVJJJLng4xeok89j/ci33qqM+LOHVRWVOKH7T9KC4TIO1Ho27sXmIqFVaWpq0F58Grq6llREc74/41FC+ZBS0sLkVFRMk9M6oqMisK16zcwc/pUuWuMojQejwcjQ0MUl5RwN1FFz4rklo2Ni4eOds0vJ74sAwMDtGjRHMkpKbgdEcl1O6rt3IVLaNmiOTeIecPmrS+9vobg1TmGlJ5HPB5YtZr7UcU5N2PqR0hNS8PjJ0+w++dfMXHc2EYZT0II+ecKvx2Bi5eDMKBfXy6Gqk+zpk3Rr09vnLtwEdWsGp1e8sUoryW4lwZ3AYHnZaY7O7XHkEED5ea/FBSM6Hv35abz+Y3buuHQ1ghRqfmAlh5y7Ubhj/QUBK74E57FYTAwMYFRW1MA1bj4VA+ZWu1VBvMObet/GlFUVITQ0FB8/bXyNzS0adMGU6dOxc6dO7lptra2cHBwwNGjR8Hj8RAUFAQtLS0MGjQIwcHBWLlyJVavXg07OztkZ2dDLBajf//+AF4E4UFBQTA3N0eHDh0gEAhw7NgxVFRU4PLly3JlKCgowJQpU1BZWYns7Gyua09tXbt2BY/Hw+bNm/Hw4UOEhYVxaXw+HwMGDMDp06exdu1ajB07FqdPn0Zqaip69eoFPT09WFlZAQC+//57BAQEIDIyklt+0KBBWLNmDfbu3YusrCxER0ejuroahw8fxtKlS3H58mUMGzaM6zojFAphaGgIgUCAhIQE7N27Fx999JFMeUeMGAF/f3/MnDkTpqamiI2NxaRJk1Tur4qKCowZMwaamprw9vZGVlYW9PX1Fd6YSd/Qo0h1dTUeP3mCtm3aIL+gAI8fP4HQtC20tLTA5/ORmZWFViYmePz0icxyuXl53M9Rx8TGoUXz5krHqQCAhYU5As5fQH5BAZoaGyMhMRGJScno16c3bGysEHrjJlycnbg+3qZt28oNjlRW1ocxsdDX0+duFrOzc2BpYa6y/upq2tQYjx8/QWVlJbS0tPDkSSa0tGq2J/5RAqyfHxOvwqydCAHnzqOoqAgGBgZIz3gxMDQzKwulJaX4bMki7mY1KTkZR46dQN/evWBlYYmou9Ho08un5lWqT5/C2tISAFSmqcve1hYRd+6gg4sL+Hw+7kbfq/cXucViMTQ0Nbib4ezsHKXzXrwchLT0dHw87SO58Tyq0lycnXD9xk0MGTgAFRUVCI+MhO8I2S58V69fh1e3Lg3ZXIU6ubsj+MpVSCRVaKXgCURlZSV3w11WVoaiWk/W3hQLC+XnUVNjYyQnp6Bb1y7cDakyys65diIhIu5EoVsXT5i1a4cnTzORlZNNwT0h77Cs7GwusO/g6tKgZd06uIIxhvMXL8GsXTu0fN5joiFeS3BvbWWJhfPmyLz55lKtlmlF7Gxt0NvHh/uspaVZb3eOhnI0Na4J7gFAoIWq5jZoLb6P5sIO8OjgCCPDJjj86y/obOmCR2USiKF8wJOjqeKW+NouXboEiUTCBd7KzJs3D3/99ReePavp9sDj8bB79258/vnnOHr0KNq2bYvdu3fD1NQUpqam2Lx5M7Zv3474+HiYmJhg7ty5WLx4MQCgS5cu6Nu3L4KCgiASidC3b18sXrwYP/74I6KjozF8+HDs2bNHZv2tW7eGnZ0dfvvtN3Ts2BFfffWVXBnbtWuHFStWYNu2bQgLC8Po0aOxadMmLn3p0qUIDQ3Fzp07uRsVAwMDrjtNv379MGDAAISEhMDR0RGenp7cjUbbtm2xd+9efPfdd/j9998hFAoxd+5c8Pl8zJgxA/Hx8fjzzz/RokULfPvtt+j4/NfbPv30U+zcuVNhcD948GAsW7YMv/32G+Lj4+Hn58eVRRltbW0sWrQI69atw6+//gorKyts2LBB4cA3VW+m4fP5SEhMwpHjJyARSzBsyGDo6dX8qvGIoUPw276/oK+nC7s6/c2bGhvjjH8A0jLSoa2ljQ98a1oSmzdvhmfPnuH8xUvo16c3N7+xkRFGDhta052AB+6NVADg4uSEnJxcbN+1G3w+H21at+be8KJOWV2cnfAgJgYHDh1BkyY6cHF2wqWgYLR3cFBZh7W1MjGBs7MTNm/bjmZNm6J1qxfB3YOHMXDrID/49adf9jboVZhGRkYY2L8f9vyyF5pamnCvNaA24k4UPDp1lHkKZWFuDoGGAMkpqejftzeOHD+BjVt/QPNmzWCg/6JPpKq02gwNDFDNqvG/H3dh2hTZm8f2jg7IzsmpGTvAA0SmQgwdLN+4UVvzZs3g6OCAvX/sQ1NjYwiFpoi+fx9Jyclo0aIFdxx09eyMC5cuo3mzZti+88Xg9/59+8DcrJ3SNKf2jvDx7oEjx09g/cbNAADPzh4QCV+00D95+hQ5Oblwbq/6ncxcmZUcnwBgb2eLE6dOo1/f3gqX7endHafOnEV8QgJ0dXXh0akjzv4dIPfK0u07d6OiogJFxcWIiY3Dtes34O7WAT7ePVSmqUPVedTRrQNi4+KwccsPaN26lcruQsrOOU1NTZSUlGDTD9vQRKcJjI2NGnQeEUL+fWJiYmHatm2DA3spd7cOiL53Hw9jYtGye8ODe15ufqHaz46bGb98P8izf9cMklXUcq8qrTHtuBCLuXtvykxrUpwO9/xL+GD0CDy9fA4FRUVoP3IMvropQCFTfnOx/SNPpW/LkZozZw4SExMREPB6Bgg3BhcXFxgaGuLq1auvnFdGRgY2b96MgwcPokePHli7dq1a78h/1/yb3qf9NsrKGMOWbduxcN6c1/JWLPLPUVVVhU1bt2HhvDn0dhhCyHvDPyAQZWXl6NVTvUYGRS4FhUBXt4nc70MBQF7BMwVLvPBGfsTqn2KgS1s4i4wRnfZiJLK+nh7G9Z+E+9ER0M3NQrlAC/tOBaOwxQCl7xJyFhljoEvbetfn5uam8DWN7ypTU1PMnDkTBw8eREFBAU6fPq3wTTbk/ZaSmgah0JQC+3dcbl4e/jxwEO5uHSiwJ4S8V1q3aoVzFy4i/tGjV8pnQL++L7Xce9VyDwDbz8dgwe+3UP18MJWVIAcz22uiqkoCB1dLBJ4NRGimDqJ0FI9S5vN4+GGyB+b2s1eY/m/TmC33UnPnzkVAQADc3d1x+PDh+hcghBBCCHmHlJeXo6rq5d9ZLxDwlf74FbXc1zG3nz0eZRZjS8ADAIBxVSFat3bBo8Q4JD5KgoF+UxgW84AqxcsvGODwzgT2AHD37t1Gz3P79u2NnichhBBCyL+Fur9K+zq8d8E9ACwaVDOYaZv/HcSVCBB47HcUlpQiqxxoq1GO202HQKBZiioNHYBX03WAz+NhwQAHbllCCCGEEEIaIio6Gn8HnOM+Dx44AC7OTo26jjca3FdWVqKwUP5RgvRVeW9Ku+Z62PxhJ1i2bILd56Jx4no8zHlixIqG4nZFKXia+jJvqHYWGWNWb9t3qsWeEEIIIYS8WU6OjkhKSkZiYhIsLS3Q3rHxG43fWJ/78NsRuHBJ/h3rUv369G7wD+40hsSsIvwdlYGrMZl4mJGPmCeFAHiwNzWGo2lTdLczwUCXtrA0Ue+ngwkhhBBCCHld6utz/8aCewAoLilBlUS+M7tAQwD95+8BJ4QQQgghhCj2jxpQSwE8IYQQQgghrw+9aJoQQgghhJB3BAX3hBBCCCGEvCMouCeEEEIIIeQdQcE9IYQQQggh7wgK7gkhhBBCCHlHUHBPCCGEEELIO4KCe0IIIYQQQt4R/7jgPiYmFqamQixd+p+3XRRCCCGEEEL+VRo1uC8qKkKXLl1haiqEqakQ9+/fVzrvtWvXMGTIENjY2MLHpxfOnj3bmEUhhBBCCCHkvdOowf2XX36Jx48fw87OVuV8iYmJmDRpMuLi4uHi4oykpCTMmTMX8fHxjVkcQgghhBBC3iuNFtwHBATg6NFjmDdvHtzdO6qct7KyEt7e3vjll59x9OhRTJs2DRKJBOHh4XLzfvLJbAiFIly4cKGxitoo9uz5CaamQowdO67R87a3d4CpqbBR8oqJiYWLiyt69PBGcXFxo+RZn9dZN4aKsVwAACAASURBVIQQQgghRLlGC+67deuGWbNmYfHiRfXOa29vj717f0WPHj0AAPn5+QAAkUgkM9/evXtx+vRpLFy4EH379n3lMrq7d4SpqRAHDhyQS1u69D9cd6K4uDi59EGDBsPUVIi9e/e+cjnepHv3opGbm4vExEQ8fvy4UfPevXs3Nm7chIqKikbNlxBCCCGEvJxGC+4NDQ3xzTdfQ0NDo0HLnT3rj6NHj6Jz587w8vLipj99+gSrV6+Bm5sblixZ3Chl9PDwAABERkbKpd24cUPh/wGgoqICDx48AAB06dK1UcrypvTp0wdjx47FzJkzYW1t3ah579q1G5s2UXDf2C5duoyhQ4ehX7/+Cm80CSGEEEKUeatvy/nzz78we/ZsuLg445dffgaPx+PSLl8OQklJCR49eoTCwsJGWV/nzp0BAJGRd2SmZ2VlISkpCU2bNgUA3LhxUyY9OjoaEokETZs2rXc8wT9N06ZNsWnTRixf/g34/Mbb3Xl5eSgqKmq0/MgLu3fvRmRkJB48eICysvK3XRxCCCGE/Iu8seA+Pj4et27d4j5v2LARn332GQYPHowjR45wgbVU8+bNsWjRIhQVFWHr1q2NUgZPz5rgPjY2FuXlL4Km0NBQAMCMGdOhoaEh13Ivbenv0sVT5gZEKjk5GePGjYe1tQ3c3Nywbt06VFdXy80XHh6OSZMmw8HBEVZW1hg8eDD279+vVtkfP36MJUuWwtOzCywsLOHh0RnLln2B7Oxslcvdv38fpqZCtGtnJjNd2q8/LCwMu3fvRqdOHrCwsMTIkaNw7949lXmOHTsOzs4uKCkpAQA4ODjC1FTI1WNt6tZNWloaFi1aDDc3N5ibW6BbNy9s2LARZWVlKsvi5dUdpqZCXL9+XWb655//H0xNhViwYIHM9IcPH8LUVIg+fV5086pdF5s3b4a7e0cMGzacSy8rK8OmTZvQo4c3zM0t4ObmhkWLFiMtLU0m79p1XV5ejiVLlsLRsT3s7Owxe/Yc5OXlyZU/Li4OM2fOROfOnhCJ2sHUVIgrV64gIOBvZGSkw9XVReX2E0IIIYTU1qjB/YYNG/Hll1/h9u3bAID//W87vv12JQBg0qTJGDlyFDIyMnDp0mVs3rwZenp60NTUwGeffYb58+fLBLr9+/fHwoUL0KZNG+zd+xtSU1NfuXwODg4wMDCARCJBdHQ0Nz00tCaY7927N1xdXZGZmYnk5GQu/fbtCACKu+RIJGJMmjQZ169fR0VFBbKysvHDD9uwe/dumfn8/f/G6NF+uHTpEsRiMZo0aYKoqLtYuvQ/+Oqrr1WWu6ioCH5+H+DAgQMoLCyESCRCTk4Ofv/9dwwcOOiVnmwcOXIE3367EtnZ2aisrMStW7cwceKHKC0tVbqMqakpzMxe3CxYWFjAysoKTZo0kZlP3bpJSEjA4MFDcOjQIZSVlcPGxgaZmZnYvHkzJkyYCIlEorQs3bvXdOWqfeMIAFeuhAAAgoNDwBjjpoeFhQEAvLy6yeX1559/YcOGjcjMzOSWqaysxJgxY7Fx4yYkJiaiaVNj5OXl49ChQxg8eAgSEhIUluuLL77EgQMHUFJSguLiYpw6dQqffio7HuXBgwcYNGgwzp71R4sWzTFo0ECYmbUDAEyePAXPnj1Tut2EEEIIIYo0anB/+PBh7N27l+snfOrUKezbtw8AYGNjjdatW8PQ0BCVlTV9tEtKSnDs2HHuTxpES2lqamL27NkQi8VYt279K5dPIBDA3d0dAHDnzouuOTdu3ICBgQHat2+Prl27cNOkpC330rTabt4Mw+TJk/HoUTxiYh5iyJDBAGr6o0uVlpbiP//5DyQSCf7zn6WIjY3BvXvROHBgP3R0dPDrr79yNxgAcPToEfj7+3Ofz549i5SUFNjZ2SIi4jZCQoJx504khg4dik8+mQUjI6OXrpO7d6MRFHQZKSnJOHLkCLS0tJCTk4Njx44rXWbTpo04evQI99nf/yxCQoLRoUOHBtcNAPzf/y1DXl4eRo4ciaioOzh//hyuXr0CM7N2CAsLw6+/7lVaFuk4jdrBfXJyMlJSUsHn85GTkyPzewthYTXzdesmH9xfuXIF69atxZkzp7F9+3YAwO7dexAREQELCwtcuRKCyMhI3L9/D4MHD0JeXh4+//z/5PKpqqpCVZUE0dF3kZDwCF999SUA4OLFi0hMTOTm27VrN8rLy/HhhxPh7++P3bt3IyQkBA4ODsjKysKpU6eUbjchhBBCiCKNGtzfvHkDGRnpMn/x8TWB/h9//IHbt8NhYGCAgQMHys2XkZGODRu+h729Hfd/AJg+fRoyMtKxffv/GqWMnTtLB9XWBPc5OTmIj4+Hp6cnBAIB1zovDbazs7ORnp4OIyMjODg4yOXXvn17fPzxDGhpaUFPTw+LF9cM/s3KyuL6pAcEBKKgoABWVlb49NNPIRAIAAA9evTAhAnjAQAHDuyXybN2d4zS0pquKa1bt4Guri4AwMjICLt27cTHH3/8SvWxaNGnsLGxAVBz89KnT28AwKNHj14pX0C9usnIyMD169fB5/OxZs1qaGtrAwDatGmDGTNqtu348WNK1+Hl5QUej4fw8Ntcd5/g4GAAwOjRowEAQUHB3PxhYWHg8/no0kX+Rm3FiuX48MMP4ebmxrWgS58mLV26BJaWlgAAfX19rF+/HjweD6GhoUhJSZHLa9WqVWjWrBk0NDQwa9YsNGvWDIBsvaan13Tr6djxxatjNTQ0uJukjIwMpdtNCCGEEKLIWx1Q+zZ4enoCAO7cqWmNv3mzZvBst241Qb2HRycIBAKu+0ZERAS3nKIBqcbGxjKfTU1Nuf9L+1jfvRsFALC1tZFb3s7O7nl5opSWuXNnD/D5fAQHB2PcuPHYtGkT/P3/bpSBxnXHOgiFwudlz33lvNWpG2n3KG1tbWzZshUrV67i/q5duwag5l39yjRv3hx2drYoKirinhgFB4dAQ0MDS5cuAZ/PR1BQEICacQuPHz+Go6OjXNkAoHXr1jKfi4qKuO5Z0v0k1bRpU7Rs2QIAEBUlu+8EAgEMDQ25z3w+H23atAEA5Oa+qFfpOIjaT6yqqqq4/CwsLJRuNyGEEEKIIg17b+U7wM3NDRoaGkhJSUV+fj7X/UbaTUNfXx/Ozk64cycKmZmZXHCvqEuOIrVvAKT9tgsLa/pOa2pqyc2vpVUz7dkz5YG6k5MT1q9fh1Wr/osrV67gypUr3LKff/4ZPvnkE7XKpl75BTJlb0yK6kbar7ysrAy7du1SuFxFRQWqqqq4Jx51de/eHTExsQgPvw0bGxuEhobCzc0NQqEQLi4uCA8PR1lZGfcjaYq65ChS++ZJU1NTLl1LS1tmG1SRlr12tc6aNRNnzpzBvn378ODBA4hEIty9exdJSUmwsbHB8OHDleRGCCGEEKLYe9dyr6OjA2dnZwA1XXNu3gyDoaEh2rdvz80j7ZoTFhZWazCtesG9IkZGNa24YnGlXFplZc00Q0PV/ebHjx+PyMgIHDt2FN9991/4+o6CWCzGqlX/5W5A/o2kLdwtW7ZU2FVL+qcssAde9LsPDw9HdHQ0nj17Bm/vmh9I8/b2hlgsRlhYGFdPigbTKlJ7LINYLJZLl44dqd1K3xD29vb48ccdaNKkCZ48eYLAwEDw+XzMmjULp06dhI6OzkvlSwghhJD313sX3AMvuuaEhITg4cOH6NKli0yrsrSV/vr1UNy9e5cbbPuynJ1r+s/HxcXLpUm7nNT3ysOsrCxoa2vD09MTH330EbZt24bevWv6x9cdiPxv4uTkBKBmbIOiPuYPHz6sN4+uXbtCIBAgPDwcV6/WdOXp2bMngJrgHgCuXr2G8PDbEAgE3P6vj4GBAfdWoNhY2a5BeXl5yM7OAQC4urqqlV9dgYGBmD59Bv78cx/Cw28hIeERQkKC8c03X7/0DQMhhBBC3m/vZXAvHVS7f/9+VFdXc/3tpaT9648fP46SkhJ4eHiobDmuz8CBA2BsbIyEhARs2bKFG/h55coVbsDm+PHjlS5/9OgxeHp2wc6dO7mW/sLCQu7NKyYmLV+6bC/rVeqjNqFQiK5da+p/4cJPkZWVBaCmm86aNWswcOAgXLp0SWUeBgYGcHZ2QlJSEk6fPg1DQ0NuUKqHRyfo6enh4sULuHfvHpydnWBgYKB2+aT7ZcOGjUhKSgIAFBcX4/PPPwdjDF27dpF5LWhDHDlyBBKJBBUVFRCLxZBIJCpf+0kIIYQQUp/3rs89UPNLtTweD8XFxQDk+2AbGBjA0dGR+zEndfvbK6Onp4fvv/8en3zyCb7/fgP+97/t0NHRQX5+PgBg6tSpXICrCGMMVVVVWLXqv9i4cRNatWqFJ0+eoLy8HHZ2thg4cOArle9ltGjRAgYGBigqKsLgwUPA5/Nx4sRx7q0wDbFu3VqMHDkKoaGhcHfviJYtW6KwsBAVFRVo0aKFWgNLvby8cOdOFO7dq3lNpfTmQ0NDA126dMHFixcBAN26eTWobLNmzcS5c+cQERGB7t17wMSkJfLy8rlfLF63bl2Dt1dKul3jx0+QmS4QCNCuXTtMmTL5ld+GRAghhJD3y3vZct+0aVNYW1sDgNJXXNYO6FUF3uoaPHgQjhw5DB+fntDQ0EBpaenzgbLrsWrVSpXL+vmNxokTx9G/f3/o6Ojg8ePHMDU1xbx5c3HixAnu9ZFvEp/Px8aNG9C2bVskJSUhISEBEknVS+VlZWWFs2fPwM9vNJo3b478/HyYmJhg2rSpuHDhvFrBfffu3bn/S7vkSEm75gDqD6aV0tLSwqFDB7Fw4UKYm5sjLy8fxsbGGD3aF/7+Z2FlZdWg/GqbN28e1y2ptqqqKiQlJWHFim9x5syZl86fEEIIIe8fXm5+odqvRWlmTP2ACWkMRUVFGDBgIIRCIf76609oaLx4iJabm4tvvlmOEydOYMyYMdi8edNbLCkhhBBC/knyClS/pe+9bLkn5G2LiopCSkoKWrRoIRPYAzXv7pe+c5/emEMIIYSQhnijfe6LS0pQpaDrhkBDAH09vTdZFELeKnt7e+jo6ODkyZN49OgRLC0toampgYqKSiQlJeHBgwdo0qQJJk+e9LaLSgghhJB/kTfWLed2RCTOX1T+1pP+ffvA3a3DS+dPyL9NdHQ0du3ahfDw28jMzIREIoG2tjZMTU3RubMHZs6cCRsb+V81JoQQQsj7q75uOW8suD/7dwAqKyvR28dHLu1SUBC0tLQwZNCbf+sLIYQQQggh/xb1BfdvtFuOlpYW92utdacTQgghhBBCXg0NqCWEEEIIIeQdQcE9IYQQQggh7wgK7gkhhBBCCHlHUHBPCCGEEELIO+K1DagtLy9HRUUl97myslLlwNnKykoUFr4Y/autrUU/4EMIIYQQQkgDvJbgPv5RAo4ePyE33dmpvdJlYuPiERsXLzPtg9G+sLK0aPTyEUIIIYQQ8i56LcF9dXU1AGDggH4wb9cOAA/gAdpKWu579fRGty5duM8paakICDyPqirJ6ygeIYQQQggh76TX0ufeztYGHh074vLlYFRUVsLY2AjGRkZo0qSJwvl1dXXRtKkxmjY1RqW4EpcvB8OjU0fY0q9zEkIIIYQQorbXNqC2T28fWFlZ4tCRYygoLFRrmYLCQhw6cgxWVpbo08vndRWNEEIIIYSQd9JrfVvOkEED0bJFCxw8fBRlZWUq5y0tLcPBw0fRsmULDB086HUWixBCCCGEkHfSaw3uBQIBfEcOh7aWFg4dPQaxWKxwPrFYjMNHj0FbSwu+I0aAz6c3dBJCCCGEENJQrz2K1tLSwhg/X5SVleP4yVPcYFup6upqHD95CmXl5Rjj5wstLc3XXSRCCCGEEELeSW+kiVxXVxfjPhiNp5lZ8A8IlEnzDwjE08wsjPtgNHR1dd9EcQghhBBCCHknvbH+L8bGxhjj54u4uHhcDg4BAFwOCkZc/COM8fOFsbHxmyoKIYQQQggh7yRebn4hU3fmZsaGr7zC5OQUHDp6DOZmZkhJTcUHo0fB3MzslfMlhBBCCCHkXZdX8Exl+hsfuWpubobhQ4egqLgIw4cOocCeEEIIIYSQRvLGW+4JIYQQQgghL+cf13JPCCGEEEIIeT0ouCeEEEIIIeQdQcE9IYQQQggh7wgK7skruXr1Knr16qVynhUrVmDWrFlvqETvvsDAQLi4uKicZ8CAAdi7d6/aeb6NfdTQMr4r1Nl/je1t1vW//fxX5xr3T/ey+/9dPUefPXsGkUiE2NjYt12UBvm3n0sNtWLFCsyZM0dhWlFRETp16oTExMQ3XKp/h/cquB8yZAhEIhEsLCywatUqAMDAgQOxZ8+et1yyfy9zc3P4+vpyn0+dOoX169e/8XKUlpZi3rx5sLKykktbuXIlRCKRzN/bKCNpOB8fH0gkkte6jgULFkAkEmHfvn0K06dMmQKRSIRTp0691nK8bcuWLcOVK1fedjHeurrHXN1rHCEv4219N76rdHV14evri5YtW77tovwjvVfB/dmzZ+Hh4YH58+fj66+/BgA0a9YMTZs2fcsl+/cSCoWYP38+9/n8+fNvvAwJCQkYNmwY8vPzFaZnZ2dj8uTJuHDhAvc3bdq0N1xK0lBJSUlISEh4I+tq164dDh06JDc9MzMToaGhMDExeSPleFvEYjGCg4PfdjHeOkXHXN1rHCEvo7G+G3k8XqPk828nEAjwxRdfwMDA4G0X5R/pvQruFTE2NuaC+wEDBuD48eOYOHEirKys0K1bNwQEBCAkJAR9+vSBjY0NRowYgUePHinN7/jx4xgyZAjs7e3h7u6OtWvXKp13xYoVWL9+Pb744gs4ODjAxcUFGzZsQGpqKsaPHw9ra2t0794dgYGBMsvt378fPXr0gJWVFXr37i3Tovjs2TOYm5vj+vXr6Nu3L6ysrDB06FA8evQIu3btQqdOneDg4IBPPvkExcXFcmWKiIiAubm5TNqgQYPQt29f7nNpaSksLCxw584dmS4G8+fPx4kTJ7Bt2zaIRCJMnz6dW0YgEGDFihVwcnKCk5MT5s2bp3D9UmvXrkXPnj1hY2ODHj164PTp00rnvXbtGiZOnIjFixcrTM/OzoaTkxPs7Oy4vxYtWsjNd/78edjZ2aGsrExmes+ePbFjxw4AQFZWFmbMmAF7e3u4ublh/fr1qKqq4uZVtf8DAwMxduxYREZGwsfHBzY2NhCLxXLlEIvFWLlyJdzc3GBjYwM/Pz9ER0cr3f7CwkLMmTMHtra2cHNzw08//QQtLS2l8zPG8P3336NDhw6ws7PD0qVL5eZRtR3JyckQiUR48uQJN00ikUAkEiEiIoKbtnHjRri6usLe3h6ffvopfv75Z7lHygUFBZg6dSpsbGzg4eGBLVu2AACio6MxaNAgAICFhQVEIhHu378PQPU+ULeO6xowYADu378vd24fPnwYffv25epTnWOkrjNnzqB79+6wsrKCn58fcnJyZNKjoqIwYcIEuLq6on379pg5cyaePXvWoLr++++/uXV88MEHuHTpklzXH2V1LZFI4O3tjbS0NEyYMAEikQg//fRTvXUtvdbk5ORgzJgxsLS0xI0bNxTWQX3nv6rjTSKRYPny5XB3d4e1tTV69eqFEydOKFzPq9SlsmOubjeqsLAwDB8+HLa2tnB1dcWUKVNQVlb2ytdeKVXXvsDAQPj5+eHQoUPo2rUrbG1tMXr0aJnjtqHXA2XbI6XsuJGq75qo7rqU7bucnByYm5sjPDxcJq/Fixdj5syZ3H7873//iw4dOsDe3h5z5sxBXl4eN+/Dhw8xcuRIWFlZoWfPnrh165bS+gAADw8PHDt2TGaar68vtm/fDqDm2DczM0NkZCT69esHGxsbDB8+HHfv3lWYn7LvxoZe6wFAQ0MDy5cvh4ODAzp27IjvvvuOe9JU3zHe0OtXbm4uFixYAE9PT9ja2mLEiBF48OCBwnKpuh6oilkA4OnTp5g9ezYcHR3h4OCgtPFty5Yt6N69O3Jzc+W6VqlzbhQVFXHnhru7O7Zt24aFCxe+k13PkJtfyNT9exeMGjWKbdy4kfu8Y8cO9uDBA8YYY/3792fOzs7s9OnTLC0tjS1fvpzZ2dmxAQMGsLCwMJaUlMTGjh3LJk6cqDT/kJAQdu3aNZaXl8fCwsKYjY0NCwkJUTjv8uXLmZWVFdu0aRNLTU1lx44dY0KhkHXt2pWdOnWKpaWlsVWrVjFHR0dWXl7OGGPs/PnzzNbWlh0/fpylpqayQ4cOMWtra3bx4kXGGGOFhYVMKBSyfv36sfDwcJaYmMhGjx7NOnTowKZOncri4+NZZGQk69ixI/vf//4nVyaJRMLs7e3ZpUuXGGOMPX36lLVv357Z29uzjIwMxhhjwcHBzMHBgUkkEhYQEMCcnZ255SdOnMjWrVsnt52WlpZs9erVLDU1lUVFRbEuXbqw77//Xmk9Hjt2jEVHR7OCggL222+/MWtra1ZUVKR0fsYYCwsLY5aWlnLTe/fuzTp27MicnZ2Zt7c3W7FihcK8xGIxc3Z2ZqdOneKmxcTEMKFQyNLS0phEImEDBgxgn3/+OXvy5Am3HbXrUdX+DwgIYO7u7mzo0KEsMDCQRUVFKdyOlStXMm9vb3bz5k2WlJTEVq9ezRwdHdnTp0+5fGrX+cKFC1mvXr3Y3bt3WUJCAps/fz6zsLBgv/76q8L8Dxw4wOzt7dm5c+dYeno62717N7OwsGAzZ85UazuSkpKYUChkjx8/lqk7oVDIbt++zRhj7MiRI8zOzo6dPXuWpaSksB9//JFZWlrKrKN///7M0dGRHTlyhD1+/Jj5+/szMzMzdvXqVcYYY7dv32ZCoZCJxWJumfr2gbp1XNv8+fPZhg0b2KxZs9jq1atl0ry9vVlQUBBzd3dnJ0+erPcYqSsxMZGZmZmxHTt2sIyMDHbu3DnWoUMHmf2XkJDAzpw5w54+fcpSUlJYv379uHNInbpOSUlh5ubmbOvWrSw1NZX5+/szNzc3mXXUV9eMMWZpaSlzraqvrqXXmuHDh7O9e/eyqKgoheeVOue/quPtjz/+YD4+PiwhIYFlZ2ezy5cvc9fsul61LhUdc3XPN3d3d7Z7926Wl5fH4uPj2dGjR2Xq42WvvVKqrn0BAQHM0tKSTZw4kd27d48lJiay8ePHM19fX275hl4PlG0PY/UfN+pcE9Vdl6p9N3HiRPbNN99w81ZWVjJHR0fm7+/PGGPsyy+/ZMOHD2dxcXEsLS2Nffjhh9z3tFgsZt26dWOzZ89mycnJ7M6dO2zIkCFMKBSymJgYheXs1KmTTNkYq4kd6h77ffr0YTdu3GBJSUls2bJlzN7enmVlZSnMU9F3Y33X+rqWL1/OzM3N2ZYtW1h6ejoLDQ1lHh4ebMuWLYyx+o/xhl6/Kisr2R9//MGSkpJYbm4uW7hwIRs1apTCsim7HtQXs4jFYtarVy82fvx4dvv2bXb37l0u/li+fDmbPXs2Y6zme8vV1ZUlJSXJrE+6D9U5N5YsWcJ69uzJIiMjWXx8PJs7d67Kc+OfrL54/b0P7mvr378/W7x4Mfc5OzubCYVCmZNc+sXZkPXt2bNHYdry5ctZt27dZKb5+PiwpUuXcp/z8/OZUChkjx49Yowx5uvry1auXCmzzFdffcXGjBnDGHtxwB8+fJhLP3XqlNwJ//XXX7M5c+YoLNeUKVO4IOevv/5iEydOZBMmTGB//vknY4yxdevWsalTpzLG5L/4lAX3Xbp0YdXV1dy09evXs0mTJilcf11isZiJRCJ27949lfMpC+6jo6PZzZs3WWxsLPP392c9evRg06ZNU5jHsmXL2IwZM7jPmzZtYsOGDWOMMXblyhVmb28v88W/c+dO1rt3b6Vlqr3/AwICZAIJRcrLy5mFhQU7f/68zPQ+ffqwzZs3c/lI67y4uJiZmZmxCxcucPMWFRUxKysrpResoUOHslWrVslMGzFihEzgrWo71AmSRowYIXecjh49Wi64//TTT+XWs2PHDsaY4kCrvn2gTh3XNX/+fLZu3Tp24cIF1rFjRyaRSBhjNceTh4cHq6qqYh06dGAnT55kjKk+Rur67rvv2ODBg2WmrV27VuacqWv9+vXc8alOXa9du5YNGjRIJo8NGzbIBfeq6pox+eC+vrqWXmtUBaqMvdz5X/t427VrF/Px8WE5OTkq16NIQ+uyvuC+urqa2dvbs19++UVuXY1x7a2r7rVPenynpqZy84SEhDAbGxvGWMOvB6q2h7H6j5uGXBPrW1ddtffdkSNHWMeOHVlVVRVjrKaRy9HRkVVUVLCSkhJmaWkpc85HRUUxoVDIcnJy2KVLl5iFhQUrKCjg0oODgxsluD906BCXLhaLmaurq9Lrbt3vRnWu9XUtX76ceXl5yUz77bffWMeOHRlj6h3jDbl+1XXlyhXm4OCgME3Z9aC+mCUoKIhZWFgoPL+XL1/O5syZwy5fvszs7e1ZRESE3PpqB/f1nRvm5uYy9V1cXMxsbGzeyeBe420/OfinsbGx4f4v7ctVe5Cmvr4+SkpKlC5//Phx7Nu3D48fPwZQ0yWkT58+Sue3traW+WxgYCC3PgDcOhMSEjB58mSZZVxdXeUec9XdjiZNmqBNmzYy+aampiosk5eXF86cOQMAuHDhAry9vSGRSBAUFIQJEybgxo0bGDp0qNJtUsTGxkamr6ChoaHSR9OVlZXYsWMHAgMDkZ+fDx6PB8YYKioqGrROKScnJ+7/tra2aNasGfz8/FBYWAgjIyOZeX19fTFu3DgUFxdDX18f/v7+GDt2LAAgJiYGZWVlcHd3lymrhsaL06i+/a+rqyuzfF2pqakQi8VyXSpcXV0RExMjN396ejqqqqrg7OzMTdPX14epqanSdaSkpGDGjBky0+zt7WXGLDT0OK4rMTERU6dOlZlmZ2cn1yXF1tZW5rOhoSGKvdpL/wAAIABJREFUioqU5qvOPqivjpXx8fFBdXU1QkJC0KtXLxw4cAB+fn7g82V7L6o6RupKSUmR2TdATV3XFhERge3btyMuLg5isRhFRUVwc3NTu9yJiYlyx4udnZ3cfK+jrgGgR48e9ZaxvvNf1fE2ceJEhIWFoXv37vDz88PMmTMhEokUrudV67I+PB4PP/zwAxYvXoyjR4/i448/xtChQyEQCGS2Vaqh1151rn06Ojoy229kZISysjJIJJIGXw/U2R5Vx426x4g661K17wYOHIhly5bh1q1b8PT0xOnTpzFkyBBoaWkhPj4elZWVmDJlCneMVVdXA6jpMpSSkgKRSCRzra97Dr6s2ueZhoYG7O3tkZycrNayDb3WS1laWsp8dnBwQGZmJsrLy9Vab0OuX0+ePMHWrVsRFhaG0tJSVFZW1vs9XPd6UF/MEh8fD6FQiObNmyvMLzs7G3PnzsX48ePrPZfrOzckEolMfevp6UEoFKrM89+Kgvs6dHR05KYpulApcv78eXz22Wf4+eef4eXlBYFAAD8/v0ZdX2Vlpdw0xhg0NTVV5qvuNgBAt27dsHr1ajx79gxXr17FsmXLUFlZiW3btqG4uBh37tzBmjVr1M4PAJo0aaL2vGvXrsXly5exZ88eWFtbgzGGdu3aNWh9qkhvnnJycuSC+06dOqFVq1YIDAxEx44dERcXh2HDhgGoqec2bdrI9cWUBn/q7H9tbW2VZVO0f6XrrruPpdNrl0FK0by1l1E1/8scx3Uv+IwxuYFfira9IceFNF9V+0DZetQhEAgwatQoHD58GJ6envD390dAQIDcfKqOEUXlVVXXmZmZmDBhAhYsWIAdO3ZAW1sbGzduRGRkpNJy/pPqWtm6GrLu+o43PT09/PTTT4iOjsauXbvg4+OD7du3Y+DAgTL5NEZdqqNfv364efMmDh8+jDVr1uCPP/6QedPSq1x71bn2qarLl7keKNse6XbUtz51jpH61lVYWKhy3+np6aFfv344ffo03NzccO7cOfz6668y27xv3z65ge8tW7bEjRs3GlQfyigKnuuOLaisrFT4na5IQ6/1yki3X9lA27rHeEOuX9OmTYO5uTkOHz6M5s2b4/r165g0aZLK8tS9HtQXsyi6ftUWGRmJDz/8EPv27cOECRPkGkRrU+fcUOda+S547wfUNqbr16/D09MT3t7eXGtEenp6o67DwcEBUVFRMtPu3r0r17ryKhwdHWFoaIjff/8dJiYmsLa2hqOjI/T19fHrr7/CyMhIYcsgUHNRl7aavKzr16/Dz8+PO4nT0tJeKb+6YmJioKGhofSGwdfXF/7+/jh//jw6d+6MVq1a/T975x0WxfX9/zeCJUow5hM/hq+7SO/SLHQEFVBBEGKMCsYSG0ZM1VhCQBQQRCURS2wYK3ZsKFYEVAQRwaAgAhGQIlYgFlg5vz/8MR+WbbOAfV7Pw/OwM3fuPefcc889O3PnLoCXd2kqKiqgoKAAVVVV5q/xfFv0v4aGBjp16sS6j3k8Htq1ayf0klNdXR3u3LkjsQ01NTWRl6Ka7hAiS4/Gp0lNX8pqvtewuro6bty4IXRM3v2IGyfkpv4kqw9ay6hRo5CQkIDt27fD2NgYvXr1EltOko80R5ats7KyIBAI4Ofnx0wyTf39ddkaEB27r9rWjbAdN71790Z0dDSmT58u9uW/trClOJ8TR+fOnTF+/HicOHECOTk5El8klpfWxr6WxAOg5fq0xEfEtSWr7wDAy8sLR48eRWJiIlRUVGBpaQngpf936NABxcXFQjKoqqoycb6kpEToSZGsXbiUlZWF/EQgEIjti5s3bwqVyc/Plxgzmo8veWN9I/n5+UyiCgA5OTno0aMHOnbsyMrHAXbxq6amBn///TemTJnC3FVvyVwsK2fR0NBASUmJxN3unJ2dERgYCDc3N8yaNavFWyPzeDwoKioKxUpJ/fo+wCX3bUjPnj1RUFCAmpoaNDQ0YOXKlaisrGzTNqZPn44dO3bg8OHDKC8vx/79+xEbGws/P782a0NBQQFWVlbYvn07nJ2dmeNOTk7YsmULbGxsJF7L4/GQlJSEiooKkSUYbOnZsyeys7PR0NCA2tpaBAcHCz0mlofKykoEBwfj8uXLKC0txalTp/DLL7/gm2++kXh3xNvbGxcuXMCZM2fg4eHBHLexsYGuri78/PyQkZGB4uJinDt3DseOHWPkbm3/d+7cGePGjcPixYuRnp6O0tJShIeHo6ysDD4+PiLllZWV4eHhgZCQEOTk5KC4uBhBQUFSd4jx8fHBli1bcObMGZSXl2PHjh1CO1HI0uOzzz6DqqoqYmNjQUSorq5GZGSkSBtbt27FuXPnUFVVhT179iAlJUUuW/Ts2RMKCgo4ePAgHjx4gCdPnsjsA3EkJCTAysqK1Retxt2UwsLCJD6qBiT7SHNGjx6Nq1evYsOGDSgvL0dycjJ27NghpGNdXR2TjCUnJwvpwsbWjW1s2rQJVVVVuHDhQot2f+DxeDh27BgePnyIR48etcjWLUGWv507dw7Jycm4f/8+ysvLkZeXBw0NDbH1tNaW4nyuKQ0NDdiwYQMj75UrV1BXV9dmTxZbG/vkjQet1UceH5HWlqy+A/63bG7lypUYMWIEcwdWWVkZY8aMwcKFC5GQkIDS0lJcuXKFGQMDBgxA9+7dsWDBAhQXF+P69esi/d4cExMTxMXF4cmTJ6ivr8cff/yBR48eiZRbs2YN0tPTUVFRgaCgIACQeBe8+dwob6xvpLKyEpGRkSgtLcWlS5ewatUq5m46Gx8H2MUvZWVldO3alXl6cvv2baxdu1aq3cQhK2dxcHDA//3f/+GHH37AtWvXkJeXJ3Z3vEWLFuHhw4dYunSp3DI06uPp6YmwsDDk5eXhzp07CA4OlrrM+l3mg0ruhw8fjsuXL2PVqlVYvHhxm9fv6+sLc3Nz2NnZwcrKCo8ePRJZ29xanJ2dERYWhuXLl8PW1hZRUVEIDQ1lte5VHuzs7FBaWiq0znrgwIGoqKiAra2txOtmzJiB9u3bw87ODr/99luL2l6wYAEqKythYWGBIUOGYOjQoTA1NW1RXV26dEFZWRmmTJkCR0dHhISEwMfHB3PnzpV4jYaGBrS1tZGamgo3NzfmuJKSErZv3w4ej4fx48dj0KBBWLhwIfPYsa36f/78+XBzc8P06dMxYMAApKamYvv27fj000/Flg8NDYWBgQFGjx4NT09PaGpqwtXVVWL9o0ePxvTp0zFv3jw4OjoiIyNDyB5s9IiOjkZSUhJMTEzg5eWFIUOGCK0rHjVqFMaNGwd/f3/Y2toiMTFRarIsju7du2P27NkIDQ2Fra0tCgoKZPaBOIhIrrs9o0aNQseOHYX6vjmSfKQ52traWL9+PbMVXFRUlNAP2RgZGeHnn3+Gr68v+vTpg5iYGJElb7JsrampiT/++AMbNmyApaUlIiIiWvQ7DoGBgUhJSUG/fv0QFxfXIlu3BFn+9vz5cwQEBMDS0hKurq7o2LGj2NjSFrYU53PNuXDhAkaMGAEzMzMsWrQIy5YtE1kH3VLaIvbJGw9ao4+8PiKpLTZ9p6SkBDc3N1y9ehVeXl5C54KCgvDVV18hICAADg4O8PPzQ0VFBXPd1q1bUVZWBmdnZ/j5+cHf31/qjx/NnTsXnTp1Qv/+/eHk5ITq6mqxSfDPP/+MBQsWwMbGBmlpadi0aRNz97w54uZGeWN9o2w1NTVwdnbGjBkz4OXlhW+//ZY5L8vHAXbxS0FBAVFRUYiJiYGFhQX8/PwQFhYm1zIzQHbO0qFDB+zYsQNEhC+//BIjRowQ2f4beJmcr1ixAuvWrWvxk7KFCxdCTU0N7u7uGDZsGLp16ybyTtT7gsL9h49JdrGXfPqJyquUhYPjrSEoKAi3bt2S+KulHPITEBCAhw8fIjo6+k2L0ia8zT4SHx+PgIAAZGRkvGlRODjeO6qrq2FkZITTp0+36ZLY18nbHL9eJ4MHD8bEiROlPi15G3nwqFrq+Q/qzj0HBxsaGhqQkJAgcneIo3Xk5OS8NzsTvO0+8j7ZmoPjbaXp2vd3ibc9fr0uamtrUVxc/F7GSm63HA6O/8+zZ8/w9OlTrF+/Hg0NDRLXTnLI5vTp0yguLoaNjQ26du2KAwcOICMjA4sWLXrTorWKt9FHysrKEBMTA3d3d6iqqiIzMxMxMTGYPXv2mxaNg4PjLeJtjF+vk/Xr10NVVRXGxsZQUFBAeHg4unbtyryc/T7BJfccHP+fxMRE+Pn5QVtbG+vWrZP6k+0c0unWrRtWrlyJyMhI1NXVQVNTE2vWrIGRkdGbFq1VvI0+0rlzZ+Tn52PChAl4/PgxVFVVMW3aNJlb1nFwcHxYvI3x63WioqKC5cuX486dO1BSUoKJiQm2bNnCevvSdwluzT0HBwcHBwcHBwfHOwK35p6Dg4ODg4ODg4PjA4FL7jk4ODg4ODg4ODjeE7jknoODg4ODg4ODg+M9gUvuOTg4ODg4ODg4ON4TuOSeg4ODg4ODg4OD4z2BS+7/P0FBQZg2bVqLr6+pqUHfvn1RWFjYhlK9Glqr66uur6VUV1eDz+cjLy/vTYvSKoKCgjBjxgyx5960n7m6umLz5s0tvj4lJQVOTk5tJ1AraKkurbVBa4iKimL2r2/u7y0dh03rZMOr8MGEhASYmJi0WX1sYRMzXpfPBgYGwtjYGEZGRrh06VKb1Pm+xMS3iTc5/t8FXuVYfltyjXcBLrlvIzp37gxvb2907969xXWcOHECQ4cOhZaWFkxMTODt7Y3U1NQ2lJKjqqoK3t7eb1qMFtMWfvYmUVdXf6ft/6bp06cPHBwcXmmdhw4dQkREhMTybeGDjo6OEAgELb5eHLLkBoB58+YhOTlZrnpfh8+ePXsWsbGx2LlzJ44fPw4zM7NX2h7H6+HmzZvw9fWFvr4+9PX14ezsjK1bt75psdqUthrLQUFB0NDQgJqaGjw9PdtAsg8b7kes2ghFRUXMnz+/xdfn5eVhypQpmDVrFpYuXYqamhpcvXoVn376aRtK+epQUFB40yKw4uTJk29ahFbRWj970/B4PPj7+79pMd5Z7O3tX3mdJ0+eBJ/Pl1i+tT5YVFSEgoKCFl8vCVly19fX49y5cxg2bJhc9b4On83Pz4eenh569+79StvheH0IBAL4+PjAzMwM27dvh4KCAvLy8t6ZOZ0NbTmWg4KC0LlzZ6Snp2PPnj1tUueHzAd35z49PR3e3t7Q0dGBmZkZVq5cyZxTVFREUFAQjI2NYWxsjJkzZ6K2tpY5f+DAAbi5uUFfXx8WFhZYsmQJc07cI/KoqCjs3LkTpqamGD16tFS5rl27hm7duuGnn36CsbExrK2t4efnB11dXabMzp07YW9vDy0tLQwcOBCHDh2SWF9FRQUmTZoEQ0NDGBgYwMPDA9evX2et6927dzF58mTo6+vD3NwcERERePHihcT2lJSUEBgYCAMDA/Tp0wchISFC3+br6+sRHBwMc3Nz6OjoYOTIkbh27ZqQbnZ2dkJ1JicnQ0tLi/lcU1ODGTNmQFdXFxYWFli5ciW+++47kUek165dw9ChQ6GtrQ0nJyecOHECALBt2zbMmzcP6enp4PP5MDQ0FKtLVlYWxo4dC1NTUxgZGWHq1Kmorhb/gxEJCQn46quvkJmZCUdHR+jo6KC+vl6mvoB0X2xKVFQU7OzscP/+fbF+FhERgYULF8LExERsX7K1W1NiY2Ph5OQELS0tWFtb49y5c8y5R48eYeLEidDR0UG/fv0QFRUldO2SJUswYMAA6OjowN7eHocPHxayV9NHtq6urrh48SLmz58PXV1d/P7772LlkVYnGxs8fvyYsYG5uTk2bNgg9dcZ09LS4OHhAV1dXZiammL8+PF4+vQpaxtkZGTAw8MD2traGDBgAOLi4sS2s2rVKri7uwvJqa6ujoCAAOZYYmIiDAwMIBAIWvxYWlo8aFqnv78/4uLisHLlSvD5fHzzzTcidbXEBxtpHJsAoKGhAT6fj5ycHABA+/btERsbC2tra+jq6uKLL77ArVu3mGvv37+PWbNmwdLSErq6uvD09GR0kCW3QCCAg4MDSkpKMHbsWPD5fGzYsEFEruYxAxDvswcPHsSkSZOgo6ODvn37ivT/zZs3MWLECGhqasLR0RGnTp1C//79xS6PWbBgAcLDw5GZmQk+n49Zs2YBAMrLyzF16lTo6+vD0NAQ/v7+ePDgAXOdPHOMNP0A6XPLP//8Az6fj/LyciF78vl8XLlyhbGRuDgoaxw1JT09HZ6entDS0kLfvn0RGRkpNOewsXtzpI3DVxE3mlJZWYmKigrMmTMHffr0gYWFBcaMGQNXV1fWOjeluroa6urquHfvHkaNGgVNTU3myf7u3bthb28PbW1teHl5Cc01dXV1CAkJQd++faGtrQ1nZ2dUVlYCkD7PN7aXlpaGYcOGifiOtLHcyNChQ7FixQqhY3FxcTA0NERdXR0rOzanpXnavXv3oK6ujsuXLwvV9+OPP2Lq1Kky7fHOcf/hY2L7965TVFREOjo6tHDhQsrJyaGLFy9SVlYWEREFBgaSpqYmhYaGUnFxMWVlZZGVlRUtXbqUuT4pKYnOnz9PDx48oLS0NNLR0aGkpCQiInr8+DHxeDzKzc1l6hs0aBCNGTOGUlNTKT8/X6ps169fJzU1NUpMTBR7/uTJk6Srq0sHDhyg4uJi2r17N2lra9Pp06fFlp8xYwbNmDGDKisrqaSkhPbt20c1NTWsdBUIBOTq6kq//PILlZeXM+ejo6PFthUYGEjq6uoUFRVFpaWldPHiRerXrx9FRUUxZYKDg8nBwYEuXbpERUVFFBoaSoaGhlRRUUFERDt27CBbW1uhepOSkkhTU5P5/NNPP9GAAQMoMzOT8vPz6dtvvyUNDQ2KiYkR6gNHR0e6ePEilZeXU3h4OOnp6VF1dTUREUVHR5OXl5fUvigoKKAjR45QRUUF3b59m5ydnSk8PFxs2ePHj5OFhQW5u7tTQkIC40+y9JXli35+fkREFBsbS6amplRUVCSkY1M/09bWpsWLF1NhYSFlZGRQ//79hfxWlt2ac+DAAdLW1qZt27ZRXl4enThxgiorK4mIyMXFhQwNDWnv3r1UVlZG8fHx1KtXL0pJSWGu379/P127do0ePXpEf/31F2lrazO+d/z4cerduzdT1sXFhVxcXCggIICuXr1KZWVlYmWSVicbG3z33Xfk5ORE2dnZVFBQQP7+/lJtYGFhQevWraMHDx5Qfn4+7du3T0hmaTYoKSkhPT092rZtG1VVVVF8fDxpaGhQenq6SDuZmZnUq1cvRpe4uDiytLQUGgtLliyhCRMmMLpOnTqViMT7QuO55siKB02v8/HxkejvktqVZf+mZGRkEI/Ho/r6eubY8ePHSUNDg3x9fSk3N5eKi4vJx8eHvL29mTJ1dXW0detWKioqovv379N3330nNJZlyU1EpKmpycTsprpIixnifNbIyIh2795NJSUldOjQIaH+FwgEZG9vT1OmTKFbt27R5cuXyc3Njfh8PmOz5jSPSw0NDTRs2DCaOHEi5ebm0vXr18nHx4eGDx9OL168YOwua45ho5+suaWoqIh4PJ7Q2Kyvrycej0cZGRmMjcTFQWnjqCmVlZWkp6dHkZGR9M8//9D58+fJ2tqaFi9ezNruzZE1Dl9F3GhKfX09mZmZ0ZIlS1qsc1Ma+9LDw4M2b95MWVlZVFNTQ0eOHCEzMzNKSUmhu3fvUnh4OJmamjLje86cOWRtbU2nTp2i3NxciouLIyLZ83xT30lOTqaSkhIKDQ0V8h1JY7lxvKxbt44cHR2F9Jg6dSr98MMPYnUMDw+nkSNHSrRpa/M0Hx8f+u2335iydXV1ZGhoSPHx8XLnPW8aWfn6B5Xch4WFkaurq9hzgYGBZGVlRQ0NDcyxiIgIGjdunMT6vLy8aP369UQkfsLr3bs31dbWspZvy5YtpKenR19//TUlJCQwQZyIyNvbm4KDg4XK//rrrzRq1CixdU2YMIH8/PyEBh1bXZOTk0lfX1/o2rVr19LAgQPFthUYGCiSmP/111/Up08fIiJ69uwZaWho0MmTJ4XKDBo0iFasWEFEspP72tpaUldXF6qjtraWdHR0RJL7Xbt2MWXq6upITU2NMjMziYhdct+ciIgImjRpkthzx48fF5rk2OoryxdnzJhBZ8+eJX19fbpy5QpzTpyfNe/L8PBwpi/Z2K05Hh4eFBQUJPaci4sLff/990LHvLy8aPXq1WLL19fXE5/Pp7///puIxCdKPj4+Yq+VRPM62digV69edOrUKeZ8TU0NaWlpibVBQ0MD6evr06ZNm8S2L8sGERERIjqNHz+eFixYIFKXQCAgAwMDOnv2LBER+fv7U1RUFOnq6lJhYSEREY0YMYLWrVvH6NqS5F5WPGhtci/N/s2RlBDweDwqLi5mjiUnJ5O2trZEOZKTk8nAwIC13ESSk3tpMUOcz0rr/3PnzpGGhgY9ePCAOX/+/HkhmzWneVxKSUkRqePu3bukrq5OqampRMRujmGjn6y5hW1y3zwOyhpHTVm6dCkNHTpU6NjRo0dJV1eXnj59SkTyxx5Z47Ct44Y40tLSyNLSklxcXGjLli1CfcVG56Y09mXzZNPLy0vomEAgIH19fTpy5AjV1NSQhoYGJSQkiNQna54X5zvPnz8X8h1Zyf3du3epV69edP36dSIievr0Keno6DDxrjlskvvW5Gl79+6lPn36MLnVyZMnydDQkJ4/fy533vOmkZWvf1DLcvLz82FqairxvI6OjtDacRUVFZHHPV988QWsra1hbW2N7OxsPH/+XGJ9FhYW6NKlC2v5xo0bh7S0NDg4OGDRokUYNmwYKioqAAAFBQUib6CbmpoiNzdXbF0BAQHIzc2Fra0t1qxZI/KIXJquubm5ePr0KSwsLGBiYgITExOsWLGCeZQnDk1NTaHPBgYGqKysxLNnz1BcXIz6+nq55G9OaWkpBAKBUB1dunQBj8cTKdt0KVP79u3RqVMn1NTUsGoHAK5cuYJvvvkG9vb2sLKywubNm6X2c+fOnWFhYcF8ZqOvLF+sqqrCt99+izFjxsDc3FyqvM37smvXrkxfymO3RmTJ1tS+wEvfabRvXV0doqKiMHToUFhZWcHe3h5EJNV+staRs6lTlg1evHghtJ5ZWVkZPXv2FNuegoIC/vjjDyxfvhzu7u44ePCgyKNZaTbIzc1FamoqM3ZMTEyQnJwsdvwoKirCysoKqampePHiBRITEzFw4ED0798fiYmJePbsGbKyskSWrMmLrHjQWqTZny2dOnUSWjOvoqKCZ8+eMcv7ysvLMXfuXAwcOBBWVlaYNWuWVL+SB3ljhrT+LywsBJ/PR7du3Zjzenp6cslTUFAgUkf37t2hqqoqFDPZzjHS9JN3bpFE8zjIZhw1IkmGJ0+eoLi4WKwegLDdm8NmHLZl3BBHv379kJKSgpkzZ+LgwYOwtbXFxYsX5dK5Oc3jZW5uLqKjoxkdzc3N8eTJE1RWVuL27duor68XG8/ZzvNNbd6hQwe55tPu3bvDxsaGWeZ19uxZfPTRR62KZ63J04YMGYLq6mqkp6cDAA4fPgw3Nzd06NChRXnP28wH9UItEUl98fOjjz6SeO7kyZOYM2cONm7cCFtbWygqKmLkyJFS2+vYsaPcMqqoqOCbb77B119/jS+//BLh4eFYsWKF2PVpRIT27duLrUdTUxOnTp3CqVOnsGrVKmzatAm7d++GhoYGAOm6EhFUVVWxf/9+oePt2rH/LkhEAF4GeElr66TJD0Bo4m5aX1PE2ViabrKorKzE2LFjMWvWLKxevRodO3bEsmXLkJmZKfGa5jKw0VeWL2ZmZsLX1xfbtm3D2LFjoa2tLbGsrL4E2Nmt6TUtHSdLlizB2bNnsX79emhra4OIoKamJrG8LFnY1snGBs39V5rvOTs749KlS9izZw/CwsKwdetWbNu2DZ06dWLVnqurK3799Veh443XNsfGxgbx8fHIzMyEkpISjI2N4ejoiLNnz0JXVxcff/wx9PX1JbbHBlnxoLW0ZsyxrWPSpElQV1fHnj178J///AcXLlzAuHHjWt0um7blKS9u/Mg7F7CNmWzrlSavvHMLALFfqsTJImscyZIBEB6n8vQTm3HY1nFDHEpKShg+fDiGDx+O4OBg/PDDD0hNTWWtc3Oa25mIMHv2bGb9eyMqKiooKioCIH7DC7bzfGvHtre3N1asWIFffvkFx44dw7Bhw6Ck1PLUszV5WpcuXeDs7IzDhw/D3NwcJ06cQExMDIC2yXveJt5NqVuIhoYGsrOzW3TthQsXYGlpCQcHBygqKgJ4+c3+VdG+fXtYWFigqqoKwMs74VlZWUJlsrOzRe5kNKVdu3ZwcXHBgQMHoK6ujtjYWFZt6+npoaKiAgoKClBVVWX+evToIfGa/Px8JjABQE5ODnr06IGOHTtCQ0MDnTp1kiq/srKyyItWjYEJeLljhaKiIm7cuMEcEwgEKCkpYaVTI+3atZP6gkxWVhYEAgH8/PyYICpvG2z0leWLzs7OCAwMhJubG2bNmtXircZaYrfWjpORI0cyX0bktd2rqJPH46Fdu3ZCL5TX1dXhzp07Uq/r3Lkzxo8fjxMnTiAnJ4f1trR6enq4ceMGPv/8c6Hx0/QubFNsbW1x7do1JCYmYvDgwVBQUMCgQYOQmpqKlJQU2NratsluVGzjQbt27dDQ0NDq9qTJAUCuNmpqavD3339jypQp+M9//gNA1A/YyP2qdQNebp1ZWloqdDdR3t8EMDAwQElJCR4+fMgcq6qqQkVFBXR0dNpM1sa2ZMVmAELxWR592IwjAwMDkZiTnZ0t8jRHHuQdh81padyQhrW1Ne7duwciajOd9fT0cOvWLSEdVVVV0aVLF6ipqUFctv83AAAgAElEQVRJSUlsPG/JPN8cNmN56NChqKqqwrVr13D27Fl4eHiwrl9e2ORpXl5eOHr0KBITE6GiogJLS0sAbWOPt4kPKrkfPXo0cnNzERERgVu3biErK4v1nsc9e/ZEQUEBampq0NDQgJUrV8r9uCY0NFSiYx89ehSxsbHIyMjAzZs3sX//fuzatQuDBw8GAEyfPh07duzA4cOHUV5ejv379yM2NhZ+fn5i69uzZw+uXbuG6upq5Ofno7y8nPVdOhsbG+jq6sLPzw8ZGRkoLi7GuXPncOzYMYnXVFZWIjIyEqWlpbh06RJWrVrF3FXr3Lkzxo0bh8WLFyM9PR2lpaUIDw9HWVkZfHx8AABGRka4d+8eTp8+DeDlI8umu7koKyvD09MTYWFhyMvLw507dxAcHIx///2XlU6N8Hg85OXlIScnh1ny1JSePXuirq6OCejJyclS9RYHG33Z+uKiRYvw8OFDLF26VC4ZGmmJ3b7++mts27YNe/bsQVFREc6fP8/6EX3Pnj2RnZ2NhoYG1NbWIjg4mAmyLaW1dSorK8PDwwMhISHIyclBcXExgoKCUF9fL7Z8Q0MDNmzYwIz3K1euoK6uTuYTiEbGjh2LsrIyzJ07F3l5eSgoKMDBgwclfmHS19dHly5dsG/fPjg7OwN4mSD26NEDe/fuhY2NDWtdJSFPPODxeEhKSkJFRQXu3bvX6rab07NnTygoKODgwYN48OABnjx5IvMaZWVldO3alXmCdvv2baxdu1ZuuXk8Ho4dO4aHDx/i0aNHrVdGDPb29ujevTsCAgJw584d3Lx5U2hnNTZYW1vD0NAQP/30E27duoX8/Hz8+OOPMDc3R79+/dpUXllzy2effQZVVVXExsaCiFBdXY3IyEiZ9cozjnx8fFBUVITly5ejtLQUaWlpCAkJwZQpU1p8l1fecdgcNnEjISEBVlZWYm/0Xb9+HWvXrsXFixeRn5+PxMREREZGYtCgQVBQUGgznadMmYKdO3di06ZNuH37Nm7cuIGNGzeipqYGKioq8PDwQHBwMFJSUlBYWIj4+HhUV1e3aJ5vDpux3KVLF7i6umLlypXo0KEDk0y/CtjkaY6Ojsy5ESNGMDdO2sIebxMfVHKvo6ODv/76C4mJiXB1dcX48eNx8+ZNVtf6+vrC3NwcdnZ2sLKywqNHjzB58mS52n/x4oXEu8bt27fH5s2b4evrCzc3N6xevRo//fQTJkyYAODlndywsDAsX74ctra2iIqKQmhoqMT1ynfu3MHEiRNhZmaGcePGYfjw4Rg1ahQrOZWUlLB9+3bweDyMHz8egwYNwsKFC6VuXTV37lzU1NTA2dkZM2bMgJeXF7799lvm/Pz58+Hm5obp06djwIABSE1Nxfbt25k9fzU1NbF48WL8+uuvMDMzw88//4wff/xRqI2FCxdCTU0N7u7uGDZsGLp16yb3vtBDhgzBwIEDMXLkSLi5uYmcNzIyws8//wxfX1/06dMHMTExCAsLk6sNNvqy9UVlZWWsWLEC69ata/EPmslrt9GjR2P27NmIiorCoEGDMHv2bDx+/JhVWwsWLEBlZSUsLCwwZMgQDB06VOr6/ddVZ2hoKAwMDDB69Gh4enpCU1NTaEu65ly4cAEjRoyAmZkZFi1ahGXLlom8VyIJPp+PXbt2oaioCMOHD4e7uzs2b94sccJWUFCAjY0NqqqqhNaiDhw4EBUVFbC1tZVLV3HIEw9mzJiB9u3bw87ODr/99lur225O9+7dMXv2bISGhsLW1pbVPtkKCgqIiopCTEwMLCws4Ofnh7CwMCGbspE7MDAQKSkp6Nevn8TtSVuLkpISNmzYgFu3bsHe3h6TJk2SuRVyc9q1a4e//voLnTp1YpZ0dOnSBX/++Weby8tmbomOjkZSUhJMTEzg5eWFIUOGQFVVVWbdbMeRqqoqdu3ahfPnz8PR0RHTpk3DsGHDROYAeZB3HIpDVtwgIolPVTt27IgzZ85g2rRpcHV1xbx582BjY4Nly5a1qc5ubm5Yvnw5duzYAScnJ4wZMwYXLlxg7qqHhYXB3t4eM2fOhIuLC6Kjo/HixYsWzfPNYTuWvb29cezYMQwfPlziMpfg4GCsXbsWly5dgpeXl1w2aIRNnqakpAQ3NzdcvXpVqJ22sMfbhML9h49JdrGXfPqJyquUhYNDbgYPHoyJEycyd8Q52MHZjYPj9fHw4UOYmJjg3LlzrL8kcnC8Lzx+/BjGxsY4ePCg0EvXHC3nwSPxv73TyAd1557j/aK2thbFxcVSd37hEIWzGwfH6yUnJwcKCgpy7bTCwfG+cPz4cfTq1YtL7F8jH9RuORzvNuvXr4eqqiqMjY2hoKCA8PBwdO3a9ZWu4Xsf4OzGwfF6CQoKgrOzMzQ1NVFVVYWgoCAMGTKkRTuocXC8qzx+/Bh37txBVFSUxPcDOV4NXHLP8c6goqKC5cuX486dO1BSUoKJiQm2bNkicYtBjpdwduPgeL00NDTgp59+QlVVFT755BM4ODggICDgTYvFwfFaGT16NG7fvo2RI0fC19f3TYvzQcGtuefg4ODg4ODg4OB4R+DW3HNwcHBwcHBwcHB8IHDJPQcHBwcHBwcHB8d7Apfcc3BwcHBwcHBwcLwncMk9BwcHBwcHBwcHx3sCl9xzcHBwcHBwcHBwvCdwyf07RkJCAkxMTN60GBytwNXVFZs3b34jbY8ZMwZ79+5t0bWBgYEwNjYGn8/HyZMnYW1tjezs7DaW8M0TFBSEadOmvdY236RPtJSUlBQ4OTlJLSPNlu9aLGMj75vqx5qaGvTt2xeFhYWsr2lNLADeTZ8FXvajubm5xPOttUtraG3saYkfVFdXg8/nIy8vr8Xtvuu8a7GIDVxyz8HxAeHq6goDAwO5rzt79ixiY2Oxc+dOpKWlwdHREV5eXvi///u/VyClMP369QOfz8etW7dEztXV1aF3797g8/moqqp65bK8SebNm4fk5OQ3LQaDuro6vL2937QY7zRDhgzB+vXrAQBVVVUttmfnzp3h7e2N7t27s66rpbHgfeddtktzP+D4cOGSew6OD4gJEybAyMhI7uvy8/Ohp6eH3r17Q1VVFe3bt8ecOXPw2WefvQIpRVFTU8OePXtEjickJEBZWfm1yPAmqa+vx7lz5960GELweDz4+/u/aTHeaT799FN069YNAHDy5MkW16OoqIj58+fj448/Zl1XS2PB+867bJfmfiAPCgoKr0AijjfFB5XcJyQkYOTIkdi2bRv69u0LXV1dTJ8+Hffu3cPs2bNhYGAAc3NzREZGAngZIPX09PD06VOhegYMGIDVq1eL1B8UFISIiAgsXLgQJiYmMDY2xsyZM1FbW8uUEQgEWLx4MczMzKCvr48ZM2bgwYMHzHlXV1ccOXIEX3/9NXR0dDBgwACRpKZ9+/aIjY2FtbU1dHV18cUXX4jc1dy9ezfs7e2hra0NLy8vXLt2DQKBAPr6+jhz5gxTLjg4GGpqarh//z5zzMPDA2vWrBFrw/T0dHh6ekJLSwt9+/ZFZGQkXrx4gXv37kFdXR2XL18WKv/jjz9i6tSpAIC7d+9i8uTJ0NfXh7m5OSIiIvDixQsALx8Nqqur4969exg1ahQ0NTWRmpoq0r6rqysOHDgAHx8faGlpwcbGBsePH0dSUhIGDRoEHR0deHp6MvYIDg7GqFGjhOqorKyEmpoaMjMzxdZ/8OBBTJo0CTo6Oujbty+ioqKEymRkZMDDwwPa2toYMGAA4uLimHMJCQnw9vbG/v370b9/fxgaGmLKlCm4d++eUB2PHj3CxIkToaOjg379+om0IclWq1atgru7O1Pu8ePHUFdXF/r1y8TERBgYGEAgEIjVr/FRekVFBSZNmgRDQ0MYGBjAw8MD169fF7lm/vz5WLJkCTIzM8Hn8zFr1iwAAJ/PR3p6OuLj42FgYIDnz58LXWdjY4OYmBiZNmPD8OHDsW/fPsZfGomNjcXw4cOZz/KOWSLC0qVLYWZmBj09Pfz8888iZQ4cOAA3Nzfo6+vDwsICS5YsYc79888/4PP5KC8vZ44JBALw+XxcuXKFOXbs2DHY2dlBS0sLX375Jc6cOSPyGFiSTwgEAjg4OKCkpARjx44Fn8/Hhg0bAEgfUwkJCfjqq6+QmZkJR0dH6OjooL6+XkS/7du3w97eHlpaWujfvz9CQkJY6d78UTYbWzZHViyTFS+bk56eDm9vb+jo6MDMzAwrV65kzu3cuZPRc+DAgTh06BBzjm0/NuXx48eYMWMGdHV1YW5ujg0bNqBDhw7M+caYlpaWhmHDhkFbWxtOTk44ceIEU+aTTz5Bt27dsG3bNsybNw/p6eng8/kwNDQU26akvmq6tIJtXU1jARtZxSErjsmKlWz809XVFRcvXsT8+fOhq6uL33//HYDkuaiRuro6hISEoG/fvtDW1oazszMqKytF6k9JSYGBgQHS09NbbJdly5bB1NQU+vr6+P7777Fx40apy2uk+amioiKCgoJgbGwsNofIysrC2LFjYWpqCiMjI0ydOhXV1dWMvE2X2LC1MQDk5uYyc6iHh4fIkktZMVySTtLkBV4+md2/f79QXd7e3li1ahUA2fOUuFxHHAKBAIGBgbCwsGD6sakOLc2r3lruP3xMbP/edY4fP06ampo0efJkys/Pp8uXL5OZmRmZmZnRsmXLqLi4mA4dOkR8Pp8yMjKovr6eevfuTYcOHWLqyM3NJR6PRyUlJSL1BwYGkra2Ni1evJgKCwspIyOD+vfvT0uXLmXKLFiwgDw8POjmzZtUUlJCvr6+5OPjw5x3cXEhY2NjOnDgAJWUlNCWLVuoV69edPr0aUYHDQ0N8vX1pdzcXCouLiYfHx/y9vZm6jhy5AiZmZlRSkoK3b17l8LDw8nU1JRqampo3LhxFBISwpR1cHAgS0tL2rdvHxER/fvvv6Surk7Z2dki+lVWVpKenh5FRkbSP//8Q+fPnydra2tavHgxERH5+PjQb7/9xpSvq6sjQ0NDio+PJ4FAQK6urvTLL79QeXk5ZWVlkZWVFUVHRxMR0ePHj4nH45GHhwdt3ryZsrKyqKamRkQGFxcX6t27Nx0+fJhKSkooMDCQ9PT0yNXVldLS0qioqIi++uorxqbZ2dmkpqZGlZWVTB0xMTFkZWUl1kdcXFzIyMiIdu/eTSUlJXTo0CHq1asXpaSkEBFRSUkJ6enp0bZt26iqqori4+NJQ0OD0tPTmf7R1NSkCRMmUG5uLl2/fp08PT3Jzc1NqA1DQ0Pau3cvlZWVUXx8vFAb0myVmZlJvXr1YmwTFxdHlpaWZGtry9S/ZMkSmjBhgkT9YmJiiIhoxowZNGPGDKqsrKSSkhLat2+fWJsTEUVHR5OXl5fQMR6PR2lpafT8+XMyMDCgY8eOMecyMzNJXV2dqqqqZNpMFn379qWkpCQyNzens2fPMsfLyspIV1eXMjMzicfj0d27d+Ues7GxsaSvr08nTpyg0tJSWrduHWloaNDUqVOZMklJSXT+/Hl68OABpaWlkY6ODiUlJRERUVFREfF4PCorK2PK19fXE4/Ho4yMDCIiun37Nqmrq9Pvv/9OxcXFFB8fT+bm5tS7d2/mGlk+QUSkqanJtEsk3U+IXvqihYUFubu7U0JCAmVlZYnon5+fT5qamnTx4kW6f/8+XblyRcjG0nQ/fvy4kA5sbNkUNrFMVrxsSlFREeno6NDChQspJyeHLl68yOh88uRJ0tXVpQMHDlBxcTHt3r2btLW1mbjKph+b6/vdd9+Rk5MTZWdnU0FBAfn7+5OGhgYzvhpjmqOjIyUnJ1NJSQmFhoaSnp4eVVdXExHR6tWr6fr160Qkfoyx7avGtnJzc1nVRSQcC9jIKu56aT7LJlbK8s/GdlxcXCggIICuXr1KZWVlMuciIqI5c+aQtbU1nTp1inJzcykuLo5p18zMjIiIcnJymDmqpXbZu3cv6enp0dGjR+n27du0Zs0a0tTUlOj30vw0MDCQNDU1KTQ0lIqLi5kx3TSHKCgooCNHjlBFRQXdvn2bnJ2dKTw8XEjeRj9gY+PGawYPHkyXL1+mkpISWrhwIRkZGTE6yupLaTpJk5foZXxvzD8a8fLyYuKYtHlKWq7TnK1bt5KjoyMVFBRQVVUVnT17lhl7rc2r3gSy8vUPLrnn8XhUWlrKHJs3bx7Z2dkJlRs8eDBt3bqVOT958mTm3PLly2n48OFi6w8MDCQrKytqaGhgjoWHh9O4ceOI6GXirKmpyUwWRERZWVnE4/Ho3r17RPQysPzwww9C9U6aNIkJFI06FBcXM+eTk5NJW1ub+dx0YBC9TAL09fXpyJEjtHbtWkb+oqIi0tPToxUrVtDMmTOJ6OVkbmRkRC9evBDRb+nSpTR06FChY0ePHiVdXV16+vQp7d27l/r06cNce/LkSTI0NKTnz59TcnIy6evrU319PXPt2rVraeDAgUT0vwDTVG5xuLi40I8//sh8rqqqIh6PJxQcGpOnRpycnGjjxo3M5y+//JJCQ0Ml1v/9998LHfPy8qLVq1cTEVFERIRIcjF+/HhasGABEf2vf5omkn///bdQwJXVhjRbCQQCMjAwYCZ1f39/ioqKIl1dXSosLCQiohEjRtC6desk6tc4cU2YMIH8/PyE2pGEtOSeiOinn36iGTNmMOeCg4MZv5dlM1k0JveLFi0iPz8/5vjvv/9OM2fOpPz8fCa5J5JvzLq7u9OiRYuEjnl6ekqcmIle9tX69euJiF1SuGTJEpFxExkZKZLcS/MJItHkXtaYavTFpvGmOdnZ2aSurk7Xrl2TWEaS7s2TXXltKSuWsYmXTQkLCyNXV1exbXl7e1NwcLDQsV9//ZVGjRpFRPIn97W1tdSrVy86deoUU76mpoa0tLREEsNdu3YxZZ4/f05qamqUmZkpIqOshFxaX7VVcs9W1sbr2yJWSvPPxnaa1yNrLqqpqSENDQ1KSEgQqe/48eNkbm5OpaWlZGFhQZs2bRJpTx67eHp6ivjWF198IdHvpfmpuBwiIiKCiaXiiIiIoEmTJgnJ2zS5l2XjxmuazqECgYAsLCxo+/btTBvS+lKaTtLkJZKd3Eubp6TlOs35888/ydHRUWzsaG1e9SaQla8rveknB6+bjz76CD179mQ+f/zxx9DU1BQq8/HHH+Pff/8F8PLx0OjRo1FbWwtlZWXEx8fjq6++kli/jo6O0Nq1rl27Mo/UioqKUFdXh/HjxzNlGhoaALx8vP6f//wHAKCnpydUp4mJCeLj45nPnTp1Ap/PZz6rqKjg2bNnEAgEUFJSQm5uLm7cuIE///yTKfPkyRNUVlbCxsYGS5Yswb///otTp07B2toaAwYMQExMDBoaGpCamgpra2u0aye6YqugoEBkKYGpqSmePHmC4uJiDBkyhHkcbGlpicOHD8PNzQ0dOnRAbm4unj59CgsLC+bauro6KCkJu6C9vb1E2za1cSONawu1tLSYY8rKykz/AYCXlxcOHTqESZMm4f79+0hLS0NgYKDE+nV1dYU+q6iooKamBsDLR5epqalCdvj3338xcOBA5nPnzp3B4/GYzwYGBlBSUsI///zD9K2sNiTZSlFREVZWVkhNTYW9vT0SExMxZcoUXL58GYmJiVBVVUVWVhZCQ0Ml6tdIQEAAJk+eDFtbW0yYMAHjxo1r8fp1Ly8vTJo0Cc+ePUPHjh1x9OhR/PLLL4w+smzGhlGjRmHYsGGorq7Gxx9/jN27dyMsLEyknDxj9vbt25g8ebLQMX19fTx8+JD5fODAAWzbtg1lZWUAXr6sOGjQINZyFxYWioyb5mMckO4T4mAzpjp37ix0vjm9e/eGv78/RowYAUdHR0ybNg39+vVjzsujOxtbNkdaLGMbLxvJz8+Hqamp2HYKCgrw9ddfCx0zNTUVWpojD6WlpXjx4gV69+7NHFNWVhaaWxpp2q8dOnRAp06dpParJGT1VVsgr6xtESul+WcjzecFWXNRfX096uvrJfqDoqIipk2bhv/+97+YOHGizPal2aWwsFCkDj09PZGlmI1I81NANIdQUVERWpZz5coVrFq1Cjdv3kR9fT1qamqk7v7D1sZN8yBFRUXo6uri9u3bAGT3pTSd5JW3OdLmKWm5TnN8fHyQlpYGOzs7jBw5ElOnThWKPa3Jq95GPrjkvlOnTiLHmieYTenbty969OiBhIQE9OnTBzdv3hRa49ucjz76SOI5IgIAbNu2Df/973+FzjV9u735uuK6ujohuaW10djO7NmzMXToUKHjKioq+Oijj6CsrIwrV67gzJkzGDp0KExNTUFEyM7ORmpqqkT96urqJOrUvn17dOnSBc7Ozjh8+DDMzc1x4sQJZs01EUFVVVVkbV3zLxEdO3aUqhsgfx96eXkhMjISd+7cQVJSEtTV1aW+MCWrD11dXfHrr79KlKkxAWnkxYsXICLWfSjLVjY2NoiPj0dmZiaUlJRgbGwMR0dHnD17Frq6uvj444+hr68vsf5GNDU1cerUKZw6dQqrVq3Cpk2bsHv3bmhoaMi8tjnW1tZQUVHB6dOn8fnnn+Phw4dwdXVl9JFlMzbo6upCV1cXBw8ehI6ODl68eAE7OzsUFBQIlZNnzBKRiA+2b9+e+f/kyZOYM2cONm7cCFtbWygqKmLkyJFS5Wz+7gERibysJs7PZY1rcbLLGlNsxtOPP/6IMWPGYPPmzfD19cXXX3+NBQsWyK27LFuKoy3iZdPykl4KlBS7pMnXvB/FycZGX3n7VRqS+qqtkFfW1sZKNv4prpysuajxvCR/qKiowJAhQ7B3717s3btX5piWpSeb8S2tPNu2KisrMXbsWMyaNQurV69Gx44dsWzZMrHvj7GRRRpN5ZTVl5J0aom8APDs2TPmf2nzlLRcpzldunTBhg0bcO3aNfz5559wdHTEqlWrMGTIEACty6veRj6oF2pbire3N+Lj43Hy5En0798fPXr0aFE96urq6NChA4qLi6Gqqir01zQ5vXnzptB1N27cQK9evVi3o6enh1u3bom00aVLF7Rr1w5WVlZIS0tDeno6Bg8ejHbt2mHAgAE4deoUrl69Cjs7O7H1GhgYiLxkk52dLfSN18vLC0ePHkViYiJUVFRgaWnJyFRRUQEFBQUhmVpqS3ng8Xjo168fjh07hpMnT8LDw6PFdenp6eHGjRv4/PPPhfRo3PECeBmYiouLmc+5ubl48eIF6z6UZStbW1tcu3YNiYmJGDx4MBQUFDBo0CCkpqYiJSUFtra2rHc+aNeuHVxcXHDgwAGoq6sjNjZWDmsI1+Ph4YEjR47g6NGjcHV1RefOnRl9ZNmMLaNGjcLu3buxa9cufPnllxL1ZDtm1dTURF4ibvpl4cKFC7C0tISDgwMUFRUBvLxr20jjHaSmL/A232NaXV0dN27cEDomzz7UjbRr107oi2NbjilVVVXMmzcPGzduxJ9//olnz57J1L05smwpL2zjZSMaGhoSf3fBwMAAWVlZQseys7OZO7Js+rEpPB4P7dq1E9K3rq4Od+7cYa9gM9q1aydyY0cc4vqqpXW9Stpy3DdH1lykpqYGJSUlif7w2WefYdGiRVi4cCECAgJQUlLSYlnkHd/S/FQWWVlZEAgE8PPzY5L21sjelKZ5h0AgQF5eHtTU1ADI7ktJOrGRV1lZWWjcCQQCkTKS5ilpuY4kevfujejoaEyfPl3sJguSaElbbxIuuWeBt7c3Lly4gDNnzrQqMVRWVsaYMWOwcOFCJCQkoLS0FFeuXBH5IZCEhATExcWhoqICu3fvxunTpzFu3DjW7UyZMgU7d+7Epk2bcPv2bdy4cQMbN25kHiPa2tpi79690NbWhqqqKgBg4MCB2LVrFz755BNoa2uLrdfHxwdFRUVYvnw5SktLkZaWhpCQEEyZMoWZbB0dHdHQ0ICVK1dixIgRTPJlY2MDXV1d+Pn5ISMjA8XFxTh37hyOHTsmrxlbhLe3N86cOYMLFy60qg/Hjh2LsrIyzJ07F3l5eSgoKMDBgweFApuSkhICAgKQn5+PwsJCBAYGwt7eHurq6qzakGUrfX19dOnSBfv27YOzszOAlxNMjx49sHfvXtjY2LBqZ8+ePbh27Rqqq6uRn5+P8vLyFt21b8TLywvJyck4deqU0B7bsmyWkJAAKysrqYljIyNGjEBOTg4OHToksgtSU9iOWR8fH2zZsgVnzpxBeXk5duzYIbTjU8+ePVFQUICamhrGr5s+hv3ss8+gqqqK2NhYEBGqq6uZ3bYaGT16NK5evYpNmzahqqoKFy5caNGP//B4PBw7dgwPHz7Eo0eP2mRMFRQU4NChQ7hz5w4ePXqEK1eu4PPPP0enTp1k6t4cWbaUF7bxspHRo0cjNzcXERERuHXrFrKyspjfBZg+fTp27NiBw4cPo7y8HPv370dsbCz8/PwAsOvH5rJ5eHggJCQEOTk5KC4uRlBQkMSdSNjA4/GQl5eHnJwcVFRUiJyX1lfy1vU6YBMrW4qsuUhFRQUeHh4IDg5GSkoKCgsLER8fL7RLC/DyZoGdnR2+++67Fn8Z8vHxwdatW3Hu3DlUVVVhz549SElJkVhemp/KomfPnqirq2O+VCYnJ7fZHLp27Vqkp6ejtLQUISEhqK+vZ554yupLSTqxkdfExARxcXF48uQJ6uvr8ccff+DRo0fMeWnzlKxcpynnzp1DcnIy7t+/j/LycuTl5ck138nT1tsAl9yzQENDA9ra2khNTYWbm1ur6goKCsJXX32FgIAAODg4wM/PTyT4zpo1CwcOHICdnR0iIyMREhIi19pKNzc3LF++HDt27ICTkxPGjBmDCxcuMI+Q7ezsUFpaKrR21tHREXfv3pWaGKqqqmLXrl04f/48s+Zz2LBh+PHHH5kySkpKcHNzw9WrV+Hl5SV0fPv27eDxeBg/fjwGDRqEhQsXin28+ipwd3FvVqEAACAASURBVHfHpUuX0KtXL4lfXtjA5/Oxa9cuFBUVYfjw4XB3d8fmzZuF7iT26NED7u7u8PHxgbOzM5SVlbF8+XLWbciylYKCAmxsbFBVVSX0lGXgwIGoqKiAra0tq3bu3LmDiRMnwszMDOPGjcPw4cOlJsyyMDY2xn//+1/U1NQIySXLZkQkdttOcXzyySdwdnZG//79hd5raA7bMTt69GhMnz4d8+bNg6OjIzIyMjB37lzmvK+vL8zNzWFnZwcrKys8evRIZF15dHQ0kpKSYGJiAi8vLwwZMoT50gy8fKz8xx9/YMOGDbC0tERERAQmTZrESt+mBAYGIiUlBf369UNcXFybjKl27dph48aNGDRoEKysrJCUlMRss8lG96bIsmVLYBMvG9HR0cFff/2FxMREuLq6Yvz48czdSGdnZ4SFhWH58uWwtbVFVFQUQkNDhdZyy+rH5oSGhsLAwACjR4+Gp6cnNDU1maVoLWHIkCEYOHAgRo4cKdZnpfWVvHW9DtjEypbCZi4KCwuDvb09Zs6cCRcXF0RHR4tN4MPDw1FUVITo6OgWyTJq1CiMGzcO/v7+sLW1RWJiosz38iT5qSyMjIzw888/w9fXF3369EFMTIzY947kpWvXroiMjMTcuXPh5OSEjIwM7Nixg3mnTVZfStKJjbxz585Fp06d0L9/fzg5OaG6ulrohoy0eUpWrtOU58+fIyAgAJaWlnB1dUXHjh3x22+/sbaRPG29DSjcf/iY2Bb+9JO3c23R6yAoKAi3bt3Ctm3bXmk7rq6uGDt2LMaPH/9K2/kQcXV1hYeHB7799ttX1kZCQgLmzJkjsgSA4/XzusZsS4iPj0dAQAAyMjLetCgcHBxtTEBAAB4+fNjiLwwcHLJ48Kha6vm38yvHW0ZDQwMSEhKE7kS/ShpfDOJoO27fvo28vDx4enq+8ra4/nvzvO4xKy85OTlSnzxwcHC8u3Djm+NN88HtliMPz549w9OnT7F+/Xo0NDRI3SWH4+2ktrYWtbW1+PXXXzF06FAu4L7nvI1jtqysDDExMXB3d4eqqioyMzMRExOD2bNnv2nRODg4Wsnp06dRXFwMGxsbdO3aFQcOHEBGRgYWLVr0pkXj+IDhknspJCYmws/PD9ra2li3bp3QT4tzvBssW7YMW7duhbW1NRYvXvymxeF4xbyNY7Zz587Iz8/HhAkT8PjxY6iqqmLatGlyvSTPwcHxdtKtWzesXLkSkZGRqKurg6amJtasWSN1u2UOjlcNt+aeg4ODg4ODg4OD4x2BW3PPwcHBwcHBwcHB8YHAJfccHBwcHBwcHBwc7wlccs/BwcHBwcHBwcHxnsAl9xwcHBwcHBwcHBzvCVxyz8HBwcHBwcHBwfGe8MEn9wkJCTAxMWE+jxkzBnv37pVYvrq6Gnw+H3l5ea9DvLcCV1dXbN68WeL5lJQUODk5vT6BWCJL7lfZ7tatW1mVleVvHG1HS8duYGAgjI2NYWRkhEuXLr0i6V49zWPd6yAoKAjTpk17rW1yvLvIEzvfZz7EPIOjbfngk/vmuLq6wsDAoM3qO3HihFB9hw4dQkRERJvV31qqqqrg7e3dqjrU1dVbXUdz3jY7vSqa+9u8efOQnJzM+vqbN2/C19cX+vr60NfXh7OzMzc5tiFnz55FbGwsdu7ciePHj8PMzOxNi/Te8b6MdTZ6ODo6QiAQvCaJxNMWMZ+Dg+PthvsRq2ZMmDChTevr1q0bunXrxnw+efIk+Hx+m7bRGk6ePNnqOng8Hvz9/dtAmv/RVnZSUFBoA2leHU39rb6+HufOncOwYcNYXSsQCODj4wMzMzNs374dCgoKyMvLw6effvqKpP3wyM/Ph56eHnr37v2mRXlvedtiYkuRpUdRUREKCgpeo0TiaYuYz8HB8Xbzwd25P3LkCOzs7KClpYWRI0fi3r17QuebL+W4ceMGRowYAS0tLQwYMADp6elC5YOCghAREYGFCxfCxMQExsbGmDlzJmprawEIJ/f+/v6Ii4vDypUrwefz8c033wjVJRAIoK+vjzNnzjDHgoODoaamhvv37zPHPDw8sGbNGgDAgQMH4ObmBn19fVhYWGDJkiVMuYSEBIwcORK7d++GtbU1dHV18cUXX+DWrVsAgG3btmHevHlIT08Hn8+HoaGhRLs9evQIEydOhI6ODvr164eoqCihdpo+7m+0yfz582FgYAATExNERkaiuLgYY8aMgba2Nuzs7JCQkCC2LUl2qq+vR3BwMMzNzaGjo4ORI0fi2rVrEmUGgH///Rc+Pj7Q0dHBgAEDhJbAVFdXQ11dHffu3cOoUaOgqamJ1NRUAMDu3bthb28PbW1teHl5CbWTlZWFsWPHwtTUFEZGRpg6dSqqq8X/oERjAj558mQ0NDSInG/0N4FAAAcHB5SUlGDs2LHg8/nYsGGDVN0qKytRUVGBOXPmoE+fPrCwsMCYMWPg6uoKAPjnn3/A5/NRXl4uJA+fz8eVK1cAvOy7r776CpmZmXB0dISOjg7q6+shEAiwePFimJmZQV9fHzNmzMCDBw8kypKRkQEPDw9oa2tjwIABiIuLY87JGiOA7L7duXMn7OzshNpMTk6GlpaW0LFly5bB1NQU+vr6+P7777Fx40aRZSHXrl3D0KFDoa2tDScnJ5w4cUKsTgsWLEB4eDgyMzPB5/Mxa9YsAEB5eTmmTp0KfX19GBoawt/fX8g2QUFBiIqKws6dO2FqaorRo0eL1N3oexcuXMDgwYOhpaUFd3d33Lp1C3/++Sf69u0LAwMDTJ8+HbW1tXj48CE0NDQY/2zkl19+kfhLt7Ji3f379zFr1ixYWlpCV1cXnp6euH79OnO+X79+2L9/v9A13t7eWLVqFfP55s2bGDFiBDQ1NeHo6IhTp06hf//+QssJFBUVERQUBGNjY5G+lzTWZfmfq6srLl68iPnz50NXVxe///67kJyrVq2Cu7s78/nx48dQV1dHQEAAcywxMREGBgbMnXRpY16WD8uK7Y0+BwAaGhrg8/nIyckBINufmsPG5pLGI9uYv337dtjb20NLSwv9+/dHSEgIgP/5bVpaGoYNGyZ2DMnyKwCIjY2Fk5MTtLS0YG1tjXPnzonI0Dx2VlRUYNKkSTA0NISBgQE8PDxE6m0q46saW7Lm1UbY+NOiRYtgaGiIPn36YPHixSJPdWTFKkn97Ovry/QZ8L8vnvHx8cyxsLAwfP311yI2b8schG2fCQQCBAYGwsLCgtG16RwibX6RdZ7N/PNecv/hY2L7965TWFhIvXr1otWrV9OdO3foxIkTZGZmRr1792bKuLi4UExMDBER1dfXk42NDfn5+dE///xDV69eJTc3N+LxeJSbm0tERIGBgaStrU2LFy+mwsJCysjIoP79+9PSpUuJiOjhw4cUEBDA1O/j40Ph4eESZRw3bhyFhIQwnx0cHMjS0pL27dtHRET//vsvqaurU3Z2NhERJSUl0fnz5+nBgweUlpZGOjo6lJSUREREx48fJ01NTfLx8aG///6bCgsLacyYMeTt7c3UHx0dTV5eXlLt5uLiQoaGhrR3714qKyuj+Ph46tWrF6WkpDDtNLVhYGAgaWlp0fLly6m4uJj2799PPB6PrK2t6dChQ1RSUkKLFi0iQ0NDevbsmdg2xdkpODiYHBwc6NKlS1RUVEShoaFkaGhIFRUVEuU2MjKiI0eOUFlZGe3+f+ydeVxO6f//X8UQwsx3Pmamj/um+26PVkt7StSQihgk+8eW32RmzBhjTB+NISI0YxmGMCNbMdEgYUSFrKkscat0lxZZUta29+8P3863c6/nbsFwno/HPMY513Wu6329l+t63+dc5xQTQ/r6+nT27FkiInr06BEJBALy9fWlrVu3UkZGBlVWVtKBAwfI2tqaUlNT6e7duxQeHk5WVlZUWVlJREQ5OTl04MABKikpofz8fBo4cCBLVk9PT/rjjz+IiOirr74iPz8/evbsmVIZ6/2NiEgsFjP2U0d1dTVZW1vT0qVLFZbn5eWRQCCgoqIi1jUCgYAuXrxIRC9tZ2trS0OGDKHExETKyMggIqL58+eTr68v3bx5kwoKCmjs2LEUGBiosJ+CggIyMTGh6OhoKisro0OHDpFIJKLz588TkfoYIVJv2x07dpCTkxOr3+TkZBKLxczxnj17yMTEhA4ePEj5+fn066+/klgspmnTphHR/9nbzc2Nzpw5Q8XFxRQeHk4mJiZUUVGhcGyy8VFXV0eDBw+mSZMmUXZ2Nl27do0CAwPJx8eHamtrmfF6eHhQQEAApaWlkUQikWu3XpaBAwfShQsXKDc3l4YPH07W1tY0adIkkkgklJ6eTr169aI1a9YQEdGkSZNo3rx5TBu1tbVkbW1NMTExcu1zmeuqqqpo27ZtlJeXR/fv36cvvviCNdbevXsz8049w4YNY+SpqakhFxcXmjp1Kt26dYsuXLhA3t7eJBQKWfOjWCymsLAwkkqllJGRQfb29izbK4p1df7n6elJnp6eFBISQpcvX2b5OBFReno6de/enYnZffv2kZ2dHcuHli5dShMnTiQiUhvzXHxY3dx+8eJFEggEVF1dzZzj4k8N4aJzdfGobs6XSCQkFovpzJkzdP/+fbp06RIlJSURETuGUlJSqKCggMLCwlgxpM6v4uLiyNDQkKKjo+nGjRt05MgRKi0tZeyqbO6cOXMmzZw5k0pLS6mgoID27t3L2KchLR1bXNZVrv4UHh5Ot2/fpuTkZLK2tqZFixbJ6VnZXKXKzuvWraMhQ4Yw8sydO5fs7Ozom2++Yc75+fnRhg0b5MbXnDkIV5tt27aN3NzcKCcnh8rKyigpKYmuXbumdpxcyrnE7j8Rdfn6O5XcL168mAYPHsw6t3TpUqXJ/fHjx0kkElF5eTlTfvLkSbnk3t7enurq6pg64eHhNG7cOIUyqFsA1q9fTz4+PkT0MjkzMTGhVatW0eeff05ELwOpR48eCid+opeL78aNG4no5SQkEAhIKpUy5cnJyWRkZMQcc03uv/zyS7l+1q1bx/Qjm9w7Ojqy6ru5ubEmlocPH5JAIKBbt24p7FNWT8+fPyeRSERHjx5l1fPw8KBVq1Yplbthn0REM2bMYHRZP4HWT/ANx9bwXE1NDZmamtKBAwcU9rNs2TKaPHkyq99t27ZReHg4ubq60oMHDxReV1+3sck9EdG5c+fIzs6OWRQfP37MlHFN7hseE72cvMViMetcRkYGCQQCunfvnsLxyyb+EyZMoPnz5xOR+hjhYlsuyb2fnx8tXLiQVWf48OFyyf3u3buZ8qqqKurWrRulp6fLjYtIPj5SU1NJJBKxbHr37l3S19entLQ0ZrwWFhYsW8hSL0tsbCxzLj4+Xs5eISEhNHPmTKbcysqKampqiIjozJkzJBaLFf4w4TLXyZKSkkJmZmbMsbrk/uTJk3K6OHXqlNr5cdmyZaz5UTbWufifp6en0h+bRC9j1szMjElKg4ODKTIykoyNjSk3N5eIiIYOHUq//fab3Ljqr28Y81zm+cYk91z8qSFcdK4uHtXN+ZmZmaSvr09ZWVlyZYpi6MWLFypjSNavfH19KTQ0VGFdVXPnxIkTKSgoiKU/RbR0bHFZV7n4k4ODA8ufNm7cSJaWlqwxqJqrVNk5IyOD9PX1mTmoT58+9Ntvv1Hv3r2JiOjp06dKbdycOQhXm23YsIHc3Nwatb40df35p6IuX3+n9tzn5+fL7Z01NTVVWV8oFKJz584q6xsZGbH2dnfu3LnRj3wcHR2xdOlSPHnyBMeOHYODgwP69euHLVu2oK6uDmlpaXBwcIC29ssdVXFxcYiOjkZRURGAly9LeXh4MO3p6Oiw9oF27twZz549Q01NDVq35m5+Y2Nj1nGnTp1QWVmptL6hoSHruGPHjqwtFLq6ugBebpvhglQqRXV1tdzXPqysrJCdna30OrFYzDo2MzPDsWPHWOdcXFxYx9nZ2bh+/To2bNjAnHv69ClKS0sBAJcuXcLatWtx8+ZNVFdXo7KyEjY2Nqw2kpKScOTIEWzevJn1zkVz06dPH6SmpiIhIQG///47VqxYgV9//RUODg6c22jfvj1sbW2Z47y8PFRVVWHChAmMX9dvKbp79y4+/PBD1vXZ2dlIS0tj2ebJkyfo378/c6wqRhprW1lyc3MxadIk1jkTExO57SgNffm9996Djo6OSl9uSE5ODoRCIcumXbp0gZ6eHrKzs2FnZwcAsLW1RYcOHdS2Z2RkxPy7Y8eOaNeuHfT09Jhzurq6kEqlAABPT098++23OHXqFFxdXXHo0CG4ubmhY8eOcu1ymeuKi4vx888/49y5c3j69Cmqqqrw4sULDlp4SW5urpwuTExMFI6xoe07deqkcn7k6n+ycduQVq1awd7eHmlpaXBxccGJEycwdepUXLhwASdOnICenh4yMjIQFhYGQH3MKxpHU+b5erj6Uz1cdM4lHlVhYWGB4OBgDB06FG5ubpg+fTr69OnDqtMwhtq0acOKIXV+JZFI5OK0IcrmzpCQEEyZMgVOTk6YOHEixo0bx6wjimip2ALUr6tc/MnY2JjlT5aWlnjw4AFri6equUqVnXv27IkOHTrgwoUL+Ne//oUnT55g/PjxWLlyJbKzs3Hv3j107NhR4bas5sxBuNosMDAQ586dg7OzM0aMGIFp06Yx+lXnz01df95W3qnknogYh6znvffea3L9du3aNY+AAHr06AFdXV1cunQJx48fx6BBg2BlZQUiQmZmJtLS0uDj4wPg5T66b7/9FlFRUXByckKrVq0wYsSIFpFN03Z0dHTkzmnyY0KWqqoqheeJSKUNFdWXfcm2bdu2cnXmzJnD7JGtp1OnTigtLcWYMWMwa9YsrFu3Dm3btsWKFSuQnp7Oqnvt2jX4+flhyZIlcHFxUaiP5qJ169bw8fGBj48PFi5ciK+++kpu/2g9ipI3ReMHXu7P/eijj1hlXbp0kbueiODl5YUffviBdb7hmFX5T2NtKzsWLrZVJ4s6uMqqqF9FyPqFqhhp27YtBg8ejPj4eLi6uuLw4cNyOm8oj7q5a/LkydDX10dsbCw+/PBDnD59Wun+/XqeP3/O6qMl9M3V/9Tp2NHREYcOHUJ6ejpat26Nnj17ws3NDUlJSTA2NkbHjh2ZHzyqYr6x4+CCpr7Pdf5SF4/qmD17NgICArB161aMHTsW48ePx/z585lyVbpQ51eKxtAQZXOnWCzGsWPHcOzYMaxduxabN29GTEwMRCKRwnZaKrYA9b7AxZ9qa2tZZfW+0LZtW2ZuU9WPKjtra2vDzs4OZ8+eRbt27dCvXz+0bdsWTk5OSEpKwpMnT1gJekOaMwfharMOHTpg06ZNyMrKwoYNG+Dm5oa1a9fi008/VevPTV1/3lbeqRdqu3XrJvcyh6qvF3Tr1g0FBQWsX3hN/dqBtra2whcrG5bb29vj3LlzOH/+PAYMGABtbW3069cPx44dw+XLl5kXC0+fPg07Ozu4urqiVatWAIDCwkKN5ZGdZN4EZPUkEomgo6ODjIwMVr3MzEy5pwoNuXnzJuv46tWr6Natm8q+TUxMcOvWLejp6bH+69ChAzIyMlBTU4OgoCBmUS0oKJBrY+bMmYiIiAARsV5sUoc6/1CHg4MD7t27ByJi7pA8e/aMKc/NzVXbhr6+Ptq0aQOpVCqnA0ULpImJCa5fv45PPvmEVZfrEwsuttXV1WWNA3h5h1dW7uvXr7POcRmvJpiZmaGgoAAPHz5kzpWVlaGkpIR1p7ClGD58OI4cOYKMjAyUl5djwIABCuupm+sqKytx5coVTJ06lbkTLuvHsjqvqalh1dHX10dhYSFrfmyMvmV9XlP/U4aTkxOysrJw4sQJDBgwAFpaWvDw8EBaWhpSU1Ph5OTEJJmqYr6x41BUDoBVR1N/4qJzdfHIdc7X09PDvHnzEBUVhQ0bNrB+2CmDi1+JRCJkZmYqbUPV3KmtrQ1PT0/ExcVBX18fu3btUisTV7jGFhe4+JNEImF+yAJgbMb1xoA6Ozs5OeHy5ctITU3FwIEDAQD9+/dHSkoKzp49K/eBgnqaOwfRxGYWFhZYs2YNZsyYgXXr1nEaZ1PXn7eVdyq5Hz16NC5fvoxNmzahuLgYKSkp2LFjh9L6/fr1Q5cuXTB//nxIpVJcu3YNERERTZJBIBAgOTkZJSUlctsF6nFycsKePXtgaGjIPEbs378/du/ejffff5/Z8tK1a1fk5OSgsrISdXV1WL16NeuxH1d5bty4gatXr6KkpKRJY2tOZPXUvn17jBs3DosWLcL58+dRWFiI8PBwFBUVITAwUGk7R44cQXx8PIqLixEbG4ujR4+qvTs5depU7Ny5E5s3b0Z+fj6uX7+OqKgoVFZWomvXrqiqqmISp5SUFCQkJChsR0dHBz///DOio6ORlJTEedwJCQl4+PAhysvLUVRUBHt7e4V9XLt2DevXr8eZM2cgkUhw4sQJREREwMPDA1paWvjXv/4FPT097Nq1C0SEiooKTv6rq6uLgIAA/Pjjj0hMTERhYSEuXbqk9A+CjRkzBkVFRfjuu+9w48YN5OTkYP/+/SoX8IZwsW2PHj1w7949/P333wBeJqqy8gQGBmLbtm04efIkysrKEBsbi9TUVE4ycMXBwQHm5ub4+uuvcevWLUgkEsyePRs2NjZyWxdaAgcHB+jo6GDt2rUYMGAA2rdvr7CeurlOV1cXnTt3Zp445efnY/369aw2LC0tsW/fPjx9+hTV1dX45ZdfUF5ezpS7uLigS5cuCAkJwZ07d3Dz5k3WlzK4IhvrmvqfMkxNTdGhQwfs3buXSW709fXx8ccfY8+ePXB0dGTqqor5xo5Dlq5du0JLSwv79+/HgwcP8PTpU439iYvO1cWjujk/JycH8fHxuHPnDsrLy3Hp0iV88sknnO78c/Gr8ePHIzo6GrGxscjLy8OpU6fktt8pmjtjY2ORlZWFiooKSCQSFBcXK71r3xi4xhYXuPhTaWkpli9fjsLCQpw7dw7r1q2T+3qNKtTZuf7H7dWrV5k/Mtm/f3+kp6fjypUrLP+XpblyEK42O3nyJFJSUnD//n0UFxfjxo0bTD1142zq+vO28k4l94aGhti4cSN27twJFxcXREZGqvyjI61bt8a2bdtQVFSEgQMHIigoCMHBwQq3JnBl5syZeO+99+Ds7Iz//ve/Cus4OzujsLCQtXfezc0Nd+/eZQXk2LFjYWNjA2dnZ9jb26O8vBxTpkzRSJ5PP/0U/fv3x4gRI+Dt7d24QbUAivT0/fffw9vbGzNmzEC/fv2QlpaG7du3q/yu+/r167F79264uLhgzZo1WL58Ofr27auyb29vb6xcuRI7duyAu7s7AgICcPr0aWhra6NHjx745ptvMHbsWPTq1QtbtmzBkiVLlLZlaWmJL7/8ErNnz2Z9SkwZCxYsQGpqKvr06YN9+/aBiFBTU8O6w1NP27Ztcfz4cUyfPh1eXl6YN28eHB0dsWLFCqbOmjVrkJycDEtLSwwbNgyffvopa9+pMkJDQzFq1CiEhITA1dUVQUFBSn/8CYVC7N69G3l5efDx8cGQIUOwdetWje6yqrOtWCzGokWL8MMPP8Da2hrffPMNZs+ezWpj5MiRGDduHIKDg+Hk5IQTJ05g1KhRnGXggra2Nn7//Xfo6OgwW6E6dOjA2lvbkmhpaWHo0KFISEiAn5+f0nrq5jotLS1ERkZiy5YtsLW1RVBQEJYsWcKy2XfffQcdHR307dsX7u7uqKiogK+vL1PeunVrbNq0Cbdu3YKLiwsmT56s8LOf6lAU65r4nzK0tLTg6OiIsrIy1l3K/v37o6SkBE5OTsw5VTHflHE0pEuXLpgzZw7CwsLg5OSEnJwcjf2Ji87VxaO6OV9bWxtRUVHw8PCAvb09kpOT1X6Wtx4ufjV69GjMmTMHkZGR8PDwwJw5c/Do0SO5tmTnzjt37mDSpEmwtrbGuHHj4OPjg5EjR3KSi6vsXGKLC1z8aciQIXj+/Dk8PT0xceJEeHt7IygoiHMf6uxsYmKC1q1bw8TEBO+//z4A4JNPPoFQKESHDh3kPiPckObKQbja7MWLFwgJCYGdnR28vLzQtm1bJobUjbM51p+3Ea37Dx/JZw1K+J/3O6mvxMPDw/OGEBISgocPH2LNmjWvW5RmIzExEV9++SUyMjLQpk2b1y0Oi4cPH8LS0hInT56Ue5mdp2Xgdd58vKrYCg0NRUlJidxTDR4erjwoV/y3dep5p+7c8/DwvFtcvXoVAoHgdYvRrCQkJMDb2/uNS+yBl/rW0tJC165dX7co7wy8zpuPVxlbip7G8vA0F+/2cwseHp63hr///htSqRSOjo7o3Lkz4uLicPHiRfz000+vW7QmU1tbi8rKSpw9exYHDx5EfHz86xYJwMs7kAMHDoRYLEZZWRlCQ0Px6aefcn4pkEdzeJ03L29qbPHwNAU+uefh4Xkr+OCDD7B69WpERESgqqoKYrEYv/76K3r06PG6RWsy5eXl6Nu3Lz744AOEhYXBzMzsdYsE4OWXX77++muUlZXh/fffh6urK0JCQl63WG81vM6blzc1tnh4mgK/556Hh4eHh4eHh4fnHwK/556Hh4eHh4eHh4fnHYFP7nl4eHh4eHh4eHjeEvjknoeHh4eHh4eHh+ctgU/ueXh4eHh4eHh4eN4S+OSeh4eHh4eHh4eH5y2BT+7/l8jISMyZM0fj6wICArBnz54WkKjlCA0NxfTp01+3GBpTUVEBoVCIW7duKSxvrA2bg8TERFhaWjapjX+aLzXHmDXln+q79cjK31Sbv2obcOnPy8sLW7duVVjGxX7/tDh4W1mwYAF69uyJHj164OzZs6yy1xH7sqjyMy6kpqbC3d29+QT6B/JPn0/fJJrqj80Nn9z/L7169YKrqytzPG/ePKSkpLDqKDrn5eXFfxf35JJCXQAAIABJREFUDUHWhv80mupLs2bNglAoRHR0tMLyCRMmQCgUvvV/pCU+Ph7Lli173WJwQtbmbm5uqKmpeSV9v6l6au45taysDP7+/s3WXmN5VfpWtE5pSlJSEnbt2oWdO3fi8OHDsLa2bibp3hz09fWb5Be3b9+GUChEnz59UFtbK1eekZEBoVAINze3Jkj5btIcPvyuwyf3/4uLiwt8fHwAANXV1Th58iSrXNE5AJg4ceJb8Udy3gYa2vCfSHP4Urdu3RATEyN3vrS0FGfOnMFHH33UpPb/CRw9evR1i8CZhjbPy8tDTk7OK+v7TdVTc8+pb8o4X4UcytYpTZFIJDAxMYGFhQWEQuFb+ddvBQIBgoODm9SGjo4OamtrFSaiu3fvhkAgaFL77yLN5cPvOu9Ucl9SUoLJkyfD3NwcZmZm8PX1xbVr1wD83+OpmpoauLq6oqCgAGPGjIFQKMSGDRvkzm3atAkA+1FMYmIiRowYgZiYGDg4OMDY2BjDhw+X20ayYsUKWFlZwdTUFF9++SWioqJUPho7f/48/Pz8YGBggN69eyMiIoJ1p8DLywv79+/H5MmTYWRkhN69eyMyMlKlLlq1aoXQ0FD07NkTPXv2xOeff47Hjx8z5Xfv3sWUKVNgamoKGxsbLFu2jOmzoqIC+vr6uHfvHkaOHAmxWIy0tDS5PkJDQxEZGYmdO3fCysoKo0ePBgAUFxdj2rRpMDU1hbm5OYKDg/HgwQPWtbt27YK7uzsMDAzg4OCgMNhLSkpgZ2eHjRs3Mv011CMXvSQkJMDZ2RkGBgb47LPPcPz4cZWPm0tKShAUFMT40OTJk5my9957D7t27VJq+/v372PWrFmws7ODsbEx/Pz8GP+rl7fel7jqWBYvLy9cvXpVzudiY2MxYMAAtGnTBgDw8OFDiEQiuTbnzp2LcePGKWz7wIEDjK5GjBiBe/fuscozMjIwZswYWFlZoUePHpg2bRoqKv7vD2306dMHf/75J+saf39/rF27ljnmYg9VvhscHIx9+/Zh9erVEAqF+M9//gMAqKmpwaJFi2BtbQ1TU1PMnDmT8TlN/HnZsmX46aefYG5ujl69emHRokWsO+1cfLsh9TbPysrCoEGDAAAikQhCoRBXr14FAFy8eBG+vr4wNDREv379sG/fPoVtDRo0CKtWrWKd27dvH8zNzVFVVcU6r0xP1dXVWLhwIWxsbGBkZIQRI0YgKytLqfyPHj3CzJkzYWxsDBsbG2zatInxMWWom3sUzanR0dHo3bs3jI2NMWPGDNy7dw9z5syBmZkZbGxsEBERobCv6OhozJs3D+fPn4dQKIS5uTlTtnPnTri4uMDAwAD9+/dX+0RLnW+q8jFl+pZFnf+oiiFFa1f9OiWLqjVl/vz5CA8PR3p6OoRCIWbNmqWwDXXznSp9AC/tfObMGXz//fcwNjbGzz//rLAfVWtBeXk5Jk2aBCMjI/Tp00dufo+Li4O3tzdMTU1ha2uLpUuXMmWyW4uUrVeqqK6uhr+/v9wNlRcvXmD//v0YMmQIc27hwoUYOXIkq15paSm6deuG9PR0uba5rF+q1unExET4+/vjzz//RN++fWFubo6pU6fKzduNzQUuXboEfX19Vt1BgwZhwIABzPHTp08hEolw+fJlufFt376dib++ffti8eLFKn1YXWwos5+Xlxfi4uIQGBgIAwMDODo64vDhw0hOToaHhweMjIzg5+cnt2bGxMTAxcUFhoaGGDZsGGsebMy898q5//ARcf3vn87MmTNp5syZVFpaSgUFBbR3716qrKwkIqIFCxbQtGnTmLpisZiSk5NZ1ys65+npSVu2bCEiosOHD5NYLKbAwEC6cuUK5ebmUkBAAPn7+zP19+zZQyYmJnTw4EHKz8+nX3/9lcRiMavvhpSWlpKJiQlFRETQ7du36dSpU+Tg4ECLFi1iydCjRw+KiYmhgoICio+Pp+7du1NqaqrCNhcsWEBisZjCwsJIKpVSRkYG2dvb0/Lly4mIqKamhry8vGju3LlUXFzMlK9Zs4aIiB49ekQCgYB8fX1p69atlJGRwehRth8PDw8KCAigtLQ0kkgkVFdXR4MHD6ZJkyZRdnY2Xbt2jQIDA8nHx4dqa2uJiCguLo4MDQ0pOjqabty4QUeOHKHS0lKmX4lEQhUVFTRgwAAKDQ1l9ddQj+r0kp+fT/r6+vTzzz+TVCqlQ4cOkY2NDVlYWCjUW3V1Nbm7u1NAQABdvHiRMjMz6fjx44ztRSIRjR07lrKzs0kqlVJgYCDL9lVVVbRt2zbKy8uj+/fv0xdffEHDhg1jyVvvS1x13JDg4GCKiIig6dOnU1hYGKvM1dWVTpw4Qba2trR//34iIpo0aRLNmzePqVNbW0vW1tYUExMj13Zubi51796d1q1bR3fu3KEjR46QtbU1S1c5OTl04MABKikpofz8fBo4cCCFh4cz5b1796a9e/ey2h02bBjjV1zsoc53iYgCAwNZ/RIRzZ8/n3x9fenmzZtUUFBAY8eOpcDAQI10vWDBAjI0NKTw8HC6ffs2JScnk7W1NROLXHxbkY/W2/zixYskEAiourqaKS8oKCATExOKjo6msrIyOnToEIlEIjp//jwRvfS7ev389ttv5ObmxpJ52rRp9NVXX8mNRZmeFi5cSK6urnT27FnKy8ujsLAwMjc3p5KSErn+iIi++OILcnd3p8zMTMrJyaHg4GASiUTMmBTpUJ39FM2pU6ZMIYlEQhcuXCBra2uytramFStWkFQqpfj4eBIKhXTx4kWFfa5Zs4YVZ0RER48eJWNjY4qLiyOpVEoxMTFkaGhIf//9t8I2uPimKh9Tpu+GcPEfdTFEpHidagiXNUWRzhrCZb5Tpw9PT0/y9PSkkJAQunz5MhUVFcn1o2wtqL/e3Nyc9uzZQ0VFRXTo0CG5dS85OZlOnTpFDx48oHPnzpGRkRGjG1lfVrReqSIvL48EAgFlZ2eTgYEBPXr0fzlSXFwc+fr6UnR0NPXr14+IiDIzM6lbt26M/EREW7ZsIXt7e4Xtq1u/1K3T9bEzceJExp/8/PzI29ubNebG5gI1NTVkamrKrIElJSXUo0cPMjU1pTt37hAR0cmTJ8nMzIxqampYY5NIJCQWi+nMmTN0//59unTpEiUlJTHlsj7MdW5VZD9PT0+ysLCgv/76iwoKCmjBggVkYmJCXl5edO7cOcrLy6NRo0axfPPAgQNkbW1NqampdPfuXQoPDycrKytmXdB03msJ1OXr71RyP3HiRAoKCmItnvU0V3IvEAhIKpUy5cnJyWRkZMQc+/n50cKFC1ltDB8+XGlyv3z5cho0aBDr3MGDB8nY2JiePXvGyPDll1+y6gwbNozWrVunsM0FCxaQvb091dXVMeeWLVtG48aNIyKilJQUMjU1Zelp/fr11L9/fyL6v2So4YKirB8LCwt6/Pgxcy41NZVEIhE9ePCAOXf37l3S19entLQ0IiLy9fVlJe311PebnZ1NI0eOpBkzZjCBXd+fbOKkSi9Lly6V021ERITS5P7EiRMkEono3r17cmWKbJ+SkkKGhoYK26ovNzMzY8krm9yr03FDgoODKTw8nI4dO0a9evViJtRz585Rnz59mOS9PrmPj48nKysrpt6ZM2dILBZTRUWFXNuLFy+mwYMHs84tXbpUqa6IXvrU5MmTmWN1iQkXe6jzXSL5JOrJkyckFotZyV9GRgYJBAK6d++eRv7s4ODA6nvjxo1kaWlJRNx8W9PkftmyZaxFh4howoQJNH/+fCJiJyh3796l7t2707Vr14iI6NmzZ2RkZMRaNBsiq6fnz5+TSCSio0ePsup5eHjQqlWr5Pp7/Pgxde/enY4dO8bUraysJAMDA5XJvTr7KZpTCwsLmfJ58+aRs7Mzq90BAwbQtm3bFPapKFH19/eXm4d/+OEHGjlypMI21PmmOh8jUp/cc/Gf5kjuuawpXJJ7VfMdF314enrK+bYsytaC+us1Wffqyzdu3MiMQXZukV2vVFGf3FdXV9PgwYPpjz/+YMpGjx5N27dvpz/++INJ7omI3N3dKSoqijn+7LPP5G7EcB2funW63kYFBQVM+ZUrV5g1tH7MTckFJkyYwMi/Y8cOCgwMpDFjxtD27duJiCg8PJwmTZokN7bMzEzS19enrKwshWOX9WGuc6si+3l6etLs2bOZ47KyMhIIBKw4qv+xXo9sTNX/kDlw4ECj5r2WQF2+3vp1Pzl4lYSEhGDKlClwcnLCxIkTMW7cOOjq6jZrHzo6OhAKhcxx586d8ezZM9TU1KB169bIzc3FpEmTWNeYmJjIPSqrJycnR25bgpWVFZ4+fQqpVApjY2MAYP5fT6dOnVBZWalUTiMjI2hpabHq1z9ey87OxrNnz2Bra8uUV1VVoXVrtru4uLgobb8eW1tbdOjQgTUeoVCIDz74gDnXpUsX6OnpITs7G3Z2dpBIJHI6asjy5ctx/vx5XLhwAdraqneWqdJLbm6unG5NTEyUtiWRSCAQCPDhhx8qLJe1fadOnfD8+XPG9sXFxfj5559x7tw5PH36FFVVVXjx4oVK+bnoWBY3NzfU1dUhOTkZ7u7u2LVrF0aMGCGnK09PT3z77bc4deoUXF1dcejQIbi5uaFjx45ybebn58PCwoJ1ztTUlHV86dIlrF27Fjdv3kR1dTUqKythY2PDWW6u9lDlu4rIy8tDVVUVJkyYwFxXV1cH4OUj565duwLgpmtjY2NW35aWlnjw4AEqKio4+bamZGdnIy0tjaWXJ0+eoH///nJ1u3TpAkdHR8THx8PMzAxJSUlo164dnJ2dOfUllUpRXV2tcL7Jzs6Wq19YWIja2lqWX+jq6jL6VIam9mvXrh2rzY4dO0IsFrPqdOzYEU+ePFHZb0NycnIwfvx41jkrKyulW3PU+aY6H1M2Z8jK1Nz+o6wfLmuKOlTNd1z1oS7m1K0F6ta9uLg4REdHo6ioCMDLl6s9PDyUtie7XnHls88+Q0xMDMaNG4fCwkKkp6dj48aNiIuLY9UbNmwY4uPjMXnyZNy/fx/nzp3DggULGjU+Lut0+/btWfv+zczM0Lp1a9y+fZvx36bkAk5OTjhw4AAA4NixY3B1dUVNTQ1OnDiBMWPGIC0tjbU1qR4LCwsEBwdj6NChcHNzw/Tp09GnTx+leuAaG8rsZ2RkxPy7fn0zMDBgzunq6rLmj+zsbFy/fh0bNmxgzj19+hSlpaWNnvdeNe9Uci8Wi3Hs2DEcO3YMa9euxebNmxETEwORSNRsfbRr105lORGxAgmAypeVZPfK1rcBvNzzyLVfWVTVJyLo6enJ7e2UTQ65vGQlW0fReOr7rB+PIh015Pnz5zA1NcXixYuxYsUKlf2rG6cmtlAnlzobTJ48Gfr6+oiNjcWHH36I06dPK93fzkUeZbRq1QrDhg1DbGws7OzscOjQIRw+fFhh24MHD0Z8fDxcXV1x+PBh/PDDDwrbJCI5+zf0v9LSUowZMwazZs3CunXr0LZtW6xYsULhXtKGPH/+nNUHF3to6uv18RIdHS33QnGXLl3w9OlTpX3JIvtVjHp/btu2LSff1hQigpeXl5xddHR0FNb39/fHqlWrMHfuXCQkJGDw4MFyP8qVoan89XpV5ReK0NR+isbKdUzKUDavKpNdnW+q87HGyqROLoAdQ43tR9Gaog51cyugXh/qYq4pc+7Ro0fx7bffIioqCk5OTmjVqhVGjBihsr/Gvjg8dOhQ/PTTT7h16xb++usvfPrppwpvHA4bNgwRERG4c+cOkpOToa+vr/Ll8aau0/U/qOqpra0FEbFiqil9ODo6IiwsDBUVFUhNTcW8efNQVVWF1atX4/Hjx7h8+TKWLFmisO3Zs2cjICAAW7duxdixYzF+/HjMnz9fYV2usaHMfprOIUSEOXPmMO9B1dOpUycUFBQA0Hzee9W8Uy/UAi8N4unpibi4OOjr62PXrl1K68kGhqJzmqKvr4/r16+zzuXm5iqtb2ZmhszMTNa5zMxMubsmzYmJiQlKSkqgpaUFPT095r+PP/64yW2bmZmhoKAADx8+ZM6VlZWhpKSE+XUtEonkxtyQ0NBQ/PLLL9i/fz8OHTrUaFk0tYVIJJKTnSuVlZW4cuUKpk6dyty1qp8kWoKRI0ciMTER27dvR8+ePdG9e3eF9YYPH44jR44gIyMD5eXlrJehGtKtWzfWy78AWF92ycjIQE1NDYKCgpgJVnZ8urq6ePbsGXNcU1PDqqOpPZQhG6f6+vpo06YNpFIpy5/19PQ0ThIlEgmTuADA9evX8cknn6Bt27acfFud3AB7QTYxMWH6aCh3wztYDRk0aBDKysqQlZWFpKQk+Pr6quyvYV8ikQg6OjrIyMhg1cvMzFR4N1cgEEBbW5vlF1VVVbhz547asb5KtLW15X6UmZmZcR4noN43ufiYuvWDi/+oiyGu/bT0mtJcMaduLVDF6dOnYWdnB1dXV7Rq1QrAy6dNLcH777+PAQMGYPfu3YiJicGoUaMU1hMIBOjTpw8SEhJw9OhRlfGpDi7r9PPnzyGVSpnj7Oxs1NbWKl0PNO3D3NwcnTp1wh9//IGPPvoIhoaGMDc3h66uLrZs2YLOnTurfBqup6eHefPmISoqChs2bGB+qMr6cFPnVk0xMTHBrVu35Hy3Q4cO/5x573UL8CqJjY1FVlYWKioqIJFIUFxcrPSuvUAgQEJCAh4+fIjy8nKl5zQlMDAQ27Ztw8mTJ1FWVobY2FikpqaqrJ+Xl4eVK1eisLAQ586dw+LFizF16tQm371ShqOjI4yNjREUFISLFy9CKpXi5MmTSEhIaHLbDg4OMDc3x9dff41bt25BIpFg9uzZsLGxYR7LjR8/HtHR0YiNjUVeXh5OnTolty3A0NAQ8+bNw9y5c1FSUtIoWUaPHo3Lly9j8+bNKCsrw+nTp1X+EQpXV1f8+9//xldffYWsrCzcuHEDf/31F6e+dHV10blzZ+ZOdn5+PtavX6+RvEVFRbC3t+dkBxMTE5iYmGDJkiVKFxrgpT10dHSwdu1aDBgwAO3bt1dYr15XmzZtQnFxMVJSUrBjxw6mvGvXrqiqqmImvJSUFDk5LS0tsW/fPjx9+hTV1dX45ZdfWHGkqT2UIRAIkJycjJKSEty7dw+6uroICAjAjz/+iMTERBQWFuLSpUuNaru0tBTLly9nYnHdunXM9g4uvq2Krl27QktLC/v378eDBw/w9OlTjBkzBkVFRfjuu+9w48YN5OTkYP/+/UoTng4dOsDLywurV69GmzZtVG7lkNVT+/btMW7cOCxatAjnz59HYWEhwsPDUVRUhMDAQLnrdXV14evri8WLF+Pq1auQSqUIDQ1FdXU1R22+GgQCAW7cuIGrV68yc8WMGTOwY8cO/PXXXyguLsaff/6JXbt2ISgoSGEb6nyTi4/J6lsWLv6jLobq+1G1Tr2KNaW5Yo7LWqCMrl27IicnB5WVlairq8Pq1atRWlqqUf9hYWGcE/DPPvsMUVFR0NbWhr29vdJ6/v7+OH78OE6fPt2k5J7LOt26dWuEhIRAIpEgNzcXCxYsgIuLC/T19ZulDy0tLdjb22P79u0YOHAgc527uzv++OMPODo6Kmw3JycH8fHxuHPnDsrLy3Hp0iV88sknzB12WR9u6tyqKVOnTsXOnTuxefNm5Ofn4/r164iKikJlZeU/Zt57p5L7O3fuYNKkSbC2tsa4cePg4+Mj92mqehYsWIDU1FT06dOH+fSconOaMnLkSIwbNw7BwcFwcnLCiRMnVCZfenp62L17N06dOsXsTRs8eDBmz57dqP650Lp1a2zfvh0CgQATJkyAh4cHfvzxR6WPxjRBW1sbv//+O3R0dODj4wMfHx906NCBtbdt9OjRmDNnDiIjI+Hh4YE5c+bg0aNHcm1NnjwZFhYWmD17NutuKlfEYjF++eUXbNq0CXZ2dli2bBnr05aytGnTBjt27AAR4bPPPsPQoUORmJjIqS8tLS1ERkZiy5YtsLW1RVBQEJYsWaLRYkpEqKmp4TzWkSNHom3btvD29lYp19ChQ5GQkAA/Pz+l9QwNDbFx40bm84GRkZGsP8jTo0cPfPPNNxg7dix69eqFLVu2yD2O/e6776Cjo4O+ffvC3d0dFRUVrMVNU3soY+bMmXjvvffg7OyM//73vwBePu0ZNWoUQkJC4OrqiqCgoEb9KBwyZAieP38OT09PTJw4Ed7e3kxCyMW3VdGlSxfMmTMHYWFhcHJyYvaZ7t69G3l5efDx8cGQIUOwdetWlX7j7++PhIQE+Pj4qHwnRZGevv/+e3h7e2PGjBno168f0tLSsH37dvzP//yPwjbCwsJgZmaG0aNHw8/PD2KxGF5eXpzG+6r49NNP0b9/f4wYMYKJhYEDB2LJkiVYuXIlnJycEBkZibCwMKV7wLn4pjofU6TvhnDxH3UxBKhfp17VmtIcMcd1LVDE2LFjYWNjA2dnZ9jb26O8vBxTpkzRqP/a2lqFf6BKEW5ubnj//fcxatQolVuJhgwZgrNnz6J79+4wNDTUSJ6GcFmnP/74YwwZMgSBgYEYOHAgdHV1sXLlymbtw9nZGYWFhax3Gfr374+SkhI4OTkpbFdbWxtRUVHw8PCAvb09kpOTWZ9tlfXhps6tmuLt7Y2VK1dix44dcHd3R0BAAE6fPs3Mp/+EeU/r/sNHnLOi/3m/U0vK8s4SEhKChw8fYs2aNa9blHeeQ4cOISQkBBcvXnzdorwyEhMT8eWXXyIjI+ON+1bvm2SP0NBQlJSUaPzE5VXz6NEj9OzZE/v372e9CMfTvLxJvsnzz8LLywu+vr74f//v/7VYH4mJifj222/ltp/xvB08KK9QWf5O3bl/U7l69Sr/l+zeEN5FWyQkJMDb2/uNS+yBN88ejXlC9Ko5fPgwunfvzif2Lcyb5ps8/wzy8/Nx48YNlU9Km4t/wnzF0zK8U1/LeRP4+++/IZVK4ejoiM6dOyMuLg4XL17ETz/99LpFe+coKirCli1bMGTIEOjp6SE9PR1btmzBnDlzXrdoLU5tbS0qKytx9uxZHDx4UO1f53wVvMv2aA4ePXqEO3fuIDIyUunecZ7GwfsmT1N5/PgxHj9+jB9++AGDBg3ifxjytCh8cv+K+eCDD7B69WpERESgqqoKYrEYv/76q8rPYfG0DO3bt4dEIsHEiRPx6NEj6OnpYfr06Wo/T/k2UF5ejr59++KDDz5g9g++bt5lezQHo0ePRn5+PkaMGIGxY8e+bnHeKnjf5GkqK1aswLZt2+Dg4IBFixa9bnF43nL4Pfc8PDw8PDw8PDw8/xD4Pfc8PDw8PDw8PDw87wh8cs/Dw8PDw8PDw8PzlsAn9zw8PDw8PDw8PDxvCXxyz8PDw8PDw8PDw/OWwCf3PDw8PDw8PDw8PG8JfHKvgAULFqBnz57o0aMHzp49i8ePH2Pq1KkwNTWFra0t7t2716L9BwQEYM+ePS3aR2Pw8vLC1q1blZYnJibC0tLy1Qn0ilA37sYSGRnZ4t/Jfh02SU1Nhbu7u8o6oaGhmD59Ouc2X8U4KioqIBQKcePGjRbtRxWa6kWWyspK9O7dG7m5uc0oVeNo7FiaqoPmQl3cvwn+8rbBZe5oSFP9/U2KF015U/MEnjcDPrmXISkpCbt27cLOnTtx+PBhWFtbY+vWrZBIJDhy5Aj27t2Lf/3rXy0qg5eXV4t/d9zNzQ01NTUt2sfbzu3bt9GrVy8IhUKYmZnh4MGDGl3fq1cvuLq6tpB0rw99fX34+/s3qY2W8M/4+HgsW7asWdt802jfvj38/f3RpUuX1y3KGwU/33GDS4y0pC5l5w518jTV32WvLysr03ju6tOnD4RCIW7duiVXVlVVBQsLCwiFQpSVlTVKRmVwzRMaM6a3gXnz5iElJeV1i/Ha4JN7GSQSCUxMTJiAbNu2LSQSCRwcHNCtWzeIRKIWl2HixIkt+ket8vLykJOT02Ltvyvo6+vj7NmzAIDNmzfD29tbo+tdXFzg4+PTEqK9VgQCAYKDgxt9fUv559GjR5u9zTeNVq1a4fvvv0fHjh1ftyhvDPx8xx11MdLSupSdO9TJ01R/l72+sXNEt27dEBsbK3c+MTERurq6jWpTHVzzhHdh3pOluroaJ0+efN1ivFbeueT+/Pnz8PPzg4GBAXr37o2IiAjU1tYCAObPn4/w8HCkp6dDKBRi1qxZGD16NPbt24fo6GgIhUKsXbtWYbu7du2Cu7s7DAwM4ODgwDiWl5cXzpw5g++//x7GxsZYunQpRCIR0tLSWNfPnTuX+WuHDR8HJyYmYsSIEYiJiYGDgwOMjY0xfPhwubsEK1asgJWVFUxNTfHll18iKipK4aPtrKwsDBo0CAAgEokgFApx9epVtbpRxIEDB+Ds7AwDAwOMGDFC5XaliooK6Ovr4/Tp0xgwYAAMDAwwZMgQ3Lp1Cxs2bEDv3r1hZmaGGTNm4PHjx8x1d+/exZQpU2BqagobGxssW7ZMpUxLly5Fv379YGRkBBcXF/z1119MWWhoKJYtW4Yff/wRlpaW6NmzJz7//HNWf48ePcLMmTNhbGwMGxsbbNq0CW3atFHanzpKSkowefJkmJubw8zMDL6+vrh27RojT72NGqsfLy8vHDhwAOPHj4eRkRH69euncJEBgIULF2LkyJGsc6WlpejWrRvS09Pl6m/fvh0uLi4wMDBA3759sXjxYqYsLi4O3t7ezFa1pUuXMmWyW2iICMuXL4e1tTVMTEzwzTffKNWXKv987733sGvXLqVxkJGRgTFjxsDKygo9evTAtGnTUFHx8g99BAcHY9++fVi9ejWEQiH+85//qJXB0NAQ7u7uOHLkCKs8JiYGLi4uMDQ0xLBhw5CVlcWUhYaGIjIyEjt37oSVlRVGjx6tsI/z58/D398fRkZGsLa2xurVq5myVq1aITSyOKmcAAAgAElEQVQ0FD179lToo6rGKbtVJDExEaNGjUJ6ejrc3NxgZGSE6upqOXlU2bPeN8+dO4fBgwcr1IsmNgZUxwUXHdTU1GDRokWwtraGqakpZs6ciQcPHsj105zz3fXr1zF06FAYGBigX79+OH/+vNK6gwYNwqpVq1jn9u3bB3Nzc1RVVaG6uhoLFy6EjY0NjIyMMGLECJYf7dy5E87OzqzrU1JSYGBgoLA/LjZSN2Z1MaJKl8XFxZg2bRpMTU1hbm6O4OBghfYAXtpuwYIFsLW1ZeTct28fAPbcwSVmFfk7l/VS0fXR0dGYN28ezp8/D6FQCHNzc4XXKMLHxwd79+6V859du3axbuAcPXoUJiYmePbsGatev379sG7dOrl2z507B19fXxgbG8PKygoTJkxgrm2YJyiLJ1Vjao55rKSkBEFBQUy/kydPBgDcv38fs2bNgp2dHYyNjeHn58eK7/q1+Pvvv4eZmRksLS0REREBqVSKgIAAGBoawtnZGYmJiaz+VMlcT01NDVxdXVFQUIAxY8ZAKBRi06ZNAKA27t4q7j98RFz/+6dTWlpKJiYmFBERQbdv36ZTp06Rg4MDLVq0iKmzZs0aGjZsGOu6oKAgmj9/vtJ24+LiyNDQkKKjo+nGjRt05MgRKi0tJSIiT09P8vT0pJCQELp8+TIVFRXRpEmTaN68ecz1tbW1ZG1tTTExMcw1W7ZsISKiw4cPk1gspsDAQLpy5Qrl5uZSQEAA+fv7M9fv2bOHTExM6ODBg5Sfn0+//voricVimjZtmkJ5L168SAKBgKqrqzXSTUO5cnNzqXv37rRu3Tq6c+cOHTlyhKytrcnCwkJhn48ePSKBQEADBw6kCxcuUG5uLg0fPpysra1p0qRJJJFIKD09nXr16kVr1qwhIqKamhry8vKiuXPnUnFxMWVkZJC9vT1Trog///yTsrKyqLy8nH7//XcyNDSkyspKIiJasGABGRoa0qJFiyg3N5cuXrxIffv2peXLlzPXf/HFF+Tu7k6ZmZmUk5NDwcHBJBKJmHHLUl1dTQKBgE6fPq2wfObMmTRz5kwqLS2lgoIC2rt3L0ueehs1Rj/1NunZsyfFxcVRQUEB/fHHH9S9e3f6+++/ieil/9TbJDMzk7p168b4JhHRli1byN7eXk5uiURCYrGYzpw5Q/fv36dLly5RUlISU56cnEynTp2iBw8e0Llz58jIyIiSk5Pl+iQi2rVrF5mamtKRI0eosLCQfvvtNxKJRBr55+HDh0kkEtHYsWMpOzubpFIpBQYGsuIgJyeHDhw4QCUlJZSfn08DBw6k8PBwpjwwMJB1LEu9Ddzc3OjMmTNUXFxM4eHhZGJiQhUVFUREdODAAbK2tqbU1FS6e/cuhYeHk5WVFcumHh4eFBAQQGlpaSSRSOT6ycvLIyMjI/rxxx/p6tWrdObMGcrIyGCuF4vFFBYWRlKplPH5hj6qapz1Y8jOzmb0ZmtrS0OGDKHExESmH1lU2bOhXlJSUqigoIDCwsJYetHUxuriQp0O5s+fT76+vnTz5k0qKCigsWPHUmBgoMK+mmO+q66uJkdHRwoKCqLbt2/T5cuXydvbm6Xrhvz222/k5ubGOjdt2jT66quviIho4cKF5OrqSmfPnqW8vDwKCwsjc3NzKikpISKiHTt2kJOTk5yNxGKxwjFysRGXMauLEUW6rKuro8GDB9OkSZMoOzubrl27RoGBgeTj40O1tbVybWzbto3c3NwoJyeHysrKKCkpia5du0ZE8nMH15ht6O/q1ktV1yta/9XRu3dvSk5OJhsbG9YcWVRURMbGxpSenk4CgYDu3r1L1dXVZGFhQfHx8Uy97OxsEggEVFBQINe2ra0t/fbbb/TgwQOSSCS0d+9epqyhf6qKJ0Vjao55rLq6mtzd3SkgIIAuXrxImZmZdPz4cSIiqqqqom3btlFeXh7dv3+fvvjiC5YMCxYsIAMDA1q5ciVJpVL6888/SSAQkIODA8XHx1NBQQH99NNPZG5uTs+fP+cksyxisZiZw+pRF3f/JNTl6+9Ucr98+XIaNGgQ69zBgwfJ2NiYnj17RkSNS+59fX0pNDRUYZmnp6fcohMfH09WVlZUU1NDRERnzpwhsVjMTMKyyb1AICCpVMpcn5ycTEZGRsyxn58fLVy4kNXH8OHDNUqeuOimoVyLFy+mwYMHs+ovXbpUbXIfGxvL0oNAIKCioiLmXEhICM2cOZOIiFJSUsjU1JQl5/r166l///4K+5ClurqahEIhXblyhYheTij29vZUV1fH1AkPD6dx48YREdHjx4+pe/fudOzYMaa8srKSDAwMGp3cT5w4kYKCglhjqEdRcq+Jfohe2qQ+Yahn8uTJTLuyi6W7uztFRUUxx5999hmFhYXJyZaZmUn6+vqUlZWlcFyyDBs2jDZu3KiwzyFDhtBPP/3Equ/n56dxci8bBykpKWRoaKhUpmXLltHkyZOZY66Jwu7du5lzVVVV1K1bN0pPT2fG2fDHVU1NDZmamtKBAweI6KVNLSws6PHjx0r7WbJkCXl5eSksU+Sjy5YtY3xU3TgVJTsCgYAuXryo9HpFNLSnIr28ePGCpRdNbawuLlTp4MmTJyQWi1ljysjIIIFAQPfu3ZNrrznmu+PHj5NIJKLy8nKm/smTJ5Um93fv3qXu3bszSeuzZ8/IyMiIkpKS6Pnz5yQSiejo0aOsazw8PGjVqlVE1PjkXpWNuIy5Mcl9amoqiUQievDgAWv8+vr6lJaWJtfGhg0byM3NTaGtmiO5V7deqrq+Kcn9Tz/9REFBQcz5n3/+mT7//HOSSCRMck9ENG/ePJoyZQpTb+XKleTj4yPXbl1dHZmamtLmzZsV9tvQP1XFk6IxNcc8duLECRKJRArtKEtKSgqZmZkxxwsWLCBHR0dWHTc3N/rmm2+Y44cPH5JAIKBbt25xklkW2eSeS9z9k1CXr79T23JycnLkvrhhZWWFp0+fQiqVNrpdiUQCKysrpeUuLi6sY09PT7x48QKnTp0CABw6dAhubm5K9w3q6OhAKBQyx507d8azZ8+Yl5pyc3PlxmViYqLRGDTVTX5+PiwsLFjnTE1N1fZjZGTE/Ltjx45o164d9PT0mHO6urp48uQJACA7OxvPnj2Dra0tLC0tYWlpiVWrVqG0tFRh21VVVYiMjMSgQYNgb28PFxcXEBFevHjB6l9LS4s57ty5M/O4v7CwELW1taxx6erqomvXrmrHpYyQkBBkZ2fDyckJv/76K2trgSI00U89sra2tLTE7du3FbY/bNgwxMfHA3j56LT+sa8sFhYWCA4OxtChQzFlyhS5LQhxcXEYPnw4HBwc4ODggMzMTJaeG9JYX5FFNg46deqE58+fM3Fw6dIl/Oc//4GLiwvs7e2xdetWpTKpwtjYmPn3e++9Bx0dHVRWVgJ46ZNr1qxh/NHGxgZPnz5l+aStrS06dOigtH1184Wsj3bq1InlN5qOs3379rC1tVU5Zi72bKiXNm3asPSiqY3VxYUqHeTl5aGqqgoTJkxg7DBmzBgAL7fxcaEx851QKETnzp05ja9Lly5wdHRkYi0pKQnt2rWDs7MzpFIpqqurFfafnZ3NSX5lqLJRS61/OTk5EAqF+OCDD5hzXbp0gZ6ensLxBAYGwsDAAM7OzggJCUFBQUGj+1aEuvWypRg5ciSOHDmCiooKEBFiYmLktkECgL+/P5KSkhh/PnTokMI5WEtLC7/88gtWrlyJIUOGYP/+/Uq3jWm6zjTXPCYQCPDhhx/KlRUXF+O7775D//79YW9vj1mzZsnNJ4aGhqzjjh07srad1b+r0DAfUCezKloy7t5EWr9uAV4lVVVVcueICMDLRbyxEBFrIZKlbdu2cseDBw9GfHw8XF1dcfjwYfzwww9Kr2/Xrp3G/cv2qQ5NdUNE0NZm/zbkokMdHR3WcevWyl2QiKCnp4c///yTdV6233qWLl2KpKQkbNy4EYaGhiAidOvWjVVHlS7rx9uYcSlDLBbj2LFjOHbsGNauXYvNmzcjJiZG6YvZmuinHtkJv6qqSq6deoYNG4aIiAjcuXMHycnJ0NfXV/pS1uzZsxEQEICtW7di7NixGD9+PObPn4+jR4/i22+/RVRUFJycnNCqVSuMGDFCqXyN9RVZVNmutLQUY8aMwaxZs7Bu3Tq0bdsWK1asUPguQVP6ISLMmTOH2XtcT6dOnZh/q4s9dfNFc49TnTxc7alOL5rYWF1ccInT6OhofPTRR6wyrl9NeRXznb+/P1atWoW5c+ciISEBgwcPRuvWrRX2Xd+Hqja5/FBVpbeWWv80HU+HDh2wadMmZGVlYcOGDXBzc8PatWvx6aefNlqGhqhbL1sKY2NjGBsbY//+/TAyMkJtbS2cnZ3lXkDu3bs3Pv74YyQmJqJXr164efOm0g8rDBw4EGfPnkVsbCyWLFmCbdu2ITo6Wm5+13Sdael5bPLkydDX10dsbCw+/PBDnD59mnmnsB5Fa5S6fECdzKpobNz9U3mn7tybmZkhMzOTdS4zM1Pul76miEQiuXbVMXz4cBw5cgQZGRkoLy/HgAEDGt2/vr4+rl+/zjqn6ru99YtUXV0dc05T3XTr1o31ggyAZv+KgomJCUpKSqClpQU9PT3mv48//lhh/dOnT2PEiBHMHQFN7wgJBAJoa2uzxlVVVYU7d+40fhB4qW9PT0/ExcVBX18fu3btalJ7sty8eZN1fP36dXTv3l1hXYFAgD59+iAhIQFHjx5VeMeoIXp6epg3bx6ioqKwYcMGPH/+HKdPn4adnR1cXV3RqlUrAC+feihDU19R5J/qyMjIQE1NDYKCgphFSdb+2traGrWpCBMTE9y6dYvlj3p6eirvcMnSmPmiHi7j1BRN7amIxswHjY0LfX19tGnTBlKpVM4OipKD5prvCgoKWHdE1Y1v0KBBKCsrQ1ZWFpKSkphYE4lE0NHRQUZGhlz/9XfedXV15V66zMvLU9mfOriMWV2MKNNlQUEBHj58yJwrKytDSUkJ60mkLBYWFlizZg1mzJih8GVSLvI0N9ra2ipfqlbHyJEjERMTg927d+Ozzz5Tmvz6+/vj0KFDOHr0KPr27at0TQNePnmbMGECjhw5gqtXr8p9jKOh7IriSdGYmmsek7U78PJvB1y5cgVTp05l7uo3x9MZTWWW9R0ucfc28U4l94GBgcjLy8PKlStRWFiIc+fOYfHixZg6dSqnO6TKGD9+PKKjoxEbG4u8vDycOnVK7WMeBwcH6OjoYO3atRgwYADat2/f6P4DAwOxbds2nDx5EmVlZYiNjUVqaqrS+l27doWWlhb279+PBw8e4OnTpxrrZvTo0bh8+TI2bdqE4uJipKSkYMeOHY0egyIcHR1hbGyMoKAgXLx4EVKpFCdPnkRCQoLScWVmZqKurg6PHz/GwoULmWSFC7q6uvD19cXixYtx9epVSKVShIaGKvy6CFdiY2ORlZWFiooKSCQSFBcXN/vnVBMTE7Fv3z6UlJQgJiYGf//9t9xdkob4+/vj+PHjOH36tNLkPicnB/Hx8bhz5w7Ky8tx6dIlfPLJJ9DR0UHXrl2Rk5ODyspK1NXVYfXq1SofjQYGBuKPP/7A8ePHUVxcjB07duDChQtK6yvyT3V07doVVVVVTIKZkpIi5ycCgQDJyckoKSlp9B+imzp1Knbu3InNmzcjPz8f169fR1RUFLP1gQujR49GdnY2li1bhlu3biEjI4Pz95i5jFNTNLWnIjS1cVPiQldXFwEBAfjxxx+RmJiIwsJCXLp0SekfnGqO+a5fv37o0qUL5s+fD6lUimvXriEiIkKlnB06dICXlxdWr16NNm3awM7ODsDLZG3cuHFYtGgRzp8/j8LCQoSHh6OoqAiBgYEAgB49euDevXv4+++/AbyMx6b+IT0uY1YXI4p06eDgAHNzc3z99de4desWJBIJZs+eDRsbG/Tp00eujZMnTyIlJQX3799HcXExbty4odT2zRGzmiAQCHDjxg1cvXoVJSUlAICwsDC1N0HqGTp0KK5evYr4+HiFW3Lq8ff3x+nTp3H8+HGlbdfV1WHTpk1MbF66dAlVVVVyT6MB1fGkaEzNMY+5urri3//+N7766itkZWXhxo0b+Ouvv6Crq4vOnTszTxPz8/Oxfv16zu0qQ1OZBQIBEhIS8PDhQ5SXl3OKu7eJdyq519PTw+7du3Hq1Cm4ublh+vTpGDx4MGbPnt2kdkePHo05c+YgMjISHh4emDNnDh49eqTyGi0tLQwdOhQJCQnw8/NrUv8jR47EuHHjEBwcDCcnJ5w4cQKjRo1SWr9Lly6YM2cOwsLC4OTkhJycHI11Y2hoiI0bN2Lnzp1wcXFBZGRks/+BoNatW2P79u0QCASYMGECPDw88OOPPyp9vDZ//nyUlpbC9v+zd99xURz9H8A/R0cQEAVFei8iTVGQrgISxCiiomAsMYmYmF+eRBNN4iMmRo2JeXweTTHGWKKgaMSOiIWiiBqUIk16kyq938H8/iBsOO44DgVRmPfrlVc8dnZ2dnZ29nuzs3tWVpgzZw48PDwEzm3mZ8eOHTA2Noavry/efPNN6OjowN3dnW/avLw8zJgxAwCwZs0avj9iVVxcjFWrVsHCwgLLly+Hl5eXwE7/eXz44YcIDQ2Fvb09vv/+e3zzzTd8L6pd5s6di3v37kFTU5Nn3mMXERERHDp0CLNmzYKNjQ2io6OZ14n5+/vD0tIS9vb2sLGxQU1NDdasWdPr9nx9fbF27Vps3rwZzs7OiI+Px6ZNm3pNz6999mXSpEnYsGED/P39MWXKFBw+fBg7d+7kSrNu3TqIi4vD3t4e//73v/vMkx9PT0/88MMPCAoKgouLC5YuXYrY2Nhep4rxo6+vj6NHjyIyMhLu7u5YsWIFz92X3gizn/3V3+PJT3+P8YueF4GBgViyZAm2bNkCR0dHBAQEMIFLTwPR34mJieGPP/7A06dP4erqioCAAKxfv77PaUDe3t4ICwuDl5cXVxv5/PPP4enpibVr18LJyQlxcXE4ceIEFBUVAXROs9i+fTu+/PJLWFhYYMOGDS98nRJmn/s6R/jVpYiICI4ePQopKSl4eXnBy8sLMjIyOHDgAN9ytLa2YsuWLZg+fTrc3d0hKSnZ6/k4EOdsf8yZMwczZ86Ej48P87sl7e3tQo/mKygowNXVFdOmTYOamlqv6bS1taGnp4e4uDiBv48SGxuL+fPnw8LCAl9//TX27NkDHR0dnnSCzid++zQQ/ZiEhASCgoJACMGiRYswf/58hIeHg8ViYe/evTh8+DCsrKwQEBCAnTt3vtAA6vOUeevWrbh9+zasra2ZV632dd4NJ6xn1bVE2MSKCsLNbaKEEx4ejo8++giJiYkv9C51frZs2YLq6mrs379/QPOlXi3u7u5YtmwZVqxY0e/15s2bh/fff3+QSkZRVG1tLUxNTXH+/Pk+H2qmRpbAwEBkZWXh+PHjQ10U6jVUVVMncPmIGrl/1YSFhcHT03PAA3sASElJEThyQA0fXQ/FCSs/Px8ZGRkvfMeIoijBrl69Ck1NTRrYU1w6OjoQHh6OBQsWDHVRqGFqRL0t51XQ3t6O+vp63Lt3D5cvX2ZelfYibty4gYKCAsyYMQPy8vIIDQ1FfHw8vv766wEoMTVcNDQ0oKGhAV9++SU8PDzolz+KGiS1tbUoLi7G3r17ERAQMNTFoV4RLS0taG5uxsGDB9HR0dHrW3Io6kXR4P4lq6mpwbRp0zBmzBhmfveLGjNmDPbt24fvv/8ebW1t0NHRwc8//9zrKw6pkWnPnj34448/YGtri+3btw91cShq2PL19UV+fj58fHzg7+8/1MWhXhGRkZEICAiAnp4efv3110G5a09RAJ1zT1EURVEURVGvDTrnnqIoiqIoiqJGCBrcUxRFURRFUdQwQYN7iqIoiqIoihomaHBPURRFURRFUcMEDe4piqIoiqIoapigwX0PS5cuxZkzZ/pMFx4eDktLy5dQouErPDwcZmZmQ12MYSEwMBDvvffeUBdDaHV1dVBXV0dGRkavaV7VfRK2j3gVCFPPA8Hd3R1HjhwZ1G28ql7Vdtrd3r17sXHjxqEuxnO5ffs2XFxcBKYRdAyEWX+o9XX+DPa18lW6Fr+sPmu4o8F9D+7u7gPy7nnq9ZGXlwd1dXVYW1ujvb2dZ3liYiLU1dXh7Oz88gv3GqioqIC3t/dQF+Ol6U8f4ezsDA6HM8glGlwj7fgOpuDgYKirq+P999/nu/yXX36Buro6Nm/ePKDbnTJlChwdHYVKu3nzZsTExAzo9l+ElpbWC7W/nutfuHABu3fvHoiivbKuXbvG1Ue9asd0KI2UuqDBfQ8rV66kP/40AklJSaG9vZ3vSX/q1Cn6a64CREREDHURXiph+4jc3FxkZ2e/hBINrpF2fAebhoYGwsPDUVfH+57qweprHBwchPo1VDabjaioqAHf/otQU1PD+vXrB2z9kdCex4wZgzFjxgB4NY/pUBlJdTGigvvw8HB4e3vj7NmzmDZtGkxMTPDOO++gsrKSSdPz9lhpaSkCAgJgYmICY2NjrF69mm/et2/fhrGxMR48eMCzLDg4GPb29lx/i4mJga6uLvM5MDAQu3fvxtdffw0TExNMmTIF27dv73XULzw8HD4+Pjh+/DimTp0KAwMDrF27FpWVldi4cSOMjY1haWmJ77//HkBnh2ZoaIjm5maufJycnPDTTz/x5N9Vnm3btsHMzAympqb44IMP0NDQwKThcDjYvn07LCwsYGRkhHXr1qGqqoqrLi9duoS33noL+vr6cHJywunTp7m2Iy4ujpMnT8LW1hYGBgZYuHAhsrKyuNKEhITAwcEBenp6WLBgAZKTk8HhcGBkZISbN28y6b766itoaGjg2bNnzN/mzZuHn3/+mW8ddsdms+Ht7Y2QkBCuv7e2tuL8+fOYO3cu13YWL17Mla6srAwaGhp49OgRT97u7u44f/48Vq9eDX19fUydOhV79+7lSlNeXo41a9bAyMgIlpaW2L17N3MXQZh2CwCioqIIDAyEqalpv47Xw4cPoaWlxZXWw8MDs2fPZj43NTVBW1sbCQkJXNs8fvw4Nm/ejAcPHkBdXR0mJibMsuDgYDg4OEBXVxczZ87EhQsX+Fc+AEIIvvvuO1hYWMDQ0BAbNmzoNW1XnQxm+y8tLcXq1auZ837evHlITU0FwN1HcDgcbN26FVZWVtDT04OLiwvOnTuH5ORkeHh4AAC0tbWhrq6OlJQUAEB8fDzmzZsHPT09ODk54dy5c8x2AwMDsXfvXgQHB8Pc3By+vr5c5Xredt9Vnq4yXrt2jSvfXbt2wcnJCfr6+nBwcMDFixcBCD6+PdXU1GDVqlXQ19eHtbU1TxsPDQ2Fp6cnjIyMYGVlhV27djHLhO2b++pP+jqPfHx8EBIS0u/+pkt/2yk/GhoaMDQ0xPnz57n+Hh8fj/r6ekybNg0AUF1dDW1tbcTFxXGl++yzz7B8+XKefHtriwDvtJUTJ04w5+a0adPwzTffgMPhwNHREYWFhVi2bBnU1dXx22+/CVWvS5YswaNHj+Ds7Ax9fX2w2Wye8vHbZpe+2kb3KSPP01d0rb9+/XqcO3cO+/btg7q6Ot5++22eOuzv+VVSUoJ3330XRkZGMDExwfr167mugx9++CHPlKjdu3cL/OXiS5cuwd7eHrq6uvDx8eHp6/u6pnQF94KOaU99XYsTExOxbNkymJubY9KkSXj33XeZL6izZ8/Gvn37uPI7ffo0LC0tweFw+owV+BHUZwlTp+7u7rh79y4+//xzGBgY4IcffhCqLgb72vLSPKuuJcL+97q7evUq0dHRIStXriTp6ekkNTWVvPnmm8TT05NJ4+bmRg4fPkwIIYTNZhMXFxeydOlSEh8fT5KSksjNmzeZvCwsLAghhKSkpBATExNy5coVvtsNCgoidnZ2XH+Ljo4mOjo6zOetW7cSPT098u2335K8vDwSHR1NLCwsyPbt2wXuy5o1a0hmZib566+/iIWFBbGwsCB79uwhBQUF5MKFC0RdXZ3Ex8cTNptNJk+eTC5cuMDkkZ6eTtTU1EhhYSFP/l3l2b59O8nJySHx8fFk2rRp5LvvvmPSfPHFF2TevHnkyZMnpLCwkPj7+xM/Pz+uujQ1NSWhoaGksLCQHDt2jGhqapIbN24w+6CtrU38/f1Jeno6KSgoIH5+fsTb25vJ49KlS8TCwoLcvn2blJeXk2+//ZaYm5uT+vp6snz5cvLNN98waR0dHcn06dPJn3/+SQghpLGxkWhpaZGkpCS+ddglNzeXqKmpkfT0dKKrq0tqa/9p66GhoWTevHnk+PHjxMnJiRBCSFJSEtHQ0CBlZWVMusOHDxMbGxu++bu5uZFJkyaRkJAQUlhYSC5cuEA0NTXJ7du3CSGEcDgc4u7uTj777DNSUlJCEhMTiY2NDdm/fz/XsRbUbrdu3Up0dHTIjh07SEFBAZOHMMeLw+EQIyMjpm2XlpaSSZMmESMjI1JcXEwIISQqKooYGxsTDofDs3/79+8nCxYs4PpbREQEMTAwIKGhoaSgoICEhIQQPT095tjX1tYydU4IISdPniRGRkbk2rVrpKioiPz6669EW1ubvPvuu3zrdLDb/7p168i6detIWVkZKSwsJH/++Sepr69njmdXH/HHH38QZ2dnkp2dTSoqKsitW7dIamoqIYSQ+Ph4oqamRthsNpNvYWEhMTQ0JMePHycVFRXkypUrRFtbmzx48IA5jrNmzSJLly4lcXFxJDMzk6ds/Wn3XfXs7OxM7t69S0pKSsi3335LDA0NSV1dHZPH2bNnSXJyMqmpqSFHjx4lenp6zP7yO749ubm5ERMTE3LmzBny9OlTcuXKFa42Tkhnn3fnzh1SVVVF7t+/T/T19Ul0dDTX8eyrbxbUnwh7HsNKjf8AACAASURBVPn5+ZHHjx+TnJwcsnTpUqH7G0L63057CgoKIgsXLiRHjhwhXl5eXMs+/fRTsnPnTvL++++TTZs2EUIIWbVqFdm8eTOTpr29nVhYWJCQkBCevAW1xa1btzJlzMzMJDo6OuTu3bvk2bNn5OHDh+TWrVtMPjo6OsxxEbZeraysyNy5c0l4eDhJTEzkKVtf2+yrbUyePJlJ+zx9Rff1/fz8yLfffss3LSH9O786OjrIG2+8QVatWsW0Wz8/P+Ll5UXa29sJIYSsX7+ebNiwgWsb3377Lc+1sqtPycnJIZqamuSnn34ixcXF5Nq1a8TCwoJrH/q6plRXV5MtW7Yw6XseU3511Ne1ODs7m1y6dImUlpaS/Px84urqytTj/v37iaurK089dpWhr1ihO2H6LGHr1M3NjWzZsoUkJCSQp0+fCl0Xg3ltGSh9xesjauQeANra2vD111/D0NAQxsbG+Oabb5CYmMj34Y07d+4gLy8P+/btg5WVFSZPnsz1YA6LxUJxcTGWL1+ODRs2MCN1z0tJSQkbN26EpqYmHBwc8P777/OMJPfcl8DAQOjp6WHKlCnw8PCArKwsPv74Y6irq8PLywuGhoZITU2FmJgY5s6dyzV6euXKFVhaWvZ6G3jcuHH4/PPPoa2tDSsrKyxcuBBJSUkAOkdyg4ODsXXrVujr60NNTQ0bN25EVFQU1wiHq6sr5s+fDzU1NSxfvhyzZs3CqVOnmOVsNhs7duyAoaEh1NXVsXbtWmYbAHDo0CGsWbMGdnZ2UFJSwieffILW1lZERUXBzs6OGdXKy8tDWVkZfH19cevWLQCdI2EyMjJCT7PS1dXlGVE7deoUlixZgo6ODuZvkydPhq6uLi5dusRVl/Pmzes1b1dXVyxatAhqamrw8vKClZUVs593795Ffn4+tm/fjgkTJsDMzAwrV67E2bNnmfWFabfKysrYtGkT1NXVYWZmBm9vb6GOV01NDaZPn87U5c2bN2FhYQErKytERkYCAOLi4mBjYwNRUVGh6vLnn3+Gv78/5s+fD3V1dSxatAi+vr44cOAA3/THjx+Hn58fXF1doaqqinfeeafPB7wGs/03NTWBEAJFRUWoqanB29sbsrKyfNMBgLy8PMaNGwdnZ2eB8/GDg4MxdepU+Pn5Ydy4cfDw8ICjoyPX6H15eTkOHjyI6dOnQ09PjyeP52n3AQEBsLGxwYQJE/Cvf/0Lzc3NXFOGFixYAFNTU8jLy2PZsmVobW1Ffn5+r/vBj5ubGxYuXAgVFRV4eHhwtXGgc2rIjBkzMGbMGFhbW8PU1JSr/QrTxgX1J8KeRzt37sSkSZOgra2NgIAArpF5Qf0N8HzttKeOjg68+eabSElJYUZGm5ubcfHiRSxevJirr1mwYAGuXLnCjJLfv38fdXV1mDNnDk++wrbF5uZmdHR0QFZWFoqKirC0tBT4PJEw9VpeXo5t27bBzc2Nb330tc2+2kZ3A3EMBOnP+RUbG4u0tDTs2bOHabf/+c9/kJyczPcuvjCCg4MxadIkBAQEYOLEiXB1deW5gwcIvqYoKCjgq6++6td2+7oW6+jowNPTE+PHj4eGhgZcXV2ZYzR//nykp6czfUptbS1iYmLg7e0tdKzQU199ljCUlJTw1VdfwdzcHCoqKkKvN9ix1csw4oL7UaNGcVW4sbExxMTEkJeXx5M2MzMTampqGDt2LN+8REVF8d5770FZWRmrVq164bIZGBiAxWIxn83MzFBVVcV3biYASEtLQ1VVlfk8evRo6OjocKUZPXo0GhsbAQDe3t64desWM/2ir4BUX1+fqzzy8vLMurm5uWhra8OKFStgZmYGMzMzLFu2DEBnR9/F0NCQK08zMzOuupaSkoK6ujrzWU5ODi0tLcx0pPT0dOzfv5/ZhqWlJZqamlBWVoYZM2YgOTkZjY2NuH79OmxtbeHk5ITo6Gh0dHQgLi4Otra2EBERvpkvWrSI+UJVVFSER48e8a2jBQsWMCfzs2fPcP/+fYF1aWBgwPVZTk4O9fX1zD42NzfDysqK2c///Oc/KCsrY9IL0257Hi85OTmhj1f3C9r169fh6OgIOzs7ruC+59QyQbKzs3kuuObm5khPT+ebPj8/H5MnT+b6m5GRkcBtDGb737JlC9LT02FnZ4eff/6Za8pSd35+ftDV1YW9vT22bNmCwsJCgWVOT09HXFwccwzMzMwQExPDdaytrKwgIyPTax7P0+67tz9xcXFISUkx7a+trQ179+6Fh4cHbGxs4ODgAEIIWltbBe5LT4LaONA59WLhwoWwtbWFra0tkpKSuLYhTBsX1J8Icx717G/k5eXR3NwsVH8DPF875UdBQQGzZ89m+prLly/DyMiIp/26ubmhtbUVd+7cAdDZZp2dnTF69GiePIVti5MnT8b69esxf/58rFmzps8gVNj+ycrKqtc8+tpmX22ju4E6Br3pz/mVnZ0NdXV1Zn470BlQqqio9NrX9UXY/evrfOuvvq7FDx8+xNtvvw0HBwfY2NjgyJEjzDFSVVWFtbU1M50vLCwM6urqsLCwEDpWELR/PfssYTk4OPQrfZfBjq1eBrEh3foQ6D4qAgDt7e0ghEBKSoonLSGEK1jqqbS0FHPmzMGZM2dw5swZ+Pj4CF0Ofh1Xzze1tLW1AQAkJSX55sGvzGJivR/SqVOnYvz48QgPD8eUKVPw5MkTgQ9ZSUtL97qMEAKgcxRFWVmZa5mSkhLzb3771L3cgrbRtZ2NGzfy3BWRk5ODtLQ0ZGVl8fDhQ9y8eRMeHh4wNzcHIQRJSUmIi4sT6iGy7ubPn4+vv/4aWVlZuHjxIubMmcN3xHbBggX4/vvvUVxcjOjoaGhpaQm8Q9BXXaqoqHCNhAHgCs6Eabcvcrw6OjqwY8cO1NXV4fbt29i8eTPa2tqwb98+NDQ0ICEhATt37uw1/5662m7PMoiLi/davp5fwnpL22Uw27+Ojg6uX7+O69ev48cff8Tvv/+OkJAQaGtrc6WTkZHBb7/9huTkZBw4cADOzs748ccf+Y6sdu2nu7s7vvzyy173pbfzvcukSZP63e4FtY1du3bh1q1bOHjwIPT09EAIgYaGhsAy8CNoGxEREfj0009x6NAh2NnZQVRUlKe/FKaNC+pPhDmPXqS/6Vre33bam0WLFmHTpk347LPPEBISgiVLlvCkkZSUxBtvvIELFy7A0dERV69e5Wk7XfrTFj/++GMsXboUR44cgb+/P9566y188cUXfPMVpl77arOCtilM2+hZnoE6Bvz05/zi1891lVFQmQR9cRZ2//pqy/0lKL+ysjIsW7YMH374IX766SdISkpiz549XM+YLViwAIcPH8ZHH32EixcvYsGCBQCEjxX6Ux5++NWpMO2Sn8GOrV6GETdy39LSgoKCAuZzeno62tvboampyZNWW1sbhYWFqK6u5pvXuHHj8PXXX2Pbtm0CR0pkZWV5HrbIzc3lSZeZmcmcCACQlpaGCRMmPHcD5cfb2xtXrlxBREQEpk2bhvHjxz9XPlpaWpCQkEBBQQFUVFS4/ut+Ejx58oRrvbS0NL513RtDQ0NkZWXxbENGRgYiIiKwsbHB/fv38eDBA8yePRsiIiJwcnLC9evXkZCQ0K/RZuCfEbVTp071esEFOt/AYG1tjbCwMERERLzQt3RDQ0OUlpaCxWJx7WP3Y9OfdstPX8fLxMQEcnJyOHbsGJSVlaGnpwcTExPIysri8OHDkJeX5xk17SIiIsITdBkbGyMxMZHrb0lJSTyjTV00NDSYB1a7DMabZvrT/kVERODm5obQ0FBoaWnh5MmTvaadPHky9u/fj7Vr1zIPUXVdoLsHrYaGhsx53f0YdB/568tAt/vY2Fj4+PgwU4B69mP8jm9/xcbGYvr06XB0dGSmdhUVFXGlEaaNC+pPhDmP+iKovwEGtp06Ozujo6MDx48fR3JyMtdD+90tXLgQ165dQ2JiImpqargedOeHX1vkR0VFBZs3b8ahQ4dw4MABtLS0AOg83j3b7IvWq6BtCtM2unvRY9Bz//gtF/b8MjY25okRKioqUFpaCn19fQDCX/8Hav962ydB+9yXxMREcDgcBAQEMPFIz35i7ty5yM3NxYMHDxAbG8sE98LGCv3R3zrt7kXrojcDFVsNlBEX3IuJiWHLli3IzMxETk4Otm7dCgcHB2hpafGkdXR0xMSJE/Gvf/0LycnJyMjIYG47dbd48WLY29vj//7v//heBCdNmoTKykrcuHEDQOeJyu8HK8rKyvDdd9+hqKgI9+/fx08//YS33nrrhfe5O29vb8TGxuLmzZsvFJDKyspi6dKl2LZtG8LDw1FUVISHDx/y7Fd4eDjOnTuH0tJShISE4MaNG3zf9NCbd955B8HBwfj999+Rn5+PtLQ0HDp0iLk9Z2dnhzNnzkBPT4+ZUzdz5kycOnUKCgoKTMCyY8cOofd30aJFOHToENPJ98bb2xs3b95EbGzsC9XljBkzYGBggICAAMTHx6OgoABRUVEICwtj0vSn3fLT1/FisViwsbHBiRMn4Orqyqzn4uKCY8eOYcaMGb3mraamhoyMDKSkpKC0tBQAsHbtWgQFBeHixYsoKSnB2bNncfLkSQQEBPDNw8/PD8eOHcPNmzdRUlKCoKAg/PXXX0LtW38I2/5Pnz6N5ORk1NXVITMzEyUlJTyj9gAQFRWFmJgYPHv2DCUlJcjIyGDSqaqqgsVi4fz586iqqkJTUxOWLVuGp0+fYtOmTcjIyEB2djbOnz/PNbdVGMK2e2GoqqoiKSkJHR0daGhowFdffcX1bAW/49tfqqqqyM7ORn19PTo6OrBv3z6uaR2AcG1cUH8izHnUl776m77a6dOnT2FjYyPUNsXExLBgwQJs27YNb7zxRq9TsWxtbSElJYUff/wRs2fPxqhRo/imE9QWu8vOzsaFCxdQXFyMmpoaPHz4EBMmTGBGK9XU1BAWFobq6mrU1NQMSL0K2qYwbaO7F+0r1NTUEB0djdLSUp630HQR9vyytbWFiYkJPvnkE2RlZSEzMxMff/wxLC0tYW1tDQDM1LuioiIQQnDr1i1muiM/vr6+SEhIwG+//YaSkhLExMQgKChI6P3rbZ+7H9P+UlVVRVtbG/OlIyYmhuf4KygowNnZGV999RUmT57MnLfCxgr90d867e5F66I3AxVbDZQRF9yPHz8ec+fOZR7IkZWVxQ8//MA3rYSEBIKCgkAIwaJFizB//nyEh4fzTfvtt98iNzcX+/fv51mmo6OD7du348svv4SFhQU2bNiAjz/+mCfd3Llz0dLSAjc3N6xcuRKenp69BkPPS1tbG3p6eoiLi4Onp+cL5RUYGIglS5Zgy5YtcHR0REBAAM/F/8MPP0RoaCjs7e3x/fff45tvvmE6PWF4enrihx9+QFBQEFxcXLB06VLExsYyo6L29vYoKirCrFmzmHWcnZ1RXl7OFZC2t7cLPfro7OwMBQUFLFmyROC0rLlz5+LevXvQ1NTsVzDVk5iYGE6cOAE1NTWsWLECs2bNwrZt27hu+fan3famr+PFry5nzpyJ0tJS2NnZ9ZrvnDlzMHPmTPj4+DBtytXVFTt37sQPP/wAOzs77N27Fzt27Oh1DqSvry/Wrl2LzZs3w9nZGfHx8di0aVO/9k8Ywrb/4uJirFq1ChYWFli+fDm8vLx4Xn8KdN4K3rJlC6ZPnw53d3dISkri3//+N4B/HpDfsWMH7OzsmPm5p06dQm5uLry8vDB37lwcOXKk3yNYwrZ7YXzxxRcoKyuDlZUV5syZw0xD6MLv+PaXv78/LC0tYW9vDxsbG9TU1GDNmjVcaYRp44L6E2HOo7701d/01U4JIeBwOFx3YAVZvHgx2Gw23wcmu7BYLMyfPx9hYWF48803e00nqC12JyIigkOHDmHWrFmwsbFBdHQ01ysBt27ditu3b8Pa2hrnzp0bkHoVtE1h2kZ3L9pXrFu3DuLi4rC3t+dbP4Dw55eIiAiOHj0KKSkpeHl5wcvLCzIyMlwvDug6b7y8vDBt2jScOHECH330Ua/l09PTw8GDB5lXCe/du/eFf3Sr5zHtr0mTJmHDhg3w9/fHlClTcPjwYb7TNBcsWICEhARm1L6LMLFCf/S3Trt70brozUDGVgOB9ay6VrheCICigtxglmXQhYeH49NPP+WZLvAqCAwMRGlpKX755ZeXsq2srCwcP358ULfj7u6OZcuWYcWKFYO6naHk7u6OefPm9fqLkwPhVW63r6OX1f4p4QnTxkdCf9Kb8PBwfPTRR0hMTISEhMRQF4eiKD5e5rWlqob/i1a6jLiRe2FHVIbCyyhbR0cHwsPDeb5ZD5ZXub5fVH5+PjIyMgSOpg2U4VyPL9PLbv+U8IRp4yP1PAgLC4OnpycN7CnqFfWqXVtG3NtyRqqWlhY0Nzfj4MGD6OjoGPInuV9nDQ0NaGhowJdffgkPD48hfZctJRza/qnXTXt7O+rr63Hv3j1cvnxZ4C88UxQ1NF7Va8uIG7kfqSIjI2FlZYWIiAj8+uuvdAToBezZs4d5W8L27duHuDSUMGj7p143NTU1mDJlCr744gvs2LFD4I+jURQ1NF7Va8uImnNPURRFURRFUa8zOueeoiiKoiiKokYIGtxTFEVRFEVR1DBBg3uKoiiKoiiKGiZocE9RFEVRFEVRwwQN7imKoiiKoihqmBjxwX14eDjMzMxe6jYDAwPx3nvvvdRtDqSBrjNh8tu7dy82btw4YNscyG3dvn0bLi4uz729oWiDPb1om6yvr8fUqVORk5MzgKWiKIqiKKq/Rnxw/6q6cOECdu/ePeD5VlRUwNvbe8DzFWQg9mXKlClwdHQcoBL1b1t9lV9LS+ul1+mrZtSoUfD29oaSktJQF4WiKIqiRjT6C7WvqIiICKirqw9Kvi/bQOyLg4PDAJWm/9vqq/xqampYv379YBfrlSYqKorPP/98qItBURRFUSPeiBu5v3TpEuzt7aGrqwsfHx9UVlZyLU9MTMSyZctgbm6OSZMm4d1330Vd3T8/FmBtbY2zZ89yrePt7Y0ff/yR+RwWFsZsY9GiRbh58ybPtAtRUVEEBgbC1NQUpqam+OCDD9DQ0AAAWL9+Pc6dO4d9+/ZBXV0db7/9NgCAw+Fg+/btsLCwgJGREdatW4eqqioAQF1dHbS0tFBZWYnFixdDR0cHcXFxXNs8fvw4Nm/ejAcPHkBdXR0mJibMsuDgYDg4OEBXVxczZ87s10+dCypXb/vSk7i4OE6ePAlbW1sYGBhg4cKFyMrKYpb3nDbi7u6O0NBQ+Pn5QVdXFzNmzMDVq1cRHR2NWbNmQV9fH2+++SZXHt2VlpZi9erVMDExgbGxMebNm4fU1FSebQlT/p7TagIDA7F7925s27YNZmZmPMf3efYfAEJCQuDg4AA9PT0sWLAAycnJXPVx9+5dfP755zAwMMB///tfvtt58OABvL29oa+vDwsLC+zbt49ZJqhNAkBoaCg8PT1hZGQEKysr7Nq1i1lWV1cHdXV1ZGRkMHWwd+9eBAcHw9zcHL6+vr3uO0VRFEVRA2dEBfe5ubn44IMP4Ofnh5iYGLz33nv4/vvvudKMHj0afn5+uHbtGsLCwpCXl4dffvlF6G0UFBRg3bp1WLx4MSIjI7F69Wps2LCBJ114eDgkJSURFhaGoKAgxMfHM9vZt28fnJycsH79ehQWFuLQoUMAOgOmBw8e4PTp07h+/Trq6+vx4YcfMnm2t7fj7bffhqenJ86dOwdTU1Oubfr7++PTTz+FtbU1CgsLmWD2+vXrCAwMxCeffILIyEgEBATgk08+wc2bN4XaZ0Hl6m1feqqursbly5dx5MgR3LhxA9LS0vjss88Ebnfr1q1YunQpoqKi4Obmho8++gg7duzArl27EBERAWlpaQQGBvJd9+uvv4a0tDQiIyMRERGBlStXQkNDgyedsOXv6eDBgxATE8P58+dx7NgxPHjwQGA76mv/L1++jJ07d2LXrl24e/cubG1tsXz5cq7gOzAwEGJiYjh9+jQWL17Ms428vDz4+fnBwsIC58+fxy+//AInJydmuaA2CQDjxo3DF198gbt37+LAgQP4/fffERMT0+s+Xbp0CRcvXsSvv/6K7du3C1VvFEVRFEW9mBE1LSc4OBiTJk1CQEAAAGDixInw9fXFiRMnmDQ6OjrQ0dFhPru6uiI9Pb1f2zA2NmaCW3V1daSmpuLo0aNc6ZSVlbFp0yawWCyoq6vD29sbSUlJvebb1NSE4OBgnD59Gvr6+gCAjRs3wtPTE8+ePYO4uDgAwM3NDStWrBC6vADw888/w9/fH/Pnz2fKnJSUhAMHDmDmzJkC1+2rXGPHjhWqDGw2Gzt27GCmv6xduxarVq0SuI6rqyvmzp0LAPjggw9w6NAhvPvuu7C2tgYArFixAl988UWv5ZaWloaioiLExMSgpqYmVDmFNW7cOHz++edgsVjQ1tbGwoULBR7fvvb/0KFDWLNmDezs7AAAn3zyCQ4fPoyoqCh4enoCAJSUlPDVV1/1uo2TJ09CR0cH//73v/ku76tNdp+uZG1tDVNTU2RkZPQ6Zaq8vBznz5+HjIxMr2WiKIqiKGpgjajgPj8/H5MnT+b6m5GREdfnhw8f4scff8STJ0/AZrNRX18PS0tLobeRk5PDMwXH0NCQJ52+vj5YLBbzWU5OTuC0jdzcXLS1tWHFihXMeh0dHQA6gyhVVVUAzzc3PTs7G2+99RbX38zNzYWamtNXuYQN7qWkpLjmtcvJyaGlpQUcDgdiYvybadeXCaDzjgsA6OrqMn+TlZVFY2Mj33W3bNnCBMsrV67E8uXLISsrK1RZhdHz+MrLyws8vn3tf3p6OtLS0nDgwAEmTVNTE8rKypjPfR37zMxMmJubC13mnm0yNDQUx48fx9OnTwF0Ppw9a9asXvOzsrKigT1FURRFvWQjKrgnhEBEhHsmUteINwCUlZVh2bJl+PDDD/HTTz9BUlISe/bswaNHjwTm29LSwrWN7gESAEhKSvKsIy0t3e+yA53z5pWVlbmWKSkpoampqddt9aWtrY3v9rrXzfOWS1j9rQ+gMyDuqbcvAj3p6Ojg+vXruH79On788Uf8/vvvCAkJgba2dr/LwU9/96ev9IQQbNy4ER4eHlx/l5OTY/7d17Hn1zaFLUNERAQ+/fRTHDp0CHZ2dhAVFYWPj4/A7T1PW6QoiqIo6sWMqDn3GhoazDzzLtnZ2cy/ExMTweFwEBAQwAQmhYWFXOllZWXR3NzMfOZwOFxptLS0kJaWxrXO87z7W0REhBkB78pXQkICBQUFUFFR4fpP2IC2K9/29nauvxkbGyMxMZHrb0lJSTAwMOgzP2HK1XNfXhUiIiJwc3NDaGgotLS0cPLkyV7TDXX5DQ0NkZWVxVPH/RkZ19bWFjg1SJDY2FhMnz4djo6OEBUVBQAUFRU9V14URVEURQ2eERXc+/r6IiEhAb/99htKSkoQExODoKAgZrmqqira2tqYLwAxMTEICwvjysPMzAznzp1DU1MT2Gw2/ve//6GmpoZnG7///jsqKioQGxuLI0eO9LusampqiI6ORmlpKSorKyErK4ulS5di27ZtCA8PR1FRER4+fNjvvNXU1JCRkYGUlBSUlpYC6JzfHRQUhIsXL6KkpARnz57FyZMnmWcTBBGmXD335VVw+vRpJCcno66uDpmZmSgpKel11P5VKP8777yD4OBg/P7778jPz0daWhoOHTqE+vp6ofPw9fVFeno6du/ejaysLCQmJgp8ILY7VVVVZGdno76+Hh0dHdi3bx/XlCCKoiiKol4NIyq419PTw8GDB5nXPu7du5frx4kmTZqEDRs2wN/fH1OmTMHhw4exc+dOrjw2bdoEKSkpTJs2DS4uLqirq8O8efOY5To6Ovjf//6H3377DdOnT8fu3buxevXqfpd13bp1EBcXh729PfMAZGBgIJYsWYItW7bA0dERAQEBTIAurDlz5mDmzJnw8fFhHsR0dXXFzp078cMPP8DOzg579+7Fjh07hJ6/31e5+O3LUCsuLsaqVatgYWGB5cuXw8vLi+8bZoBXo/yenp744YcfEBQUBBcXFyxduhSxsbE808wE0dfXx9GjRxEZGQl3d3esWLECT548EWpdf39/WFpawt7eHjY2NqipqcGaNWued3coiqIoihokrGfVtUTYxIoKcn0nonhcuXIFW7ZsQXx8/FAXhaIoiqIoinqNVdXUCVw+okbuh0pKSsqAv2qRoiiKoiiKonqiwf0Ae/r0Kb755hskJiaivLwc4eHhOHz4MPMOeYqiKIqiKIoaLCPqVZgvw6hRo5CZmYmVK1eitrYWKioqeO+997B8+fKhLhpFURRFURQ1zNE59xRFURRFURT1mqBz7imKoiiKoihqhKDBPUVRFEVRFEUNEzS4pyiKoiiKoqhhggb3FEVRFEVRFDVM0OCeoiiKoiiKooYJGtxTFEVRFEVR1DBBg3uKoiiKoiiKGiZocE9RFEVRFEVRwwQN7imKoiiKoihqmKDBPUVRFEVRFEUNEzS4pyiKoiiKoqhhggb3FEVRFEVRFDVM0OCeoiiKoiiKooYJGtxTFEVRFEVR1DBBg3uKoiiKoiiKGiZocE9RFEVRFEVRwwQN7imKoiiKoihqmKDBPUVRFEVRFEUNEzS4p6iXJPZuHC6HXQUhZKiLQlHUCNTc3Iz6hgaw2eyhLgpFUYNIbKgLMFRa29rQ0twidHopKUlISkoOYomo4U5HRxsnQ87gytVwvDHHHSwWa6iLNCwQQlBfX4/+fGeSlJSAlJTU4BWKol4BHA4HKalpSEvPwNOnT9HWLahXUFCAro42zCdPhrKyksA8REVFaX9FUa8R1rPqWqEviYoKcoNZlpeiqroaV8OvoaCwqN/raqirYY67GxTHjBmEklEjQWlZGU6GcBm19QAAIABJREFUnIG+ni4N8AdI6PkLyHiS2a91REVFsdxvKSaMHz9IpaKooXflajgyMp7AwEAfujo6kBs9GhISEqivr0d5ZSXS0tJRWlaGCePHw9jYCMrjxkF2tCzYbWzU1dchOycXTzKzYGlhDmdHh6HeHYqi/lZVUydw+YgK7pubm3HoyDGMG6sIRwd7yIySEXrdpqYmREbHoKqqCm+vWkFH/ajn1hXgG+jrwcPdjQb4L+jnAwdhZWUJIwMDodc5HhQMRwd7TDadNIglo/qLEILYuHuYOsUKkhISyM7JRWZmFkrLy9DS0goAUJCXw3hlZRgaGmCiisoQl/jVdjnsKgDA02NOr2kqK58hOSUFWdnZqK6uQUdHBwBAQkICGupqqKurx/jxygLzoCjq5eoruB9R03KSH6dATEwMPt4LICbWv12Xl5fDooUL8NvhI0h6nIJpU6cMUimp4W7C+PHwXeyDkyFnAABvzHEf4hK9/kZJS0NeXvjBBxER+rjRq6ilpQUpqWnIzs7BkkULISoigpbWFhgZGkJWRgYdHR2oratDTm4u7j34CyoTJmCmixPU1dSGuuivrXHjxsLFyREuTo7o6OhAc3MLxMXFISEhDuCfLwgURb0+RtQV7tmzKqhOVOl3YN9FTEwMqhMn4tmzZwNcMqovhBD89vsR/BEUPNRFeW6EEDQ1NaO2rg7S0tLwcHdDSmoarlwNH+qiUSPQk8ws7PpuD+Lu3R/qonAZNUoaT0tKEBxyGhMmjMf8eV4w0NMFIQQSEuKwsrDACn8/BLz3DsaOVcSJ4FOIuRM7ZOWNf/gIu77bg5TUtCErw0ARERGBjMwoJrAfCNXV1fjP//YjMjpmwPLsrqKyEru+24Owq9cGJX+Keh2NqJH7DtLxwiN2IiIizG3LvpSVl+PIseMghMB3sQ+0NDWZZWw2GwcPHUZdfT1m2EyHo4M9s6y8ogKnz5xFU3Mz3F1nw2yyKe++dHQg+vYdPH6cgpbWVigpjcNM59dvBOveg78gN1oWxkZGAtN1PTTZ0tr6kko2MEpLy5CSlob8/AI8q6pCe3s7T5qk5McwMTaGlqZGr/n8dvgIKiv/+VIpLS0N88mmcHZyfK5yCVvv/DQ3N4PFYg37qWmNjY24GRmFvPx8tLa2YaKKClycHaEyYcKQlqujowP1DQ2Ql3u9p0n21NzcjOPBJyEiIgK/pUtw5eo1nAw5A9/FPqirq8edu3Foa2tFc3MLrKdYwdnJEXPf8MAkE2OEnr+IxsZGzHFz7XM7w6XvfJV0dHTg9p1YpKalo76hAWPGKMB2+nRMMjFGS0srWltbUVdXz3fdtjY22thtkJURfposRVGCjajg/mULv3a919ce3r4Ti7p63s6usbERp06fAZvNge9in14vOBE3buJRQiKkJCUxVlERpaVlOHX6T7yzelW/picMpbY2Nu7E3oWmhkafQaaIiAjeeXvVazOdorSsDFHRt5GblweVCRNgZGQIZSUlyMrKQFpKGmABZWVluHDpCkyMjaCpoS5UvtraWgA61427/wDKysowMe5fgN6feu8pKzsHZ86Gwmb6tGH/gN3Fy2HIy8/H2LGKEBeXQEFhIWJux2Kxj/eQluuPE8EoKS3Fhn/933PfhXwVnbtwCSwWC36+SyAlJQXfxT745dffEHzqNHwX+2DtO28DALJzcnHpShg6Oghmz3KBtpYWFi1cgJAzZ6GspAQrSwuB2xkOfeerJu7+A8TG3YOsrCzGKiqiorIStyKjoKurAxWVCXhvzWrIysryrNfc3IyfDhyE0rhxeMt/2RCUnHpVEEIQGRWNnNw8sERYmKiiglkuzhAX77yL9CQzE5FRMeggHRgtOxqeb8yBgrz8kJU3Lz8fsrKyGDd27JCVQZDhc2V4xSQkJqGsvBxmk02RlPyYa1lFZSUexD+EpYU5HiUkci2LuHELjY1NWOzj3Wtg39jYhITEJMjLy2HVW8shJSWFhKQklDwthZiYKIDOzvbhowS0tbVBX08XrrNmQkJCgnmzyCwXZ9yJvQspKSnMfcMD9/+KR25eHnS0tTB/nhdYLBb+u/8nSEpKwkBfDw8fJTDzW6+GR6Cmpga2NtNhM30aACAnNw+RUdGoqq6GyoQJmOvpAXk5OcQ/fISIGzdhN8MWKalpaGlpwUxnJ5hNNsV/9/+I9vZ2ZGZl4T//249/ffgBSsvKcPVaBCoqKiEzahSmWU/F1ClWAIBDR45BUlISa995m8nX1mY60tLT4eLkBG0tTVy/eQuZWdlgsQCb6dOZZyOSkh/jduxdNDU1QVlJCbNmOkN14sQBPOKdCCGIvn0Hcffuw9BAH++uWc337Upl5eW4cvUaTIyN+vVQ7RKfhQA6O5aTIWeQn18AYyNDREbHICn5Mdo5HEycOBEe7m6Ql5fjW08XLl3mqfeU1DTE3LmDhoZGjBmjgFkuLsydhMKiIkTcuImqqmqIiYnBbLIpTCeZAOhsZ48SEtDU1AxjI0O4zZ4FMTExpp3N/Lud/evDDwaohl8OQgjyCwqgoCCPd1avAtDZxtVUO9tMc3MzwsIjkJuXBzExMejr6cLddTZERUURdPIUCgqLmOB7z97/QV5eDiuX++O/+3/CRJUJWLpkMQAg5MyfeFpSiv/7YB1qamoQHnEdT5+WQEZWBu6urtDS1EB7ezuu37yFjCdP0NFBICYqCi/PNyAqKirwfGHOXz1dFBQWYeVb/vjr4UPcjbsHcXFxmJqYcO1zW1tbr+cPv7wGUkJSEp6WlGDViuXMHaG8/HxISkqCzWYj6FQIli5ejFGjpKGro40353ri5OkzsJ46BfLyclBXU8PsWS64fuMWDA0MICMziu92+uo7BR1XoPO3KhISk9DS2gojQwO4u85m8q6vr8fBQ4fR2NTE9HFA331j93PT0EB/QOv1ZcnLywcAvOW/DHKjR3feZWQBUpKSqKisxKHDR2E+eTI85rihrr4eYeHXUFz8FKKiohg3dixcnDvvQHa1MyNDA8Q/fIQJ48dj4YI3ISUlJbCP6mm49kvDWfyjR6irr8eqFcshIiKC2Lh7uHM3Ds6ODmhpbUXEjVvwX+oLeXk5PE5JxbWIG0M60JLxJBOaGhqvbHD/egyDvmaampoRGR2D6dZTMZbPgb8WcQMTJ6rwTLepqa1FxpMnUFNVRWzcPfznv/tw6UoYOBwOV7rip8UghEBPV5e5EFqYmcFjjhtkZGSQ8SQTkVHRkJeTg56uDpIfp+BWVHSPPEpgbGyEmtpahJz5E4qKYzBeWRkZTzKRk5vHpKurq4MIiwU11YkoLCrC+QuXYGigD3FxcUTfvoOW1lbU1dfjz9Bz4HA4mGEzHeUVFTgbep5re5lZna9TA4AbtyLR0dEB678DB0VFRdj+/SXh8eNUNDY2dQYoLBau37yFiorKXuv60aMEiIqKQkpKEreiopGU/BjGRoZQnTgRN29FIjMrCw2NjQgLvwZxcTGYm01GbV0dnj2rEnQInwuHw8GfoeeRkJgE38WLMH+eV6+BffCp09DX033ut+XU1NYCAMTFxVFbW4fExCRoamhAT08Pefn5uBkZyZW+ez31rHdCCO4/+AujRo2CpYU5qqqqcf7iJQCdt9vPXbgI0kHwppcnFOTlkZaeAbnRckhLz0BkVDQUxyjC0twMScmPERV9m2u79+7ffy1HQ1ksFuTkRqOmphbXrt9ASmoalJXGQUJCAgBQUFiE3Lw8mE02xVhFRSQlP0ZCYpLAPMXExKCpoY6i4qdgs9lob29HYVExdLS1AAB/hp5H8dMSTJ9mDTFRMZz+8ywTjD5KSMRUKyvY2kxHQ2MjqqurwWKx+jxfmpqakJySCgUFedTU1OD6jVvgsDnQ1NBASlo6V/l6O3/45TWQCCG4e/cerKdO4Tpf8vLyYWRogGW+i9HOaUfQqVNoamoCAGhpaUJBXh55+flMejNTUyiOGSPwGYK++k5BxzU1LR3Rt+9AXl4e+nq6SEp+zDU4k5icDDVVVXA4HKaPE6Zv7H5uvq66zvFrEdeZOukt6Llx8xaKiooxx202dHW0UVJaynWHu66uDu3t7dDT1UFhURESk5IF9lE9Ded+aTgrLi6BjrY2c3deX1cXuX/HItnZOdDUUGeOmekkEzwtKUFLC/dvFWVl5yD0/AXm86OERNyMjALwz49Ihl29htN/nsX5i5fR2taG1LQ0XL0WwaxTUVmJoJOnAADV1TUIOfMnjhw7jj+CgplXqEfF3EZ6xhNERkcz+efk5uJE8CmcCD6F03+eRU1NDYDOL/0nQ87g2IkgHP3jBHJycwe66viiI/eD4FZUFKSkJDHD1gbxjxK4liU/TkHx06dYveItnqA9Ly8fhBA0NDTAwEAf7DY2HqekYsyYMbCztWHSNf/doLtuV/WUmtb5YNeCN70watQolJWVIzU1jWuUycXJEaNHy+JRQiIUFRXh7OiAjCeZKCouRlVVFXR1tAEAo2Vl4ezkiLz8AuTlF8DAQB8zbG3Q2NSE+IePUFtbi8KiIrS3t8PB3g7GRoaob2jAo4REVHZ78HiqlRXMJpuirKwMqWnpaGxshPUUK8Tdu4+xiorMHYBZM51hazMNMjIykJGRwc1bkSivqICS0ji++2ozfRqzbuj5ixirqAi32bPQ1NSEzKyfkZKaBgUFBRBCIDNqFPR1dTHDZjpkBmF+5+Wwq3hW9Qwrlvv1eruwe2D/PO+53/XdHq7PxkaGUFCQx9urV2K0rCwIIcjOyUF5RQVXuu71NG7sWJ56X7pkEcTExCAmJobq6hpkZWejvqEB7Zx2NDY2wcLcHPp6eqiqqsatqGhU11QjLT0DADD3DQ/IyIxCdm4uUtJSMWumM7PdhfPnY+LE1/N1hW/MccelK1fx8FECHj5KAIvFgpOjA2ymWcPQQB+qE1UgKyuL0rIyHDl2nKfO+dHV0UFWdg7yCwohLi4ONpsNXR0dVFRWovLZM1hamMNuhi3GjlXEuQuXkPHkCUpKSwEAtjbTwWKxcPtOLMrKO7fV1/kiIiKCde+9A3FxcSQmJwMA7GbYYpr1VKSlp+P8xctM2dLSM/ieP/p6ejx5DaSOjg40t7RAWYn7h5RaWlqhoKAAWVlZLFu6BEEnQ3Di5CksW7IYMjIykJKSQhu7jUnPYrGgpDQOlVW9v/Cgr75T0HFNz+hs7/PnzYWMjAwszM2grqaG+IePAADTp1nDwswMrW2tSM94gsbGRjzJzOyzb+x+br6uHOxm4NmzKmRl5yArOwcAoK+nB+/583jSlpSUYsL48TAxNsaYMWPwOCUVZeXl0FDvnJooKyuLWS7OqKru7GOqqjq/yPbWR/U03Pul4Wr8eGU8ycyCibERREVF8SQzk/kl5dq6Op5nMmRkRqGuvr5fz36xWCx4zHED0Hl35+7dONjNsEVkVAza29shKiqK5McpmPT3nenzly7BbdYsTJyogsbGRgSdDIH/Ml84OdijoaEBujo6MDI0QH19PWLv3oPvYh+IiYmh+OlTXLh8BW/5LUNiUjJ0dbVhPWUKmps7X6jxMtDgfoDVNzQg+XEKtDQ1EXs3Dk9LSgB0BvWjZUcjNu4e5OXlkZqWhobGRgBAQVERsnNy0dzcDACwsrLEtKlTUFVVhV8PHUZBQSFXcC8p0TnC09tPiHd1eF2jjJKSkmhta0Nr2z8XQhERFkRERMBisZhvyl23nrs/9Mn6e5nY38t40nLa0dDQuR/nL17iGk2prf2nEXel7/o/h9MOCQneG0d5efmIvnMH1dU1zP4JeoB59OjRTJlbWlrQ0tLCFQDX1tZBadw4mBgbITUtHQWFZyAqKtrrg8rPK+7efeTk5uEt/2WDFtgDYG5DS0tLY7KpKVRVJ4LD4eBO7F3k5OahpbkZbWw2pHr8mnJXPfUm+XEKHiUmoaGhgfnS2dHeASlpKbBYLJSWlqK5uRlPS0ogIiICeTk5NPzdzvb99DNXXt3b5ejRvPNsXxeaGhp4f+27ePasChWVFQiPuIGo6BhYWVigqakRETduobSsFG1tfbfTLnq6OgiPAAoKCyEhLg4WiwVdHW08LekM4B8lJHKNBtfW1WHUqM4pJoVFRRATEwObzWZGz/s6X6SkpJhAtusXubu+2IqK/tP9Czp/+OU1kERFRTHNeiqib9+Bvp4u00cojRuLwr9HymRlZLDMd/HfAX4Ili1ZBGdHB4h3e6tLRWUlUlLTsGSRT6/b6qvvrKmp6fW4dvVzXb9U3nPapLhYZ1m66ogjZN/Y17n5OpCTk8Nb/stQX1+PispniLlzB5lZWcjNy+PZv1GjRqG6uhr19fXM8VWQV2CWM9cYkb+vFe2d/VFvfVRPw71fGq6sp1ihsbERx44HQUZGBoqKY6CiMrAvL+h+bdbW0sTV8Ag4OzlCQ0MdWdk5MNDXw5MnmVi1YjnqGxrQ0tzCfAmUkZGBsrIyCgqLeKbPFRQWoa6uDn+e++euXEtzCwghUFWdiJuRUeCwOVCZMAGaAl6cMZBocD/AOOzOTicvP5/rlnFKahoMDQzAYbNR39CA2Lh7zLKiomLkjs9j3sLRdYuy605lz9u1XQ0+OzsHjvZ2kJSURGJyMjIynsDNdTZG//3gUltbG8TExNDa2gpJSUlI/h3sD7Sub9QuTo7Q0up8IxCHw8G4sWOZW1P8cQe3hBCEXrjYeSFfshjZOTmIirndy7rcREVFISUpCSlpKSx4cx5TBum/v9U7OTrA2dEBpWXluHI1HHH37g9YcF9fX4/bsXcx9w0PjFVU7DVddnYO9HR1XuiXaX0XL+L5218PHyEhMQnOTo4w1NfH8eC+XhfKve2SklLcuBUJI0MD+Cx4E7eiopGZlQ2gc87sDFsb3Im9i//u/wksFgvOTo6QkpKCrGzncV+6ZDGkpCTRzmmHqJjosHnI80lmFiTExaGlpYmxYxXx4K+HKH7aOaXm2vWbyM3Lg+9iHxACnAw5zazXFTSz2Wyet2uNHj0aykpKKCoqhoSkBFQnTuysy7/PISNDQ9jadI7icjgcyMnJgXR0ID09A0EnQwAAY8cqYrr11H6fL9LS0gCAxr+ntrS3/3PnsK/zZ7BNmzoFyY8fIzziOvO7DxbmZoh/lIAHf8XDeuoUyMrIwM93MU50C/C7Akc2m43LYVehraUp8K1TffWdgo5rV3tvbe3sVzOeZDJ3OHvz/H3j4GCz2WCz2ZCWlh7QH8+rqq5GTk4upk6xwujRo1FYVISSklK0trah53cXRwc7/Bl6Hj/+8isAwEBfH3q6OgLzF9RH9TTc+6XhSlRUFLNcnAF0DjYcPvoH5np6AADkRo9GfnU1V/rGxibI9WhcLNY/cVNfCCHMpdB0kgkeJSRCUkICKioTICkpibZug6HC5KWhoY65b3jwLNPW0oLvIiUUFhXjcWoqEpKSMH+el9B5P68R1dpFWCLMKMDz6ujoENhJjBmjgE0bP2E+33vwF25FRjGvwjTQ12OWlZaW4cgfx5lXYba2tkJaWhp378ahtrYWBYWFAMA8vNhFXk4OJsbGSE1Lw8+//gZ5OTmUV1RAXFwcIiwWTIyNkfEkE2fPX4DcaDlUVFYy890Hg4GBPiKjYxD/KAENjY0oKysDIcAy38UC15OSkgSLxcKzqirEP3wEc7PJYLPZ6CCdt+m7bodnZWcL9UuiJibGePgoAXfj7kFKSgpPMjPh9cYb6OggOHr8BNTVVDFu3Di0tbUN6OsMb9+5C2VlJRgZCv6F1Bnd7r4MpNa/Xw/K4XBQVl4ONpsDDqcdRUXFfNP3rPeuLyTt7Z1zhLvm82dlZ8PQ0ABJSclQVlICIQRycnJgt7WhpaUFJsbGeJKZhaiYGExUUUFObh6MDPQxXll5UPbzZWpubsblK2FobWvDmDFjIPJ3famoTICMzCi0trWCEIK2NjbKy8shIiKCsvJy1NfXQ1FxDHLz8nDuwiWIiPK+OldXVwf37j+AqKgoc0dOSWkclJWUkJ2TA2lpKbS0tKCwqBgrlvshKfkx2BwOJowfDxaLBWVlJZSVV0BTQ6pf50vXtIc7sXdRUVGBwh7to7fzR1HAF9aBIiEhAZ//Z+/Og6M67/zff3pRS619F0ggCSEEAonVxhiwMQhs4xWMl5jESTyx48lMZlKpzNybmfndqlnql1+mJveXuUnmTnyzx1uMDcYGY2zCDsbsmwCBEJJACLTvvai3+4dQG6EFAVrQ0ftV5XLRZ3t6UffnPOf7PGflSr3x1tsKCQlRweKHFB8fr8cefUSbNn+qktJSTcjMlKe9XYGAXw0NjcGAHx0drY2bPpHL5dbzq/oeYHez786+3tfcKZN1rvi8PtywQdHRHYP6Fj2wMHiFtCe3+904kKqqq7Vu/YcqL78YvHprsVgUFxur7OyJyps29Y4HBX68abMuV1Zq3/79ioqKUlVVtUJDQ5U+fpwc165Id9p/4JAiIyMUagtVWFioYqKjVVdf32cbOr/jevqOmnTtN/VqVZWuVlUZ+ntptPh0y581cWKWxqSkSOq44rlz1241NTUHB9Smjh3TrSQnJjpGVdVV8ng8CgkJCf5td7paVa1AICCTyaRTp88EvxMz0tP16ZatOnnqVDBvRUVFKTQ0VJVXrih1bEdZTlV1tZYVLO7W3vTx47q0r6z8oi5duqQHFi7QmaKzSkxI0JTJORqXlqq3rnXSDLZRNaA2ISFelyuv9DjXeH94vV5drqzscZDsQAgNDdVXnn9WSUlJKiw8Jb8/oOWPPhyseb3eY48+rHvnzJHFYlZdfb1SU8fqxec7fugm50zSQw8+oOamjjs55k2bqsW3OR96f0RHRenZZ1bKHhamo8eOq7XNoen5eTftGbJYLFo4/361trTo8NFjslqtWvTAQjkdTm38eJPypk1VSnJysIbzZhYvelAzZ0zXxUsVOnOmSOnj05WUnKSEhHjdM2e2rlZV6eix40pPH9+v+bD7w+l0qvD0aS2cf/+A7O92zJoxXWNSUvTF/gM6U1Skh5cWyOPxqOJyz+H+xtc9PX28JudMUmlZmbbv2KWCxQ8pLCxM5y9cULjdrqSkRFXX1KimtlYlFy5oz+f7tPmzLZoyOUdLlyyWw9Ex6DPcbld29sQhfvaDw2636ysvPKdx49LU2toqp8ul3CmT9cyKpyVJC+ffr6ioKG34eJPMZrNmzpiu6uoatbS0au499yg5OUlXrlzRhMzMbp0B2VlZ8vv9wXp7qaMW9JmVT2v8uDSdOn1GFy9VKG9qriLCw5WW2lF6dbWqSleuXtXxEyf13tp1amhovKW/l9jYGC0tWCyr1aJLFZe7dRr09vczVJKSEvX8c6t09uw5vf3uGl29WqVpU3P1jZe+qpjoaJ0pKtLFSxWaNnWqXvmLb8pqsejtP61RU3OzZs2cqReeXRUsYepLX9+dfb2vuVOm6KEHH1BjU7POFZ/X9Pw8zb33nj6PdbvfjQOpqbFJoaGhWv7oI/r6V1frlZe/qWdXrlB+fp7Kysr169/+Xr//45vaf/CQSsvKVFtbp8orV1R09pw+/mSzzp0rvml7V618WlMmT5bP61N9fYPGpaXphWdX9Ti2KSN9vJqamlVdU6OLlyp08PBh/end9/osa+vrOyo6KkrT8/NUW1enqqpqQ38vGZ27vV0ffPiR7HZ7l8wSFhampQVL9Kf33tcvf/VrHTtxQg8vXdpt+8TEBOVOnqxf//b3eufdNd2mzg6327Xm/XV6/de/VUtLS7DDzWQyKWdStkrLyjUhMzO4/tNPPaFdu/fqd394Q2s/+FAPLy0Ifsekjh2rnbv3aN8X+xUdHa1HHl6qdes/1O//+Kb2fbFfedM6OlgSExK06dNPg/soWLxooF+2HpnqGpr6eRFDio8d2aPLnU6nfvO7PygxKVGLHliocPuXPwQ2W0jwsrUktba1yef98iTA4XRo5649qq2r0ysvf8PwN/BB/5w4Wait23foe9/9qxEzB/+tOF9Soo2bNut73/0rmUymjpuv/fb3MptM+stvvzLczZMk/ffrv9LCBfN77K1ua3P0OC1iX9vcbX7/xzc1bWpucJajzikUn3hsebeAbgRtbW367M9bda74vMaPG6fs7Ikak5KsiIgI+Xw+tbW2qfLqVZ07V6zqmhpFR0XpGy99tV/BfrT5+JPNkqTHlz/a6zrV1TU6duKELpSWdSkVCgkJUVpqqqZMyVHe1KkDUtbS1ubQL3/1a31t9VeUkpysQCCgDzd8rKKzZ/VXr72qaIPdmA13j8/3fSFp8K6gD7X6xr4H5o6qshy73a4Xv/K8Ptn8mf7wxltdluXnTQt+AR48dFhbt+/otv24tDStfuE5gj2CLlVUaEJmpiGDvSQ1N7eovb392tzgMXI4HHK5XMHLmXer6uoabd6yRdXVNVpw/zzdN/feEfseNbc0q+RCqeLiYmUymYJXZBIT7875le9URESEVj79lGrr6nT8+EkVFp7Stuu+j8PCwpSclKhZM2docs4knT1XTLC/A8nJSXp4aYGkjpp8l9sti9mi8HD7Tba8dU6XUx6PRycLT6k1s00+n1f1DfXXxvAwyBUYKKOq5/56LrdbbldHHd+2HTtks9n0+PJHtXX7Dh05ekzLH3m4y2wIYWGhwVkSgE5/fOttZaSna9EDC4e7KaPW9b3w7e0e7dm7V4eOHFXWhAmakJmhPZ/vU3i4XY8sW6b08eO6bYO7n9/vl8frVSAQ6DYTFHrXn557ACMPPfe9CAsNDf5I2Gw2eb0+rf9oo8rKyvTCc88GQwDQF5fT1W3+XQyPc8XF2rJ1u0wmk1Y89WRw8PrU3CnavnOX3nl3jfKmTdWSh4am5hEDx2w2D9psXwBgNKM23N/oTFGRoqKi9LXVLxr2cjcG3rdf+YvhbsKoZzKbtXvPXrVeuzHawgXzu8yQYLfb9dijj2h6Xp4+3fJnvf7r3167YcnILNMBAKAzFL78AAAgAElEQVQvo7Ys53qff7Ff54qLtWrliuAc8QBGhsJTp1VaVqZ5c+f2eifjTn6/X4ePHtXVq1VaVrCE8TMAgBHnZmU5hHsAAABghLhZuOe6NAAAAGAQhHsAAADAIAj3AAAAgEEQ7gEAAACDINwDAAAABkG4BwAAAAyCcA8AAAAYBOEeAAAAMAjCPQAAAGAQhHsAAADAIAj3AAAAgEEQ7gEAAACDINwDAAAABkG4BwAAAAyCcA8AAAAYBOEeAAAAMAjCPQAAAGAQhHsAAADAIAj3AAAAgEEQ7gEAAACDINwDAAAABkG4BwAAAAyCcA8AAAAYBOEeAAAAMAjCPQAAAGAQhHsAAADAIAj3AAAAgEEQ7gEAAACDINwDAAAABkG4BwAAAAyCcA8AAAAYBOEeAAAAMAjCPQAAAGAQ1uFuwFDz+nxyutzyen0KBALD3RwAAAAMI5PJJKvVIntYqKwWy3A3546NqnDv9fnU0upQhD1MURHhw90cAAAA3AXa2z1qaXUoKjJ8xAf8UVWW43S5FWEPk80WMtxNAQAAwF3CZgtRhD1MTpd7uJtyx0ZVuPd6fQR7AAAAdGOzhcjr9Q13M+7YqAr31NgDAACgN0bIiqMq3AMAAABGRrgHAAAADIJwDwAAABgE4R4AAAAwCMI9AAAAYBCEewAAAMAgCPcAAACAQRDuAQAAAIMg3AMAAAAGQbgHAAAADIJwDwAAABgE4R4AAAAwCMI9AAAAYBCEewAAAMAgCPcAAACAQRDuAQAAAIMg3AMAAAAGQbgHAAAADIJwDwAAABgE4R4AAAAwCMI9AAAAYBCEewAAAMAgCPcAAACAQRDuAQAAAIMg3AMAAAAGQbgHAAAADIJwDwAAABgE4R4AAAAwCMI9AAAAYBCEewAAAMAgCPcAAACAQRDuAQAAAIMg3AMAAAAGQbgHAAAADIJwDwAAABgE4R4AAAAwCMI9AAAAYBCEewAAAMAgCPcAAACAQRDuAQAAAIMg3AMAAAAGQbgHAAAADIJwDwAAABgE4R4AAAAwCMI9AAAAYBCEewAAAMAgCPcAAACAQRDuAQAAAIMg3AMAAAAGQbgHAAAADIJwDwAAABgE4R4AAAAwCMI9AAAAYBCEewAAAMAgCPcAAACAQRDuAQAAAIMg3AMAAAAGQbgHAAAADIJwDwAAABgE4R4AAAAwCMI9AAAAYBCEewAAAMAgCPcAAACAQRDuAQAAAIMg3AMAAAAGQbgHAAAADIJwDwAAABgE4R4AAAAwCMI9AAAAYBCEewAAAMAgCPcAAACAQRDuAQAAAIMg3AMAAAAGQbgHAAAADIJwDwAAABgE4R4AAAAwCMI9AAAAYBCEewAAAMAgCPcAAACAQRDuAQAAAIMg3AMAAAAGQbgHAAAADIJwDwAAABgE4R4AAAAwCMI9AAAAYBCEewAAAMAgCPcAAACAQRDuAQAAAIMg3AMAAAAGQbgHAAAADIJwDwAAABgE4R4AAAAwCMI9AAAAYBCEewAAAMAgCPcAAACAQRDuAQAAAIMg3AMAAAAGQbgHAAAADIJwDwAAABgE4R4AAAAwCMI9AAAAYBCEewAAAMAgCPcAAACAQRDuAQAAAIMg3AMAAAAGQbgHAAAADIJwDwAAABgE4R4AAAAwCMI9AAAAYBCEewAAAMAgCPcAAACAQRDuAQAAAIMg3AMAAAAGQbgHAAAADIJwDwAAABgE4R4AAAAwCMI9AAAAYBCEewAAAMAgCPcAAACAQRDuAQAAAIMg3AMAAAAGQbgHAAAADIJwDwAAABgE4R4AAAAwCMI9AAAAYBCEewAAAMAgCPcAAAAY1V577bXhbsKAIdwDAABg1Hrttdf0+uuvD3czBgzhHgAAAKOS0YK9RLgHAADAKGTEYC8R7gEAADDK3BjsqbkHAAAARqCegr2RevAJ9wAAABgVjB7sJclU19AU6O/K8bHRg9mWQVff2DzinwMAAAAGx0jIivWNzX0utw5RO+4aTpd7uJsA4CacLrfsYaHD3Qyg3/jMArhbUJYDAAAAGAThHgAAADAIwj0AAABgEKOu5h4AAGAkampqUmnpBVVWVqqxoUFOp1OBQL/nRTEkk8kku92u2Lg4paamasKELMXExAx3s4YV4R4AAOAu1tTUpCNHDqvk/PnhbspdJxAIyOFwyOFwqPLyZR06eFATs7M1e/acURvyCfe4bQ2NjSoqOquGhgaF2mwaNz5N2ROzZbFYhrtpGERV1VU6e7ZYra2tioyM1OTJk5SSnDLczQIAQyoqOqO9e/aM+h76W1Fy/rwulJRowcKFmjIld7ibM+QI9yOcx+OR2Wwe8kB97Nhx7d67V+Hh4UpJTlFDY6NOnTmjI4nH9eQTjykyMnLQ2+D1emW18hEeSrt379GxEyeUPTFbCfHxqm9o0Jr31mrm9Ol64IGFw908QG63S2fPFqupqUmxsbHKmTxJobYvp6hsbm7pcTu7PUwhISFD1cwuPB6PnC7XLW1jNpsVGRExSC3C3eLYsaM6dPDgcDdjRAoEAtqze7dcLpdmzpw13M0ZUiSjfvp40ye6WFHR5TGL2azw8HClpo5V3rSpSk5KHtI21dbU6r21a2W2WPTiCy8oOjpqSI579Pgx7dq9R/Pvn6d75syRyWSS1NGTv3Hjx9q46RO98NyzwccHUnV1tT7/4gtVVFyWz+dTWFiYJk3K1tx77x0VP3RHjx/ToUNHdO+cOZo5c0a35bv37JXJZNLCBfMH/Nh/3rpVpWXleuH5Z7t81qurq/Xhho1yt7u1tKBgwI87ENZ98IGqqqpvul5KSrKeWbnyto/j9XpVXVOj5KSkIT/xbGtr0/vrPtCYlBQ98vCyIT323aKhoUFrP1gvk8mkxMREnTt/XmfOFun5Z58NrvO7P/yhx21DQkL0xOOPKX38+KFqriSp4nKlPtqwQR6P55a3HZeWpmdWrhiU71oMv6KiMwT7AXDo4EGFhYWNqh58wn0/tXs9and3vwGW0+lUXV2dTp4s1P33z9Pce+4ZsjZduXpV7R6P5PGoqrpqSML9qdNntHv3Xi156CHl5+d1WRYXG6snnnhcb7z5lsrLLyozM2NAj11ZeUXr1q+Xz+dTTEyMYqKjVV1To5MnC3Wh5IKeWblS8fFxA3rMu0kgENCxY8flcDh07PhxzZgxvcuPutPp1OkzZyRJc2bPkt1uH7Bjdwb7Vc+sVHxc19c4OTlZq1au1NoPPtCft269KwN+ZGSkXK724L/bHG1yOBwKDw9XRHhEl/XuxPoPP9LlykqNS0vVqmeekdRx8tOfE4tOKSnJSk6+9Y6CiIgITZ+ep+qqmi6Pny8pUUnJhX7vZ+LELGVPnHjLx7+Rx+ORPxBQqM3W6zoul0tms1m2Pta5FVu3bVdiYqKefPwxWSwW+Xw+uW7oEX/5G9/ocdtdu3erqKhoyMP92bNnlZo6VosXLeq2rLS0TPsPHtRXnn+u27I2h0Pvvb9WDQ2Nhv7eG62ampq0d8+e4W6GYezds0djx6aOmhp8wv1tiI6OUrg9XF6/T40NjfJ6vZKkffu+UOrYsRqXljYk7Zg8OUfV1dWyhFg1ITNz0I9XVlaubdu3a8lDDykvb1qP68TFxip17Fhdrqwc8HC/a88e+Xw+zb9/nu69dhLl8Xi0fccOnSk6q63bt+m5VasG9JiS1NraKpvN1q8A0tjYqOjoaJnNAz/LbHl5uZqbW2S1WtXU3KyLFy8qI+PL1/jQ4SOampsrBQI6fOTogPXe9xXsO8XHx93VAf/hZV17sr84cED79x9Qfn6e5s2dO2DHqa2rlyTV1NYHH7ty5aqOnzzZ733MyM+/rXDfG7PJLOstlO2ZTXf22a2rq9P2HTt1ubJSkpSYlKjFixYpdezY4DoXL17Szt27VF/fIKmjB3ppwZI7+uFtd7t1ubJSzz/3bLBM0WKxKOKGK3q9dYLYw+1qd7f3uGww+f0+RYSH9/jcwyPCZTabe1xmDwvr2N7nG/Q2YugdOXKYGvsBFAgEdOTIYS1evGS4mzIkCPe3YfbMWZoxY7okyel06cOPNqiqukqSdPbcuSEL9zabTQUFQ/NBdblc2vzpp7p/3n29BvtOYWH24AnPQPF6vaqqqlJ4eHgw2Esdl9KXLV2q1LGpmjgAvY038ng8+mjDx0pJSVbBksV9rhsIBLT+ow2akJmpRQ8+MOBtOXaiIyA+vKxAmz75VMdPngyG+85e+5e++lVJ0ptvvzUgvfe9BfvKyis6euyYZs2aGQxtd3vAHwqPPrxMp8+c6TjJumbGjOnB74vB1NTcrIMHD8vv86my8opSUzvel6ysCcrKmjDox5c6ToTfX/eBxo8bpxeee04Wq1knjp/UB+s/1OoXv6K42FhdrarSRxs3anpevpY/8og8Hq++OHhAaz9Yr6+ufrHPnv7+oEQFI11TU1O/ZsWJjIzUuHHjFBkZqUAgoLa2Nl28eFEOh2MIWjk4YmNjZbFYVFdXN+D7Ljl/ftTMoMNNrO6Q3R7WpTxlKHt+LldWqujsOTmdtzYQ63acLiqSLTRUc2bP7nO9QCCgquoqJSYkDOjxfX6/JMncww+3yWRSXt402e1hA3pMqeMyv8vt0vz77w8+1trWpsNHj2r37j06faYoeCJjMpm0tGCJTpw8qTNFZwe0HU1NzSovL1fq2LGalD1JY1JSVFZWHhwceOjwEU3LzVV4uF3h4XblTsnV4cNH7uiYffXYO5wOnS8p6fYj0hnwS8vKtXXrtjs6/u1qd7vV3NLS5b+eSuoGQ2Zmhh5b/uiAX7Xqj5joaH37lW/pL1/7djDYD7XjJ04qOipayx99RGPGpCgpMUkFBUs0JiVZR44elSQdPHRYOZOy9eCDC5WYmKixY8foycceU8DvV9GZots+ti00VGmpqTpw8JD8174v/H7/iAg6Ho+322e2uaVFTodTgYC/x2UtLa3D3WwMktLSm5fRhYeHKzc3V9HR0WpqalJzc7MiIyODn/2RKj09XfHx8YO2//68tkZAz/0AaG35cvaF5JShG1S7Y9cu1dbU6pVv/cWgH6u2pkbZEyfKZDLJ5XKpqOisauvrZLPaNH58mjIzM2UymXTo8GF5vV5lT8oe0OOH2myKjY1RY2OTLlVUaPy4cQO6/54cOXpUJRcu6LlnnwmeOFRcrtTGjRsVERmh2Ng4nTlbpIqKS8Gyj3FpaVq4cL62bd+uhIS4ARtkfbKwUJI0bVrHVZNpedN0dWuVCk+d0vz75+mBhQu6rH/jv2/V8eMnVFxyQS8892yPpTgWc0fZQ0/lHvHxcVr1zEqtWfOeEhMTh6TX+npHjh/X/v0Hujx2331zB7T8Bj1raGhQatrYbr3nE7KydKaoI7g3NjRo9qyuM1dYrVZlZKTralWVug8T778lixdr3Qcf6I9vvKmkpCTV1NQoMjJSz6565g72OviKz59XcR89tb/7fc+DgGFMlddK2voybtw4mc1mlZSUqLa2VlLHDEqd4T4hIUFpaWkKDQ2Vy+VSRUWFGho6yuDy8/Plcrnk8XgUHx8vn8+ny5cvy263KykpSYFAQJcuXVJtba2sVqvmzJmjy5cvKyIiQlFRUXK5XCovL9eYMWMUExOj9vZ2lZSUqK2tTZKUlJSk1NRU2Ww2tbW1qaysTA6HQ/Hx8Zo0aZJKSko0ZswYhYWFqbW1VSUlJfJ4PMrJyZHdbpfdbtd9992ny5cvq6KiQpGRkcrIyFB4eLjcbrcqKipUX18fbFtpaakiIyOVmJiokydPyul09vnajoaZcwj3t6GltVXV1dXyBwKqrKzUgUOHJEl2u115U6cOSRt8Pp/q6+oVER6uiPDwQT/epOxsZWRkqKysXJs//VQ2m01jx6bK6XSp/YJbGRkZKiw8pf0HDurJJx6/40vrPXl21Sq1u91DMl3dxUsV2rP3cz28bFkwoAcCAX362WeaPGVycPBbe3u7dENd5KwZM1VdVa2NH3+iF1944Y6vKHi9Xp06fVqhNpsmZXeUHk2eNEm7d+9R4alC3Tf33gGdCjUQCOjgoUNaMG9erzX2FmvH8cyWnr9C4uPiNP/++3Xg4EFNn54/pKUSs2fM0NTcXG3btl2RkRGaO3euwgbh89iT4Zwtp7W1VR9u2CiX06lHHnl4yMoDrxcTHa2rVVXdHg+xWOX3dtSGR0VH68rVK5o2ret3pcVqVXt77z/K/REfH6eXvvZVnTpzRg0NDcrLm6bpeXk333CYTcrO1sIeTshLL5Rq/8ED+soLL3Rb5nG368133hmK5mGINV4L4X2Jjo6W1+sNBntJwWAfERGh7Oxsud1u1dTUKC4uTpMmTeoSfOPj4+VwONTQ0KDk5GRNnDhRTqdT9fX1Sk5O1oQJE7qUxqSlpamhoUHNzc2Ki4vT1KlT1dTUpMbGRiUkJGj8+PEqKipSVFSUsrKy1NraqsrKSqWlpSknJ0cnTpwI7isrK0s1NTXByTFSU1NVXl6ulpYWxcXFyeFwqKqqSm1tbbJarZo8ebL8fr/Ky8uVkJCg7OxsnTx5MjjDVHp6uqSOGcNuVhLcn9fWCAj3t+HwkSM6fKR7ycOygiUKDQ3tYYuBV1tXK7/fr6QBHHjXlwkTJqjkQok+2fyZ5t03V3Nmz+4S2AoLT2nn7t1a/ujDyrj2h3Ynqmuqu836cTuSU5Juuffc6XTqk82bNXPGDE2ZnBN8vKa2Rq2trbr/vvuCj/U2yLZgyRK99/46bf70U61c8fTtNf6ac8Xn5XK5lJ+fFzyxCQkJUU7OJBUWntL5kvOanDP5jo5xvebmZrU5HMrI6P19tF4L9VZr7ycVGRnp2r5zp5qbWxQTEz1g7bsZW2iobKGhslqtsoWEKjpqaKaIlYZ3tpzQ0FAtWfyQDh8+qvq6+mC4L7lwQRcu9P9SdFZWliZmZd3y8aWOHsGTp07psy1bNO++ecHBq42NjYqM7BjYOnvmTH3w4YeKiozS9OnTgye/jU1NSoi788vxoaGhmj1z5h3vZyiFhFh7/Jzaw+0ymcw9Lmu3DU2pGYZeXz3PUkcJqMVi6XW9xMRESdKFCxfU3NyslpYWZWdnKzExUZcuXQquV1xcLJfLpYiICEVERAR738PCwhQTEyObzSbftQHbbrdb586dk8Vi0T333COv16uzZzvKT+Pi4hR2bYB357EvXbqk1tZWWa1WpaenK/y6Tsi6ujqVlpYqNDRUM2fODG5bX1+v9PR0uVwuVVd3fGcmJCTIarXq8uXLqq2tlcPh0LRp0xQbG6uamo6M4Pf7derUKbn7UX55s9fWKAj3A2jT5k81f/48zZox+D8sncE3JSlp0I8lKRjsH3rwwS4DagOBgA4fOaIv9h/Q8kcf1sSsgRnUevVKlY5fd6Z/o4A6QqjvupkiYmNju9Xkz5g+/ZbDfW8TFNxW7/MAdFifuDbTSv4NA5nz86apsPCUTpwoHNBw38nr6b0HpDPU9xXub2fe7pFuOGfLCQQC2rFzl9LGpnbpFTfJdEsz4Jju4EMbGxujp596Un/eulXvvPuuXnv1Ffn9fhWfPx+8L0N6+ng98vAy7dq9W5VXKrVyxQo5HE5VXKrQnFl9j+kB0PG37vf7e7062Nnp1Bl2O/9//VXvQCAQnCb2+gAvqcs4sk6dy3w+nwKBgNrb24Oz+fh8vuC6nW3Kze06p/z1HWGdx+08Tl+zy3W2OS0tTWnXXY28viPV6XT2K9iPJoT72zBjxnRlTeiYfcLv8+nq1SodOXZMHo9Hu3btUXRU9G33fPVXVU3HWW1S8uCH+4vlF/XJ5s+06IEHNHVqrj79bIs8Ho9CQqyqrLwit9utJx57TJmZGV1m6bgT06fna/r0/D7XaXe7dfZcsfZ+vk/udrfSUscOyAwt4eF2LX/0Ea3/8CMlJydpyuSO4JyYkKioqCh9ceCAHnrwwY42XCvLsd1wxWbb9u1yOh1a8fSTd9SW6ppqVVVVKTkpWUmJXd/rzscqr1xRbW1tsMfkTkVHRysiPFxni4s1P7HngdGdNfed/+/J2XPFiggPH7Kbq90NhnO2nAulpaqtrZXH41F4ZLjuuTb4fShny5GktNRUff1rX1PztbFIh48cUbvHq2nXlSxOmTxZk7Kz5bjWi7Z7zx4lxCdo/Lg7KyUquXaFYrC/fwda54DaG10/oLbbNsMwbSeGht1uv+lA8NbWVkVHRysuLi5YS9+ps2MlNDRUbrc7GIRvFoD7mnrzxmW9rdsZ2C9cuNCll9ztdivq2hWoW5nis/O5VFVVdSlBur7z6Fb2N5D3f7mbEe5vQ1xMbJcbnWRmZioiIkLbduyQJJ04cXLQf1w6e+6TB7nnvt3t1qZPP9N9c+9Vfn6eAoGAJmVP1MWKCnk9Hs2YOUNTp0xRWFiY9uz9XE1NTUM2U4ctNFT5+XnKnJCpNWve06nTZ5Sfl6eUlJQ73nf6+PFauGC+tm7brvj4joGxJpNJDy9bqg0bNqqi4rLiYmNVeaVSmRkZWrZ0aXDbo8ePqfh8iZ5b9cwdf5GcuDb9ZVNTk954861uy9vaOn4AThQWaslDD93RsTqZTCbde8892rl7t8aOSdGECd2DYUJigr7z2muy2Xoe/3DhQqkOHzmiRQ88MKqmJszMzBiWmXKkjsDceSI63Ewmk2Kio3XxUoW+2H9Ay5YWdCtZtFgsioqM7Bi8ff68nn921R1/Vi6M0HDPgFpcL/Za3XlfKisrFR0drezsbDU0NCgQCCgiIkLFxcWqra1VSkqKsrKy1NjYqLi4OAUCgUGZXvJGtbW1Sk5O1pgxY1RTUyOTyaTw8HCVlJTcdFuv16tAIKCYmBhlZGSora1NjY2NwYG/7e3t8vv9Cg8P15UrV7pcue+v2F7GkRkN4X6AJFzXw9nU1DSox/L5fKqrr1NYWFjwTHiwnD1XrJAQq+6ZM0dSx492VlaWsm748QwEAjp37pwmD3K4CAQC3QJAVGSk8vKm6Yv9B1R55cqAhHtJmj1rlqqra7oMjB2XlqaXvvZVnT5zRi2trbrv3rldSiAqLl/Wnj2fq2DJkju+EZHb7dLZc8XB59sZ5G9kMpl0tuisFsyfP2ADmWfMmK6a2hp9/MlmPb780W4Bv6m5WSdPnNT0GdO71QNfuFCqTZs3a1pu7pDPlIO7x+XKSn388ceaPXNmrycdp88Uaefu3R0D14do/NDdiAG1uF5qaqoqL1/uc52mpiYVFxcrNTU1GN47B5Q6nU6dP39eaWlpSkpKksvlUmlpabe7NQ+GlpYWnT9/XqmpqUpPT5fP5+t3JvL5fKqoqNCYMWOUlJSk9vZ2eb1eFRUVKSMjQ2lpaQoEAnI6nbc95WdqauptbTfSEO4HgN/v15Ejx4L/vtNb2N9MXV2d/H6/koegJKe2vk4pySk37VE7dPiwWtvaNGXK4IT7i5cuae/efRo3Lq3HaR7dro5L1NZeZm+5XQVLFmvN2rX6fN++4E2sIiMjNffee7utGwgEtHXbNuXlTdPU3Cl3fOxT1+bQz5s6tc+blf1561adOn1GZ4vO3rSU6VZ0ljj1FPBPnz6jw0ePymoL6TLFZGewnzI5Z8husNabJx5/bMiPOZyz5bS0tuqjjRvldDj18LKlXa4uDrXyixf18aZPNHVqrhb0cqfkwsJT2rZjhxYvWtRl4PpoxIBaXG/ChCwdOnjwpuvV19ervr6+x2V1dXW99tSfvGEM0JkzZ7r8+/z58zp/3ZWk/fv3d1l+4EDXqYaP3DDBSG/Hrq+v77Ivn8/Xbd+VlZXdpgJ1OBzd2thb225mwoSRdVXvdhHub0Ph6dO6WFEhSQoE/KqrretSE9k5F/lgqW9olCQlxA3sjaJ6EmKxyu3u+2y/sPCUPt/3hRYumK+EQbr5hN0eptq6WtXW1SomOrpLiL1UUaHC06dkNpuVMcAlESEhIXr6iSd6nRXneiaTSU8/+dSA1Zh3fgHnT+97Kr/p+fk6dfqMTpw8OaDhXuoI+CaZugX8GdOny2YL0dTcL69aXB/sR+PdaaXhnS0nKjJS8++bpy8OHJD/usvVQzlbjtRRyvfJJ59qRn5+r8G+vr5B23fuVMGSJZo2NbfHdYDRKiYmRhOzs/t1l1r038Ts7FFxd1qJcH9bamtruwzsuN7U3CnKHaTe604mU8fgkeKS88rIGK+MjMGr8U1NTdWRY8fU2Nio2NjYbstPnizUth07NG/u3JvevfZOJCUmaWlBgf68dau279ypEydPKj4+Xs0tLaq6Nq/2gw8uHJRpD2/lSkxs7MB8cVwsv6jGxialJKfcdLaf5OSOMFhdXa3LlZVKG+DLjp098NcH/PBwe5f3m2DfYThny/H5fLKF2hQVGamq6mplZmZKGtrZcqSOsTAvvviCYqJ7n/40Pj5OX3/pa32uczvMFouaGpuC0+jdipaWliG5Z8iNzGaLWttab3lAreNamZ55AO9xgbvH7NlzdKGk5JYGi6J3JpNJs2fPGe5mDBnC/QAItdmUkpKiadOmKmfSpEE/XtaELCUlJqmmtkaem9yw4U5NmJCp5KRkbdj4sZ544nHFXQv4gUBAhw4f1uf7vtC8uXN1332Df/fP3CmTlZAQp8/37delS5dUd+1yZHJysubNvbfHgZ8j1fHCa732+f27Ac/0/Hz9eetWnThxcsDDvdQR8AOmjoC/+KGHuvS2njp9Rtt37Bj1wV4a3tly6hvqtWPnLrW73cq77urhUM+WI6lfoX2gg70k5U2bqg8/2qB33l1zy9uGhYXpqSefGPA23UxOziR9tGFjn4Nme1uWlpqquLjunS4Y+WJiYrRg4ULt2b17uJtiCAsWLhw1vfaSZKpraOr3aWF87NDdiGYw1Dc2yx52ezeZ8vv9PQ7gMJvNfc7ROlj8fn+wl3awj9/a2qqPNnys2rpapaWOVWioXVXVVXI4HFq4YL5mDcMNY7xer5wul0Jttn6VzIw0NbU1CgQCSqPoTf0AACAASURBVIhP6NfdZzsHWZtlVmLSwEyJ2ZM9e/bq8NGjioqKUlxsrBoaG9XS0qLZM2fqgQcWDthxnC73bf+t9ofL5ZLT6ZTdbg/eQAXG0d5+6/dY6G3mp/66k89se7tHrpuUP97IbDIN+vguDL9jx472q/4evbvn3ns1c+asfq/vdLnv+rxb39jc53LCPfrF5/PpXPF5VVRcktvtUVxcrHJzpyh+lEwrhS9VVVfpbFGxWttaFRkRqcmTJw3YDEWdBjvcAwONzywGS1HRGe3ds4cSnVtkMpm0YOFCTZlya+N6CPcjDOEeGBkIShhp+MxiMDU1NenIkcMMsu2nidnZmj17zm2V4hgh3FNzDwAAcBeLiYnR4sVLNHv2HJWWXlBlZaUaGxrkdDpHfY++yWSS3W5XbFycUlNTNWFC1qiqr+/JqAv3JpM0yv8OAADACBQTE6OZM2fdUg05+s8oN1Qf+pGgw8hkMg3L4FcAAADc3cxm801v2jkSjKqka7VaFPAHZDbAGwcAAICBYTaZFPAHZLWO/HtHjKpwbw8LlcPVcctui8VsmMsvAAAAuHUmU0cmlCSHQQbGj6qae6vFoqjIcDldbnm9vlE/CAW4mzmvnYgDIwWfWWBkMplMslo7MqLVAHd9HlXhXroW8COG/hbjAAAAwGAbVWU5AAAAgJER7gEAAACDINwDAAAABkG4BwAAAAyCcA8AAAAYBOEeAAAAMAjCPQAAAGAQhHsAAADAIAj3AAAAgEEQ7gEAAACDINwDAAAABkG4BwAAAAyCcA8AAAAYBOEeAAAAMAjCPQAAAGAQhHsAAADAIAj3AAAAgEEQ7gEAAACDINwDAAAABkG4BwAAAAyCcA8AAAAYBOEeAAAAMAjCPQAAAGAQ1uFuAADJ6/PJ6XLL6/UpEAgMd3OAEcFkMslqtcgeFiqrxTLczQGAuwLhHhhmXp9PLa0OhYeFKjLcLpPJNNxNAkaEQCCg9naPWlodiooMJ+ADgCjLAYad0+VWeFioQkNtBHvgFphMJoWG2hQeFiqnyz3czQGAuwLhHhhmXq9PNlvIcDcDGLFsthB5vb7hbgYA3BUI98AwCwQC9NgDd8BkMjFWBQCuIdwDAAAABsGAWmCEaW9vV1VVldra2mSz2ZSamqqwsLDhbhYAALgLEO6BEaKtrU379u3T8ePH5fN9WV9sNpuVnZ2tgoICRUVFDWMLAQDAcCPcAyNAXV2d1qxZo5aWFo0dO1a5ubmKiYmRw+FQaWmpiouLVVZWpueee05paWnD3VwAADBMCPfAHXI43ZICCrcPTmmMx+PRe++9J4fDoccee0x5eXldls+YMUNXrlzR+vXrtXbtWn39619XbGzsoLQFAADc3RhQC9zlPv/8czU3N2vx4sXdgn2nsWPH6plnnpHH49HevXuHuIUAAOBuQbjvxScnG/Tgj09qb3HzcDdlyPz44wot+0mh6lq9WnOwVnP/7bg+OdkgSfrh+2Wa+2/HVd3sGeZWjj6nTp1SbGysZs+e3ed6KSkpys3N1enTp9Xe3j5ErQMAAHeTUVOWU1Lt0ouvn+1x2Zuv5ihnjL3LY7UtHrk8ftW03FmY3XqmSf/wflnw32aTSZPH2PU/nhynSSn23je8zeNkJobqT385ReZr06b//M9X9Ma+ai2bFqv/+UxGn/u42tyuJqdPbW5uBnO3aGxsVGtrq+bMmdOv9SdNmqTCwkJduXJFGRl9v9/XO3DggDZu3KioqCiZTCb5/X4tWLBACxYsuK12l5WV6bPPPtO3v/3t29r+ZrZu3SpJKigoGJT9+/1+/fM//7P+9V//dVD2P1LU1dWppqZGU6ZM6XM9j8ejH//4x/rhD3+okBBuyAYAw2nUhHu7zawZ4yMkSacuOxSQlJcWHlx2o9XzkrRwUrQykwamjnpcnE3j4kPV6vKp8LJD/7C2XO//Vd8/mLejrNatbWcatXRqrFpcPq09XNvvbf/nMxlqdPiUFmfTFxdaBrxtuHWdPfARERH9Wr9zPZfLdcvHmjZtml544QVJktPp1H/8x39o6tSpiouLu+V9wRgqKipUWlp603AfEhKi73//+wR7ALgLjJpwnxpr06++mS1JevR/n5LPHwj+u6Tapbn/dlyP5MWptsWjiclhSk8I1U82X9a/rEjX8vw4Xap368ebKnTqskMJkSH64WPjdO+EyOAVgeu3/btHu89Wsjw/Tq8uGiNJevX353X8Upuqmz06XN6q/2/nVdW0eJQeH6rvP5ymeydESpKW/aRQUWEWPTg5RkfKW/WHV3K0+vWzCrGY9MdXcnp9rr/dU6WCqbF690CtHO3+LssCkt78vFrvH65TY5tXS6fF6v9cPk42q0n/tuGStp1p0sbvTb3p67mvpEU/31qpS3Xtyk21619WpGtsjE2/2nlVv9pVpf9ndZbunxil7/+pVHuLm/XZD6aprtXb7bX6waNpvban8LJDP95UobIal1JibPrGgmQ9NTO+X++3JFVVV8vt7rk8JTTUppTk5H7va7iEh3ecgLa2tvZr/c71QkND7+i4drtdcXFxqqurU1xcnIqKirRjxw5Jks1m09NPP62EhAQ5nU6tX79e1dXVcjqdWrRoke6//35JHXfeXbNmjcrLyxUTE6OXXnpJdrtdbrdbH330kerq6uTz+ZSfn68HH3xQkvSP//iPKigo0P79+/Xyyy8rNja21/03NzfrV7/6lWpra5Wbm6sVK1ZIkmpqarRx40a53W4FAgEVFBQoJydHZWVl2rx5syIiInT16lX9/d//fZfnfPz4cW3ZskVWq7VbCVRvz7+pqUlr1qwJHmvZsmXdgvDVq1f10UcfBd+bFStWKCsrS3V1dVq/fr1aW1tltVq1fPlyZWVlBV+HRx55RGVlZWptbVVBQYEKCwvV1NQkk8mkl156SSEhIdq6dauqq6tlsVhUX1+vsWPHKjU1VcXFxaqpqVFBQUFwnEZvz2Hr1q2qq6uTJNXW1io1NVUrVqxQYWGhNm3aFLyvwmuvvabS0lJt3LhRgUBAFotFTz/9tMaNGydJ+tGPfqQf/ehHPb6PVqtVSUlJt/lpBADcilET7vtjT3GzosIsmp/dda5wf0D6uzVlutrYrpfmJ2vrmUZ9/50L+ui6ENzbtjdqc/vU5PRKkkJDTHr7ixrFhVu1KCdG7x+q1T+tK9enP5ima1U1qm/zatOJBs3JjJTHG9ClerdMMskfCMhsMnXb/5yMSB0ub9VnhY1690CN8tLCVXjZEVz+51ON+vnWK7ovK0qLp8To7S9qFBlq0fcfTu3361TV7NHfvVuqsbE2vbwwWW/uq9HfrynTm6/2fsJxvetfq77a868fXVJti0er7knUobJWHb3Ydkvh/tDhIzpZeKrHZffMma2UJXd/uI+MjFR0dLSKi4tVUFAgUw/v+fXOnj0ri8Wi1NT+v589aW1tVUNDg5KTk9XU1KRt27bp1VdfVUhIiMrLy/XOO+/ou9/9rj755BOlpaXpxRdfVHt7uz799NPgHPwNDQ16+eWXZbPZtHbtWu3bt09LlizR5s2blZOToxkzZigQCOh3v/udxowZo5ycHPn9/uCc/ZK0bt26XvfvcDj0yiuvyOfz6Wc/+5nKy8uVkZGhd999V6tXr1Z8fLycTqd+9rOf6W/+5m+CbVq9erWio6O7PN+mpiZt2rRJf/3Xf63o6GiVl5d3Wdbb8z9w4ICmTJmiBx54QA6HQ/X19V32GwgE9Pbbb+vZZ59Venq6qqqqVFRUpKysLL311ltasWKF0tPT1dLSotdff13f+c53FBERIb/fr5kzZ2rRokU6ePCgNmzYoB/84Acym81au3atjh49qrlz50rqCOqrVq2S3+/Xv//7vys9PV2rV69Wc3Ozfv7znysvL6/P5yBJFotFq1atkiT94he/UHl5ufLy8uRyuVRRURE8cbLZbPrWt76l8PBwXbp0SRs2bNB3vvOdbp+fG9/HX/ziF8FjAQAGF+H+OvnjwvWz1R09Z2sOflnOcqHapdIal56Zk6BXHkxRZmKo/nFtubadadSs9Mhu2/bkV7uq9KtdVcF/35cVpRi7Vf/vSxMVajXLZjXpUoNbu881q7bFo6SojsvbFrNJH/1trsJCOkqHfvn1bFnNph6DvSQtmxarysZ2/dtHF9XuC+j/Wpiiv3u3NLh8y+lGSdK/rEhXfIRVn59v0eaTDbcU7ncUNcnjC+i1RWO0bFqsalo8Wnu4TqU1/SsFuf61+j/eK+u1PQ1tnmA51fP3JmpMzK1d8n98+aOS1C3g5+dN09Ili29pX8Np9uzZ2rFjhw4cOKD77ruv1/UuX76ss2fPKicnRzab7ZaPc/r0af30pz+V1+uVx+PR008/rejoaB05ckSNjY36wx/+EFzX6XTK7/fr3LlzWrJkiaSO4Pfkk08G14mPjw+2IzMzU2VlZZI6epCvXr2qgwcPBvdVXV2tnJwcmc3mLmMF+tr/mDFjZDKZZLVaNW7cONXX1ys2NlZXr17VunXrguuFhISotrbj7zkhIaFbsJc6xghkZmYGl40fPz64rKSkpNfnn5GRoY0bN8rr9WrcuHHKzs7ust+mpia1t7crPT1dUseg55SUFDU1NcnhcAQfj4qKUmpqqkpLS5WXlyez2ayYmBhJUnJysqKiomQ2m4P/bmxsDB6jc9pTs9mspKSk4HOIjo6W2+2W3+/v8zlcv4/ONtbX1/c4ZsNsNuvDDz9UIBBQe3u7mpt7nnDg+vexqalJV69e7XE9AMDAI9xfJzm65/BY09oxqHbd4TqtO1wXfPxKo0ez0vvetlNqrE1pcTZZzB0Dar+5oKPXeMPxen1wuE41LR65vQFJktcXCG4XY7cEg7305TiB3ljMJn1zYbL+18cVmjshSrPSu9Zq114bIPzo/+4aeF2eruU7fekcZPxP68r1T+u+7OGsbOrfDC3Xv1Z9tefVRWP0088q9cNrA5KfnhWvf3pivG7FjQE/P29a8LGRYtasWSosLNSuXbtksVh0zz33dFunvLxcGzZskN/vD5a43KqpU6fqhRdeUGNjo37xi19o4sSJwWUTJ04M1uPfDpPJpECg43MdCAT03HPPKT6+/1dhbsZsNisQCCgQCCg8PFyvvPJKt3U6Ty5uR2/PPycnR6+++qrKysp05MgRffHFF3rppZdu+zg96elqTedreSv6+x5e/17d6K233tLq1auVmpqqpqYm/fKXv7zp/jrfEwDA0GAqzH5IjOw4B1o6NVZvvpqjN1/N0W9eztZX7kvs9z4enx6n//raRP1sdZb+eslYRYRadKrSof/8rFLZKXb94ZUcLbhJSY8knbniUHGVs891npwZr7GxNv3l4jHdliVEdgTr/35pot58NUe//YtJeuPVHNmsfZd7XC/x2lWFv1k6tsvrMWN8hEKsHR+pzlp/901OGvpqT0FurDZ+b6r+62sTlZcWrg+P1qu29dZnL3p8+aPKz5s2IoO91NHz/Nxzzyk2Nlbbtm3Tb37zG+3du1eFhYU6cOCA3n33Xb377rvBQbRbtmyR1+u97ePFxsZq3rx5+vjjjyVJWVlZOn/+vBoaOqZFPX/+vD777DNJHeH25MmTkiSv16sPPvjgptNwTp48WZ9//rmkjvKNt99+u9ce4Fvdf0xMjEJDQ3X69GlJHXX5b7zxxk2fc0ZGhsrKyoLtuHTpUnBZX8//+PHjamtrU35+vpYvX64rV650a09ISIgqKiokSfX19frkk08UExMju92uixcvSpJaWlp0+fJlZWZm3rStt6Ov53Ar3G63IiM7rlZWV1f3a5vO9wQAMDToue+Hicl2ZaeEaU9xs2LsFjW7fDp2sU2//9akO9pvq6ujdtjrC6iquV2VjR2hZXdxs56/t/uJQ7s3oG//vkSStPOHeb2W5ljNJv3fz09QdkqYWlxdp7V8ND9OO8826b+2XVFeWrj2lbRoSW6sJt8wFWhkqEWStL2oSQuyo4P//vBonZ6alaBfbK3UewfrVNfiVdFVp/yBgH759WxlJHT8iP9y+xXtKGrSqevq/XvSW3smJIbpO2+cl9Vi0rysKNW2ehURalG0/fY+siMx1F8vKipKL7/8svbt26cTJ050uVGV1WrVlClT9OCDD+r48ePav3+/1q1bp2eeeUZW6+29Xg899JB+8pOfBMtVVq5cqT/+8Y+SOgbbdtZnL1++XOvWrdN//ud/yuVyaf78+TctCVq+fLnWr1+vn/70p5I6rkz0VCpzO/vvHGz6wQcfaMuWLTKbzVq2bNlNn29sbKwee+wxvf7667LZbF0G1MbGxvb6/FNSUvTee+/J5/PJYrHoiSee6Naer371q1q/fr0cDocCgYCeeuopSdLq1auDj1ssFq1cuTIYnAdaX8+hL6mpqdqyZYtaWlr00ksv6cknn9Q777yjpKQkjRkzRjExMdq1a1efV4s63xMAwNAw1TU09fv6bnxszz/AI03nbDlb/q5jFonOGW+emhWv/3Gt7GPNwdous+VUNrbr3zdV6PilNtltZj02PV7fWTxG5bXubtter3P++VcfTAnOltPJ5w/on9aVa29xizISQ/W3S8fqH9eWa2pqR01652w5676bK6ljppsXf3lWVoup2+DVzuP80xPj9fSsL8sdWlw+FfxHYZd57v90oFbvHqhRTYtHuWPD9b1lqcpLC9cP3y8LzpZjt5n1t29d0JkrDr33V1PU7PLph++VKSBp4/em6mBpq37250qV1ro0Nsamby5I1uMz4uX1B/QP75dr/4UWLZwULUe7T5+fb+kyW86Nr1Vv7fnsVKP+e/sV1TR7lJ4Yqu8v+3ImobuJw+mWFFC4/famTa1vbL6lv61AIKDa2lq1trYqLCxMCQkJXQLvzp07tX//fmVmZt5RwAdGklv9OwKAkaq+se8brI7KcA8MpKEO9/3RGfDvueee4IBUwMgI9wBGi5uFe7r0AANatGiRwsPDNW3atOFuCgAAGEKEe8Cg7r333uFuAgAAGGKEe+AOhYRYOgZEAAAADDPCPXCHQhiwCgAA7hLMcw8AAAAYBOEeAAAAMAjCPTDMTCaTAgGK9oHbFQgEZOrlpn4AMNoQ7oFhZrVa1N7uGe5mACNWe7tHVqtluJsBAHcFwj0wzOxhoXK43HK72+nBB25BIBCQ290uh8ste1jocDcHAO4KTPMBDDOrxaKoyHA5XW45XG4CPtBPJpNJVmvH34/VQs89AEiEe+CuYLVYFBURPtzNAAAAIxxlOQAAAIBBEO4BAAAAgyDcAwAAAAYxqmru6xubh7sJAAAAGEbxsdHD3YRBNarCvdHfTAAAAIxulOUAAAAABkG4BwAAAAyCcA8AAAAYBOEeAAAAMAjCPQAAAGAQhHsAAADAIAj3AAAAgEEQ7gEAAACDINwDAAAABkG4BwAAAAyCcA8AAAAYBOEeAAAAMAjCPQAAAGAQhHsAAADAIAj3AAAAgEEQ7gEAAACDINwDAAAABkG4BwAAAAyCcA8AAAAYBOEeAAAAMAjCPQAAAGAQhHsAAADAIAj3AAAAgEEQ7gEAAACDINwDAAAABkG4BwAAAAyCcA8AAAAYBOEeAAAAMAjCPQAAAGAQhHsAAADAIAj3AAAAgEEQ7gEAAACDINwDAAAABkG4BwAAAAyCcA8AAAAYBOEeAAAAMAjCPQAAAGAQhHsAAADAIAj3AAAAgEEQ7gEAAACDINwDAAAABkG4BwAAAAyCcA8AAAAYBOEeAAAAMAjCPQAAAGAQ1uE8uMfjlcfrldfnl8/n67LMYrHIajErxGpVSMiwNhMAAAAYEYYlNbvc7XK3t8tn8qvCe0XHnKd1zHFG553l8gcCygobr1mRUzXLPlXjvGMV4rIqzGZTaKhtOJoLAAAAjAimuoamQH9Xjo+NvqOD+Xw+tTlcagm0aY/zoNbUblKrzymp5yaYZFKo2abnEpbroYh5ijZFKiI8TBaL5Y7aAQAAAIxE9Y3NfS4fsnDf7vGotc2pQt9Z/abmPVV5av9/9u48Lor6/wP4a3e5b0QEZLkFORQET0Q8UfNIBU1T1PLK1K9WlpXVLy3NKyvzKk0zj9TUPEhRNFHz1hRRFFCQU0FuFlhgr8/vD2Ji2YVdENTw/Xw8eOjOZ+bz+czMZ2bfO/P5zIAx7YrmgQcrXUtMaR2GAN2OMDE2hJ6ubqPrQgghhBBCyH/RCxHcS6RSlIrLsb80EkcLzkDCJI3KR4cnwGCLYEw0C4WJEQX4hBBCCCHk5aIpuG/2PvdyuRylZeXYXxaJg/lRT5WXjMlxrPAsAGAiC4W5KZ+66BBCCCGEEPKPZn8UZpm4AnHyRBwtOFPnPLo8XVjrtoKHoQs8DV1ho9ca+vy6B89GFV3ADdkdlIkrmqPK5D/k1g//w+PLhxq8nFT0CI/OrW+GGhFCCCGEPD/NeuW+slKCElaGrbn7VLri6PF0IdS3hbOBPVwMHOBsIISLgRACngCpFZlIqcjk/s2szEa54t9AXsZk2JqzH55CN+hV6sKAnqLz0irLjodupQgxXy9DpdgQNp16QNdQH3x+KSpy78M8LRZMIkCpd3dApxXEeSKY2erDyKwSBrpOz7v6hBBCCCFNqlmD+wqJBBfKr+OJNF9pegcjD4RZD4K9vi1a6ZjDRGAEPu/fmwitdM3hb+qNMrkYBdJiZEtycST/NP4uucPNUyQX4WTJeYzhDaHg/iVm6uAF677rYR2YAJReRtbFn6AQiWBkqYO2nfSAx+Uoa2sGw7ZJkEmN4dylByDNAiqSkBpvCKvnvQKEvKiYDMjdDBQfAxSlgKEfYPMuoO/6vGtGCCGkHs3WLUcqlUHOU2BfXqTSU3EYGLyM3dDdrBOcDexhpmOiFNhX44EHE4ExHA3aopuZHzoYeyjNxxjDwYIoSCCFVCprrtV4IaSmpsLeXoiEhMTnXZUXjpV3f2Rf2orUs6cgxiuw6/sD7ANGw6KtLaTlCqCjNfS97WBs2Qnmtq5AyTmUZd3Do7tiGDv2alSZe/bsQWJi1b7Ytm0b7t6925Sr1CzOnj2Lo0ePPu9qvPT+zDmNrIqs/0YdHn8BFP8B2MwDHL4F+PpA2oyqH8eEEEJeWM0X3MtkyJRlo0xerjad18D81M0vY3IkS9MglTUsuP/qq2VwcHDE999/r/Uy5eXl+Oabb1FWVqZx3vXrN8DeXoi9e/cqTV+yZCns7YW4du1ag+rbXLZv395kPxg2PNqFwben4PvM7UrT5yUtweDbU3As/98xF3FlD/Bu0lcYfmcGxt6bh7WPdqBCUQkAKJaVYvDtKdzfiLiZ+L+U75BRqT6g0DO1hWkbKZwdd6L4Uj+8t+EtrMzUw+q7bth8pRI7MvTxTYYHhp/NwpiIDOyOFEFcIIO9jxHy7yc0al0DAwMhFAobtezTOHfuHD7//HMoFAql6RKJBHv27MFPP/30zOrypPIJNqX8hK8Sl2HF/VU4lh0JOZNrXvAFoWAKXC64rHE+qUKKJQlfQaqQPnWZ+ZJ83C99ABt9G63m/yl1K5LLHja6vNO50TidG924OlQ+BESnAIfvAbPBgFFnwH4FoO8GFPza6DoRQghpfs0W3MvkCtwqvwtWxwuqmsr1stuQyRWaZ6zh+PHjmDRpEo4fP6H1MllZWfj2229RVibWepm1a9dBLq8KeAoKCrBjx44G1bM5yWQybNz4AxITGxfg1uVk4QXkSQsBADGl95AoVg5OMiqzsPDh14gXJ8Fe3wYAw7H8M1iZvllpPiOBIXyM3WGt2wrXSm5jQfIKiOSlKuVZd+yJRzfv41HWq9iaZodJ7y7Dqz0CEDbiNXiGfwj3kR9g8shP0XmcGdjrLlhn7AV9PRmKHksgMHZr1Do6OzvD2Ni4Ucs2hkwmw2+//YacnByVtOLiYvz000/P9KlRcibHtrTtCLLqiU/bf4IP3OdDLBfjQv7FZ1aHpyWWi3Ep/4rG+XT5univ3TvQ5T/9Y3cNBAYId5ig9k6lOhMcXoeLkXODykgTp2Pjwx/wqPzR09WhIgHQdwYMPP6dxhMApiFAeXyD6kQIIeTZarY+93K5HDdL7zVX9pxb4nhMNNP+imFCQiKKi4vx/vvzERDQGZmZmdxV2HfffQ8ikQg//7wVADB8+Kvo2TMQI0eOxKBBgwEA/v7+WLFiOSZNmoRff92NDRvWo6SkFCNHjsTnn/8f9PSq+v87OTlBLBbj0KFDGDNmDDZt2oQOHTooXbXPycnBggUf4urVq3BycsLSpUvQtWtXAEBERASWLv0KEokE77wzT2kdsrOzueXs7e3x/fdr4OvrixMnTmDatOlYsmQJli9fjujo00hKSsann36CnJxc+Pv7Y82a72Bvb48OHTqipKQEs2fPwYkTUfjhh4111kckEsHLyxsffrgAO3bsxMcff4TXXntN7faVMRn25UZidttw7MlR7Qbye24UJEyK2W3DMbJ1CMoVlXgnaQkuiW4ivfIxzAVV71JoZ+CIr90+BgBszdqPfbmROFHwF8ZaD1XJk5U/go2tHmJi2iKYl4cjpQfR12AQHvEfo6dlCH4uXgIAuFpsBlN/PVzPEMHXIFfLFqNq27Zt6NatG3x8fNSmJyQk4PTp05gzZw43bffu3XByckJQUJDSvJGRkbh37x6kUimcnZ3x2muvQUdH+bAUCARwd3eHn58fbt++rZSmo6ODAQMGQFdXF9HRyldpa5NIJNi+fTsyMjJgbm6O0NDQRt2BuFdyDzb6bdDBrGr9dXg6CGsbygWM+ZJ8HH58BKXyMujwdDDEZjBcjav6aX9y9zMMthmEVHEaSmUlGGA9AHGiOBRLi8Hj8TDJYSJ0+bo4nRuNnMocCHg6KJDkw87ADm0N2uJB6QPkSvIwwLofOph1qNreJYk4m3cWAKDH18NIuxGw0rPC6dxo5EsKAAB5lXloa2CHUW1HolBaiG1p25Evycfa5HUYLxyPUlkJqOemywAAIABJREFUjmYfAwODgCfASLsREBpWbZtliSuwzGcpV/8BbfrjasE1THF6Azo8XRzNPopKRSUYgAHW/eFh4q6yzc7mnkN8aQJ4AKz0rDDKbiR0+brYnLoFjoYOEMlEKJAUwtXYBYPaDAQA/JqxB4PahMDZyBmbU7fAydAR+ZJ85EnyEGTVE50tOgMA0sRpOP7kBHjgIaM8EzNdZsDe0B4JpYla1UEteSnA0wUUte688nj/TFPgGTxsjRBCSCM069k5uTytObMHAGRVNixIO3HiOPr37wcrKysEBARodfXe3d0dP/ywEQBw6NBBjBw5ElevXsWnn36K9957Dxs2rEd0dDTWrfv30YoGBvqYOnUqvv9+LQoKCvDLL9sxe/YspXz/97+5kMmk2LFjO/r27YPJk9+ASCRCQUEB3n33PXTv3g3ffvsNbt2KVVpuzpw5UCjkOHz4EPr374833ngDlZWVXPqtWzH44osv0KpVK/z444+YPXsO9u7dg4KCAixfvhwAcPx4JHR1dbFo0edYvHhRvfWpFh19BvPmzeV+gKjja+KJEwV/4bIoBrGl8fAyUr46Hi9OAgD0tegBADDk66OnmT8A4F5Zkto8e5lXBTHxZclq05/c/hs6ZUdgoSuDu35HmPLNkSK9i2RpHH4T/QAJq9o2Ov/07bJx7ILS9HJYuHaocz2ehoeHB0pLS7kr7ZWVlUhKSoKvr6/aeefNm4cFCxZAJBKpBO8AwOPxEBAQAB5PtXOasbExPD09tarX3bt3ERISgs8++wydO3fG8ePHG7hmVXIqc2Gtb600TcATgPdP57lfM/ZgYJsQvOM2F5MdJ+Lg40Mok1d1Z1NAgU7mnfCG4yR0s+yGP7KPIqxtKKY5T4W5jjliim9xeerx9DDWfgzecp6BeyXx0OEJMMFhPKY4vYEjWX8AAIqlxYjOjcY0p6l422UmBlgPwJ7M3/6tF/gYaz8Gs13fRmZ5JtLEabDUtcQUxzdgpWeFeW5zYa3fGnp8PUxznop5bnMxwu5V/JF9TO26K6BAO2M3fNL+Y9gZ2OG3R/sw0m4E3naZiTcdJ+PQ48MQy5Xv7sWJ4lAoLcTbLm/hbZeZaK1nhT9zT3Pp1vrWGGv/Gma6zMCj8kdIKFHfVa6NfhtMcBiPGc7T8UfWMShY1R3LI1kRGG47HDNd3sLrwnGIzlV97LCmOijJ+wl4shqoSAQS+yj/ZX8NVCYBSaOqBtwSQgh54TTvS6x4DM3cK6fBnfePHz+B6dOnoaysDL17B+PEieOYMWN6vcvo6elxVzidnV1gZmaGQ4cOo3fv3twV7ClTpuCXX37B++/P55abOnUKNm/ejPDwifD19UX37t25tNzcXFy8eBGRkZHw8/NF165dsWPHTvz552no6+tBLpdj9erV0NfXh6OjIw4cOAAAePLkCa5cuYpjx47B29sbbm5u2LRpEy5d+rf/8DfffAPdf97eu2fPbvD5Vb/hhg4dihMnqn7MuLi4gMfjwcbGBjY2NvXWJyRkAABg/vz30KdPn3q31WutX8Hnqd/jq7SNMBEYYZhVP8SL/w3KS/8JfAwF+tw0Q74BAKBMrr7Lkz6/at5Shfp0cZEEUoEl3CTx+DxtMxLkAgywrOqWUB3YpxfqwFYkQucSXXRoL8LDkrrfkswYg0Qigb6+fp3z1IfP58PPzw+xsbEYOHAgEhIS4ODgAFNTU5V527Vrx/3fxcUFhYWFjSpTG25ubrC3twcA+Pj44Ny5c3XOK5VKwefX/ZI4Xh0HXrFUBLFcDEcjRwCAqY4p2hq0RUpZCjqYdQAffJjrVt2daaPfBqY6ptwV/zYGbVAkLeLystCzAADweXxY67WGma45AMBMxwyV8goomALJZQ9RJC3C9vSd3HLlcjEX+FbnAQA2BjYokBTCyUj1Eah8Hh9Hsv4AYwpIFFKIpOrf/scHn1u+WFqM7IpsHHx8mEvX5esgT5IPR0MjblpCSSIyyjOxNXUbAEDGpDD/Z10AwEqvFbdN25m0Q3JZMjxN26uUbfnPuhgKDGEgMECpvBRmOmYQ8HRQ/s/YpnJ5OQwFhirLaqqDkgot+vlLswFFGSCoIw9CCCHPTbMG9y4GDkgsT1GaxgMPEoUUMiaHgKddP2EFU6BSIVF66k41W73WWtcnIyMDcXFxePfd9/Duu+8BqArE8vPzYWXVsIciZmVlwdzcjPtsbm6G7OxspXlMTEwwa9YsLFu2DIcOHVRZvno5oOrqrJmZGbKzs2BiYgJDQ0MuuKzZTSM7+wkAYNSoUdyVXIFAgOzsLFhaWgIAF9gDwLZtv2D79u0QiUQQi8UQCu3rXJ+66lOtustRfYQGduhr0Q1niq4i3HoEjGsFGiYCI+RJC1Eur4SeTlU9q99hYCwwUskPACr/GWxrwlefbmjMQ+pNKV5xKMesC4+Q4usEY4EcPcyKAQDpBTo4fNsEQlMpxrTqgKJ7m6FXVgkLV/Xdai5evIhr165h/vz5atO14e/vj127diEkJARxcXHw8/NTmUcikSA6OhppaVV3uIqLixEQENDoMjWp+eNCIBCoDMytae/evTAxMUFoaKhKmpWeFe4U31GaJmOyf45P7X/Nq/t5oO4YVzs3dxeDwc3YDeOEY7Uoj1fnGKBfM3ZjgsN4tDVoi2JpMX5M2ax2PqW6AjASGGG681QN8zEEWwWhi2UXzXkyVucPp5p44HHbaqz9GGxJ+xmWupaw1LXAcNthT1UHQggh/23N1i1HIBDA30R98PSoMhvFshKt8xLJS/Go8onaL2ZfI0+tBxOeOHECnp7tcejQQe7PysoKUVEnAQD6+nooL/+3j6msnqfw2Nraorj436t7xcUi2NioPoFiypQ3MXp0GLp161ZreTtuOaDqS10kEsHGxhZWVlYoLy+HRFJ1dbl6UC4A2Ni0AQBERh5DSspDpKQ8xMOHyRg/frxK2cnJyfj888+xcuVK3LoVgzlzZtezPnXXp6HCbUbCUscMo1oPUknzMqq6Un22qGowY4WiEpdEMQAAb6N2KvMDwIXiG1XL1jEAViIxglxcArfWJngz5w4cCwtwocgCcWUmSC+sCuyN9BSYzXdEP7NDeHTyCXQtLaFrrP6qY0BAAF5//fWGrXQtNjY2MDQ0REpKClJTU+Ht7a0yT3R0NIqKijB16lTMnDkTHTt2fKoyNVHXracuQ4YMQb9+/dSm+Zh6I6M8E/dLHwCoCuwjsv7A6dxomOuaw5BvgPTyDABAiawEjyoew7mBA0O15WrsiqSyJBRKqu54JJUm4WTOqQbnU6mQwESn6sdPTqXqwGV1zHXNoM/Xx72SqgGmIlkJdqarPknGw8QD1wr/5p64czo3WqnrTUZ5JoCqJ/PEieK48QnainxyHFOdpuBtl7cwTjgWxjqqg7011YEQQkjL0WxX7nUEfPgbemMvjqH21bx74iTcF6fAWq+VVlepUsozEFum/gkNXY18oSPQ7jfK8eMn0L//AKVAOzi4F44fP44JE8bDzc0NBw78jsOHD6O0tBQPHz5E797BVevzz9Xz5ORkGBkZYtSoURg/fjz2798PGxsbbNu2Te1VTiMjI3z33Xcq09u0sUZgYCBWrVqJd955B6dPnwZjDAMG9IdcLgefz8dHH32MUaNG4siRCG45W1tbdOvWDUuWLMU777yDpKQkbN26FSdOqPafru6Hb2CgD4lEglu3YlFZKeHuVOjq6iIrKws5Obn11qehHPTtsNz1AxjyVbu1hFkPwp+FF7Hx8a+ILDiLQlkximWlCDTzh6NBWxTLqp6Ik1SRjvnJy1AsK0FmZTYsdMww2LK32vJadRiMwtTfUFHKMLGLIYyTbmBzWx/E67eGIhOwM5HiU3MnjDBLwoPf7sNRCDwybI+6HgZoZGQEIyP1dwkawt/fHydPnoSrqysMDAxU0svKymBjYwNdXV1UVFTg/v37dQ7SfdZat677jpguXxfTnafhSFYEDj0+DAaGDmY+GNgmBAAwwWECDmcdhlgmhoAnQKjdSJjomDRLPS10LRDaNhQ70ncCPB4M+QYYbR+mcTkzXTMwKLA2eR2mO0/Dq7bDsSdjD6z1rWGrbwNzXTP8lXcevVsH15kHDzxMcpyIQ48P49STU+Dz+Bj4z2DYmvzMfZEnycO6h+vBhwB2BnYItvr3HQvl8nJseLgRpbIydDL3U9slpz42+jb44eGPMNYxhoAngI1+G4y0GwF7A3v8kf0HbPVtNdaBEEJIy9Fswb2ujg6EMjvo83RRyZT7N4sVFdic9RvcjZzRRs+qzgCfARBJRdic9RuK1Fzp5/P4cNd1hq6O5tXIy8vD9evX8e677yhN7927NxYs+BAlJSUYP348oqPP4P33P8DIkSPh4fHvY+Dat28PPz9fjBkzBtu3/4KQkBB8+eUXWL36G5SWluLVV1/FvHlz1ZZd152FdevWYsGCBZg0aTIcHBywbds2WFhU9av97rtv8dVXy3DmzBm88848/Pbbv4MEN2xYjw8+WIBJkybB2ro13nvvPbX9w729vTFp0iSMG/c62rZti48//gjvv/8Bdu3ahXfeeQejR4/GsmXLkZOTi88//78661NzUK22XAwc1E531G+LFa4LsCVrH5LK02AkMMAwq76YYad8pVwsL8fdsgfQ5+uhq6kv5tlPhnkdAaLn2A9wd+MdCOSJSLoix8igNujHj8XPRS7ItDHBPD0beFaexf3tiXCwZSgWK2Dd640Gr1ND+fn5ISoqCr17q/9REhQUhAMHDuDevXswNzeHr6+v0l2aF1kbfWvMcJ6mNs1avzVmOKsfx1L91BkAcDRyxNsub3GfawabA6yVf1TW7vrypddi7v/epl7wNvVSKat2HmPsR3P/F/AE+MD9fe6zr3lH+Jr/e+ekp1VPtXWu+X+gajvMdJmhUra6utSuTzUPE3fuCTk1vVVjG75Va3t+5LEAAFAoKUS6OB2fe34GPo8PBVPgj+yjuC26g56tApV+KNRXByVa3+Bp6NtKCCGEPAu8/MJirTvJtrIw0zxTDcUlpfij9DR25R5R26Wmja4VZredgA7G7WFa61ZymbwcieKH2JS1BynlmWq7FIy2GoxxZsNhbto8VwXJf0duzEmUJkZClroLEujD2M4Uzt3MAIEpih7mIud8HqzcAHm+GIJOi2A18L1mr1NxcTE2bNiADz/8UOXxloQAwObULdzjLhtDopBgT+ZeSBQS8MAHn8eDLk8PoW2f4m5J2XWg8ACqHndZBz0noM3/Gpc/IYSQp1JQVP9F12YN7isqJcitKMDHj79GnrRA7TymAmP0MuuMHub+6GDsAT6Pj/iyJFwVxeJ88XUUyIrrXO4b4SewNWgNfX3NAz1Jy1eWk4FHER/DpPQ4+CY6KCo1glwigIW5FAb8IijM+0LX53+w8FEdC9DUGGP4/fffYWxsjCFDhjR7eYQQQgh5OTzX4B4ARCVluFYRizVPtkGqUD9AlQ8+Wumaw1bPGgLwkS3JRZ6sqM7X2Qt4fPzPZhJ6GXaFmemze1Mo+W8oe3QX0odHYFy4F7oCEcqMBkLa5rVnEtQDQFxcHCIiIiAUCjFu3LhGP1KTEEIIIaS25x7cy+VyFJeUYVfJIRwrPNvg5dUJsQjCNLOxMDc11vpJOYQQQgghhPzXaQrum70jsEAggImxISbyQsEYw8nii5A18s2GAh4f/cwDMdX8NZgYGVJgTwghhBBCSA3NfuW+mkQqRWlZOW7I7mBrzn4UyUX1vLBGlZnABFOsR6OHXgBMjA2hV+NFTYQQQgghhLwMnnu3nJrkcjnKxBUoZiU4VXoBv+dHQc7kdb41EuBBwONhRKsQDDHpA0u+OYyNDOiKPSGEEEIIeSm9UMF9tcpKCSokEkggRbI0DdfLbuOWOB5ZlbkAD7DVbQ1fY090NfKFu64z9Hl60NfTgwE9FYcQQgghhLzEXsjgvppUKoNUJoNMrlB5eY9AIICOgA9dHR3o6tIzwgkhhBBCCHnuA2rro6tLgTshhBBCCCFNhf+8K0AIIYQQQghpGhTcE0IIIYQQ0kJQcE8IIYQQQkgLQcE9IYQQQgghLQQF94QQQgghhLQQFNwTQgghhBDSQlBwTwghhBBCSAvxwgT3BUUijQ/lf1ZKSkrQpUsXPHz48HlXpVFKKuTotiQWyTkVT5XPt1GP8PGBVK3LuZ5SirE/JNSb55xdyYi8XfhU9WqIptoWhBBCCCH/BS/VG6RSU1MRHByMy5cvQygUKqWFhYWhV69emD9/PoyMjBAWFgZra+t68ysok2H4mns4MMcTbS30tK7H6fhirPvzMQ7N9UJETAG+OpqhMs+uGR7wsDXUOk9tiMrlGPrdXUwJtsG0YJsmzRsAhJZ6GNLRkvt88m4RknMqMKufLTetT3tztGtj0ORlayurSIL10Vm4klwCxoCOQiO8P9gejlb6WqUDwC8Xc7D/eh5E5XL4ORjjk+FCtLXQQ0ZBJUZvUP/j5rUurbFgiP0zWUdCCCGEvLxequBeWwKBAJ988onG+Y7fKYSvg3GDAnsAOBZbgGG+luD989naVBcbJropzdPWsmF5aiPyTiEsjXUQcasAU4NtuPKbip2FHqb0+vdHw/n7IpVtM7Zr6yYutWHWR2fB1lwPa8NdYazHx7rTWfhgXwr2zfLUKv1YbAF+ufAEi0c6QthKH1v+ysYH+1Kwa0Z72JrrYc/M9krlyRUMs3Ymw9fB+JmvKyGEEEJePhTcqyESieDj44M///wT7du3r3O+Y7EFGN+96ur+54fToafDw2fDHbj0H85kIz5LjLUTXLlphWUyXEkuwfuD/72Kq8Pnwbn1v1eGawrffB+Te7bBqbuFuPqwFGaGAoQGWGF673+D6KQnFVgemYHErHLYWujhvYFt1eYVEZOPN3vZYGN0Fq6nlKCbiymXxgBsOpuNQzfyUSFVYKCPBYz0lHttaSrnXGIxlv6RgVMfdMD/HUpHVFxV95ttF56gT3tzfD3WGeGb72OkfysuyM8RSfFN1CNcfVgCPo+HIHczvD+4LSyMqprmt1GPYKgnQIVUgcjbBVAwoGc7Uywc5sDV78SdQuy5moe0/AoY6vEx3K8V5vS3U7sNvgpzUvo8s48tJv50H0ViGSyMdDSmH44pwLhu1ujraQ4A+L9XHTBw9V3EpJeis5MJ3GrdlYi8XQhjfQFCvM3V1ocQQgghpClRcN9IidnlyCyUYIC3RYOWOx5XiA5CI9g34Mr8quOZeG9QW7z/ij3uPhLjs4Pp6ORojC7OJpArGBbsT4F3WyN8McoJonIZVh1/pJJH3CMx0vIrMcjHAvFZYhyJKVAK7v+4VYC9V3PxZagTPGwMEB1fjA3RWQj2MAMArcuptiTUEcXlMnjZGSl1y6mJAViwLxXWpjrYOsUdjAFrTz/G/L0p2DLFHfx/bi3svpKLsV1b4+ep7igul2PhgVTsvJSDmX2r8m1looN5IXZoZ2OA1LxKzP31Ibq6mCitX10KxTIY6fFhrC/QKj0xuxxTa3RpMtYXwMPWEPceidHZyURl/XZezsHr3VpDwG/q+ySEEEIIIapeyuC+V69eKtPkcrna6XU5GluAfp7mKle3NTkWW4hxtbqmZBVL0GPpbe6zqQEfpz7owH0O9jDDcL9WAAA7cz38di0P8Y/F6OJsgqsPS5EjkmLHdCFMDQSApR5m9bPF3F+VBwMficlHz3ZmMDUQYEhHS7zz60OIyuUwM6wKWg/dyEdYZyv0/ieYn9DDGqfji7jltS2nIW6kliIppxxrw71hbljVFBeNcMTw7+8hNqMM/o5VXVlaGevgfyF24AFwADDUtxXis8RcPjWDeD8HHXjaGiI5p0JjcK9gDJvOZmN059bQFagG37XTK2UKVEgVsDBS/iFgaaSD/DKZyvKXHoiQXSzFSP9W2m4SQgghhJCn8lIG9zt27ICNjfKA0nfffVfr5WUKhpNxRVhaqwuHJg+elCM9vxIhPspX+61NdZW67ghq/V5ws1bu6mFiIEBppQIAkFlYCTsLvaqAu3r+Wl1DyqUKnLpbhM9HOAIAApxMYGmsg8g7hXi9W2sun9e7Kw8gbtfGEMXlMq3LaajUvArYWehxgT0AWJnowMZMF0k55Vxw72KtrzQ+wNRAgLJ/1h+o6pZz8GY+nhRLAQD5ZVIEuZvVWzYDsOxYJnQFPMxUc2dBXbqC1ZUXg7oL89sv5SA0oFWddwUIIYQQQpraSxncu7q6qjwtx9BQ+yfTXHwggp4OD52dTeqdTyJTKH0+GluIfl6qV/t1+Lx6A2V93frvDtQOLGtfhT4VVwSxRIFPfk/jpjHGEBGTzwX3TIt8NKU3lFSuPlpmAHRrFGZQz/r/dV+Er45mYvU4Z3R1MQGfx8PM7Un1lssALDuagYc5FVg/0Q16tdajrnRDXT6M9PgoEsuV5i8Wy7kxAtXiHolxJ1OMJaEN+wFICCGEEPI0Xpjn3P+XHLtdiKG+lkrBrpEeH5VS5WA+vaCS+79cwXAirhDDfC3RlOwt9PC4SIKyyn8DzrT8SqV5DsfkY7hfK/z6lgf3983rLkjKqcDdx+J/8tHHgyflSsvVzEebcmrj86q6ttTF3cYQWUUS7u4AAOSXypAjksLFWru7AjdSS+HvZIzurqbg86p2SNY/V/DVUTBgSUQG0vIrsX6im8oPLU3pXm2NcCu9jPsslihw/0k5vNsaKc23/WIOBvpYwMZMV6v1IIQQQghpChTcN1BxuQwXH4gw1Fe5H7W3nRGuPixFVpEEDMClpBJcSS7h0i8llUCHz0NXNf3AZQqG1LxKpT9JHVe1a+vuZgorE12sOv4IjwolePCkHD+eyebSU3IrcPeRGJN7WsOtjQH318vdDJ0cjHEkpgAAEBrQCr/fyMfFJBFyRFIcvpmP2IwyrctRx85cD1cfliC3RIoCNX3SA5xM4G5jiCURGUjNq0RKbgW+jEhHB3sj+Gn56Ehbc12k5VeitFIOBat6Mk9uifrgXsGALyPSEZNeiln97JCWX4H4LDHis8TILZFqTAeAMZ2t8Nu1XJxLLEZyTgWWRKTDzkIPATUG06bmVeL8/WKE91B9T8LJkyexatUqrdaNEEIIIaShXspuOU8jKq4I7W0N4WSl/OjKYX6WuJclxps/P4AOnwfvtkaYFmyDW/8EyMduF6hc7a+WWyJVebOrti+x0uHz8P14V6yIzMSETYmwNtPFx0OFSMmreiPrkZgCdHY2gXNr1SvhY7u1xtI/MvDeoLYY4W+FQrEMK45lQlQuR4iPBeb0t0NMeqlW5agzuWcbfHowDaHr49GnvbnKYyb5POC78S5YfeIRpvz8AIwxBLqZcmMDtBHW2Qp3MsUIW58APR0eBnpbYEJ39S8fE5XLuLfj1u66M7lnG0wMtK43/X8D7DDA2wJZxVKsjHyE0ko5Otgb4dtxLkr7ddflHAQ4maC9mv136NAh6OjQYUcIIYSQ5sHLLyzW7hIxgFYW9Q9SfBoFRaJmL4OQ561379745JNP8MorrzzvqhBCCCHkP6g6Zq4LXUJsoNEbEpBRUH9fc0LU+b9XLFFSUoKQkJDnXRVCCCGEtFB05Z4QQgghhJD/CE1X7mlALSGEEEIIIS0EBfeEEEIIIYS0EBTcE0IIIYQQ0kJQcE8IIYQQQkgLQcE9IYQQQgghLQQF94QQQgghhLQQFNwTQgghhBDSQlBwTwghhBBCSAtBwT0hhBBCCCEtBAX3hBBCCCGEtBAU3BNCCCGEENJCUHBPCCGEEEJIC0HBPSGEEEIIIS0EBfeEEEIIIYS0EBTcE0IIIYQQ0kJQcE8IIYQQQkgLQcE9IYQQQgghLQQF94QQQgghhLQQFNwTQgghhBDSQlBwTwghhBBCSAtBwT0hhBBCCCEtBAX3hBBCCCGEtBAU3P9HjB8/HgcOHGiWvBcvXoyZM2c2S96EPA1NbVMkEsHBwQGJiYkAgDVr1mDBggXPqnqkGVy4cAH9+vV73tV4odVu981h8ODB+OWXX5ot/+a2ePFizJ49+3lX47lozn33Mm/X/5KXKrh3cHBAVlaW0rR+/fph9OjRStOysrLg4OCA2NjYZ1k9TkREBFatWqU0bfDgwfDy8nou9SHNY+HChTh//rzGaf8FqampcHBwgIODA5ycnNClSxfMmjULqampz7QenTt3Ru/evbnP6o6lluS/2l7q4+zsjLCwsCbLr2/fvpDJZE2W39N6FvvsebT7F207v8hyc3ObtI23dNS2Gu6lCu4tLS1x+fJl7nNmZiYeP36MmzdvorCwkJt+6dIlmJubo2PHjs+jmjh16pTKtDfffBM+Pj7PoTakOUilUpw7d07jtP+a/fv348yZM1izZg3y8vIwefLkZ3pSDg4Oxquvvsp9VncstRQtob2oIxQKMXfu3CbJKyUlBcnJyU2SV1N4VvvsWbf7F207v+ha8nmpqVHbapyXKrjv2bMnLl26xH0+ffo0OnfuDC8vL5w+fZqbfvnyZQQFBYHPr9o8+/btQ3BwMNq1a4fQ0FDcuXNHbf4ikQjOzs64du0ahg4dinbt2qFfv344efKk0nzXr1/HyJEj4ebmhi5dumD16tWQy+UAgLlz5+Lw4cNYt24dHBwcMG3aNACqt9muX7+OsLAwuLu7o1OnTli3bh2XVl99GWP4+uuv0alTJ7Rv3x4ffPBBndvr1KlTaN++PcrLy5Wm9+nTBxs3btS4LgDQtWtXHDx4UGn5sLAwbNiwQW2Z+fn5mDdvHrp37w4PDw+MHDkS9+7d49IXL16MNWvWYM+ePfDz88Prr78OAMjJycH06dPh6ekJf39/rFq1SqkeDSmjJpFIBCcnJ8TExGDgwIFwd3fHiBEjcPv27UbXSSaToXfv3sjIyMCECRPg4OCATZs2qUxbu3YtXFxccOXKFaU6ffTRR5g0aZJKXaOiojBmzBjs27cPgYGB8PDwwOjRo5GUlKSfe9NQAAAgAElEQVQ0X13tY+LEifjqq6+4+U6dOgUHBwdERkZy05YvX47Jkyer3VZAVWDm6uqKXr16YdWqVUhJSUFKSorGsgHt2mZ8fDxGjRoFNzc39OnTB9evX1dKr9mNp65jqbZDhw5h2LBh8PT0REBAAFasWKGUXt+xtnfvXvTr1w9ubm4IDAzkAjepVIovv/wS/v7+cHd3x5gxY5TWdc+ePejVq5dSOefPn4ebmxv3efDgwThy5AimTp0Kd3d3dOnSBWvWrAEAtW1oy5YtatevpmvXrmHEiBHw8PCAn58f3njjDe74zsrKwltvvQVPT094e3tj7ty5KCgoUJtPQ9uKTCbD0qVL0alTJ3h6emL27Nl15h0VFQVfX1/u87x581S6Wq1atQoTJ07k8l60aBECAgK4c+7hw4dx584dDBkyBADg4uICBwcH3L17VymfDRs2YPjw4dzn4uJiODs74//+7/+4aWfPnoWXlxdkMpnGc0dj95mm85emdl9TXe1eU5vUpK46arOdv/zyS4wdO1Zp2pMnT+Do6IiYmBgA9X+XVN8ZrHnnXSaTwcHBATdv3tSq/mvWrEGvXr2Qn5+v9Xf1nj17EBwcDDc3N/Tv3x8REREAgJs3b8LZ2RmlpaXcvEOGDEFISAj3WSwWw8XFBbdu3VLKc9euXVi4cCGuX78OBwcHeHt7ayyvLnWdfwCgqKgIU6ZMgbu7O7p27cq1w2qa2lx95726tqs6T7NftWlbpA75hcVM27/m9CzK2LFjBwsMDOQ+T5o0ia1bt46tWLGCvfXWW9z0wMBAtmPHDsYYY0ePHmWdOnViFy5cYDk5OWzlypXMz8+PlZSUqORfXFzMhEIh69u3Lzt//jzLyMhgy5YtY+3bt2cikYgxxtiTJ09Y+/bt2erVq1lqaiq7ePEiCwwMZEuXLuXyCQ8PZytXrlTKe9CgQWzbtm2MMcZSUlKYu7s7++KLL9jdu3fZ5cuXWWxsrFb13bt3L/P09GQnT55kmZmZbPPmzczFxUVp/atJpVLWsWNHFhERwU1LSEhgQqGQZWRkaLUuXbp0Yb///rtSvqGhoWz9+vVq95FEImE7d+5kKSkpLD8/n73zzjssNDSUS1+0aBEbMGAAGz9+PLty5Qp78OABk8lkbPDgweyjjz5iWVlZLDY2lvXo0aPRZdRUvU8HDBjArly5wlJSUtjChQuZp6cny8nJeao6ubq6sr/++kupvNrTpkyZwhYuXMh9lsvlrFOnTmzfvn0qdT1x4gRzdXVl4eHhLC4ujj18+JCNHz+ehYWFcfPU1z42btzIhg8fzs370Ucfse7du7MPPviAmzZy5Ei2adMmlbJTUlK4dlEtIyODCYVCFhcXp7FsxjS3TalUynr27MlmzZrFUlNT2a1bt9iwYcOYUChkCQkJ3L6o2ZbVHUu1/fXXX+zixYusoKCAXbt2jbm7u3P7oL5j7dChQ6xdu3Zs165dLDExkZ08eZI9efKEMcbYl19+yXr37s2uXr3KUlJS2LJly5i3tzfLzs5mjDG2e/duFhQUpFIPV1dX7vOgQYOYj48P27dvH8vIyGARERHMycmJXbhwgZtHXRuqT0BAANu8eTMrKChgDx484I5NhULBhg4dyqZMmcISEhLYvXv3WHh4OHv11VeZXC5XyaehbeXTTz9lI0aMYPfv32cZGRls4sSJLDw8XG0dT5w4wTp27Mh9njt3rlK+jDG2cuVKbvmdO3eyvn37suTkZJabm8vOnDnD7t27xxhj7MaNG0woFDKpVKq2rJiYGObk5MS1wcOHD7Pu3bsr7ZsVK1awN998kzGm+dzRmH2m6VyhTbuvTV2719Qma6v5naOpjpq28+3bt5mjoyN3fDDG2LZt21iPHj0YY5q/F6vPL48fP+aWl0qlTCgUshs3bqgtc9GiRWzWrFmMsapzi5+fH0tJSWGMafddferUKebh4cEOHTrE0tPT2b59+1i7du3Y6dOnmUwmY56eniw6Opoxxlh2djbz8fFhnp6e7NGjR4wxxs6dO8e8vLyYTCZTqdv69etVvnPqK0+d+s4/gwYNYt7e3uzAgQPs8ePHLDIyUqkdatqf9Z336tuutTXFftXUtl5WmuL1lyq4rxmAiMVi5ubmxuLi4ti1a9dY+/btWWVlJcvMzGRCoZClpqYyxlQD0eqD+ujRoyr5V58wfvvtN25aZWUlc3R0ZDExMYwxxr7++ms2ZMgQpeWOHTvGPDw8WHl5OWNMc3C/fPlyNnjwYLXrqKm+w4cPZ0uWLFFaZuTIkWqDe8YYW7hwIZs+fTr3+dtvv2Wvvvqq1uvS0OC+tvPnzzMvLy/u86JFi1jHjh1ZaWmp0jyenp5KB/+PP/7I+vfv36gyaqrepzWDaalUyvz8/Lj90dg6aRPcR0REMD8/P+4L4vLly8zV1ZX7AqrpxIkTTCgUsvT0dG7aX3/9xdzd3bnP9bWP2NhY5uzszK1H165d2ebNm1mXLl0YY4yJxWLm7OzM7ty5o1J27eA+Pz+fzZkzh73yyitccPi0bTM6Opq5uLiwoqIiLv3cuXNPHdzXFhoayn766SfGWP3H2ogRI9jixYtVpldUVDAXFxd26tQppekDBgxg3333HWNM++D+3XffVanbxo0buc8NCe4VCgXz9PRkP//8s0rahQsXmIuLCysoKOCm5eTkMGdnZ3blyhWV+RvSVsrKypirq6tSEBYbG8uEQiHLy8tTybuhwf2mTZtY37591ealKTCQyWTMy8uLnTlzhitrzZo1zMPDgz18+JAxxtioUaPY5s2b1S5f+9zRmH2m6VyhTbuvrXa716ZN1lbzO0dTHbUJwPr168e2bt3KfX7ttdfYsmXLGGOav0saG9zPnj2bnTlzhnl6erKbN29yadp8V4eFhbEvv/xSKc/PPvuMjR07ljHG2BtvvMHVf/fu3Sw8PJxNmDCB/frrr4yxqjY6ZcoUtXVTF9xrKq+2us4/jGluh5r2Z33nvfq2a21NsV8puFdPU7yu87zvHDxLzs7OEAqFuHz5MiwtLWFhYQEfHx8oFAro6enh0qVLyM3NhVAohJOTEwAgISEB8fHx2LRpE5ePWCzGkydP6izHw8OD+7+enh4MDAxQUlICAEhOTla65QwAfn5+EIvFSE9PV1q2Lg8ePICfn5/aNE31TUtLw/Tp05WW8fT0VBpzUFNYWBhef/11lJaWwsTEBJGRkRg3blyTrUttWVlZ+P7773Ht2jWIxWJIJBJUVlYqzRMQEABjY2OldS4vL0dAQAA3TSKRQEdHffPWpoza2rdvz/1fR0cHnp6eSoNFn7ZOdRk0aBA+/PBDXLx4Eb1790ZkZCT69u0LU1NTtfMbGBjAwcGB+2xubo7y8nLIZDLo6OjU2z6GDBkCY2Nj/P3332jdujXKysowefJkfPvtt0hISEBeXh5MTU2VbiPX1r9/fzDGUFFRgZCQEGzfvp3r3va0bTMtLQ0ODg4wNzdXSn9ahw4dwq5du/D48WMAVYPdBgwYAKD+Y+3BgweYMmWKyvT09HRIpVK1x0ZCQkKD6lb7GDIzM+POJQ3F4/Gwdu1azJ8/H7///jtmzJiB4cOHQyAQIDk5GQ4ODrC0tOTmt7a2hp2dHRISEtC9e3elvDp06KB1W4mPj4dEIsEbb7wBHo8HAFAoFACqugZYWVk1an2qhYeH49q1a+jVqxfGjBmDt956S+kYqI9AIECPHj1w5coVBAcH4+zZs5gxYwb+/vtvnD17FnZ2doiNjcWyZcsAaHfuaOg+03SuaIp2/7RtsinOZ6GhoYiIiMDUqVORn5+Pa9euYdGiRQA0f5fo6elpXU5Nubm5mDNnDsaPHw9/f3+VdE3f1bW7IPr5+XFdZYKCgnD06FEAwJ9//onevXtDJpPh7NmzmDBhAq5cuaLU5UsTTeXVVtf5R926AcrtUNP+rO+8B2jerjXXqTn2K9HspQrugaoD8vLlyzA2Nkb//v0BAHw+H/369cO5c+dQUlKC4OBgbn7GGBYsWMD1+6pmZmZWZxmGhoZ1pkkkEpVpjDEAgK6urlbrwBjjviTVpdVXX8YYF2xVq6/cLl26wMbGBlFRUejcuTPu37/PDVhs7LpUVFTUmTZ16lQ4Oztj//79sLKywqVLl1T6l+vr66uUaWdnp9K3v/Z6NqSM2mr335dIJDAwMGiyOtVFX18fQ4cORUREBHr37o0TJ07gs88+q3P++tpedb3qah98Ph/du3fH1atXYWhoiD59+kBfXx9BQUE4c+YMysrKEBgYWO867NixA7a2tli+fDnEYjHatGmjVdnV6fW1zYa2XW2cOnUKH374IbZu3YqgoCAIBAKMGTNGqcz6jjV1aeqOi+r566uvuh+YmvZnQw0cOBBXr17F/v37sXz5cuzcuRO7du1qcJ0b0laqzwm7du1Sag9A1Q+Ixqi5rYyNjbFlyxbcuXMHmzZtQt++fbFhwwa88sorWuXVs2dPREZGIiYmBjo6OujQoQP69u2LM2fOwMPDA6amplwwrc25o6H7TNO5oinafWPbpLZ11EZoaChWr16NR48e4a+//oKzszP3kIjGfJdouiADADExMZg4cSJ27dqFCRMmoF27dkrpjfmurq5Pz549sWzZMohEIly4cAELFy6ERCLBunXrUFpailu3bmH58uUa66hteerS6jo3AfWvmzZtrr68NW3Xas21X4lmL9WAWqDqaRoxMTG4du0aF9wDQEhICK5evYqbN28qBfft27dHUlIS7OzslP5qXqVtCC8vL6XBmABw+/ZtpSuufD6fu7KljouLi0oe2tbX0dFRZfCoppHoYWFhiIyMxKlTp9CtWzfY2NhovS4mJiZKA3JlMhkyMjLUllNSUoK4uDjMmDGDu5pX17y11zk7Oxs8Hk9pnavr2RRl3L9/X2kdHjx4wN3daWyd1O1nddNGjx6NkydPIjY2FkVFRUqDthpKU/sICgrCrVu3cOHCBQwcOBBA1dX48+fP4+rVqyqDQGsTCoVwdnbGkiVLcOPGDaV3Mzxt23R0dERGRobSIDZNbVfTsXTp0iV0794dvXv3hkAgAFD1FK1q9R1rdaW5uLjAwMBA5VG6t2/f5q6m1T4uACgNPNaWpvVTx8jICG+88QZOnjyJu3fv4sqVK/Dy8kJGRobSHbzc3FxkZ2fD3d1dbT7athVnZ2fo6ekhPT1dZd9rc+VX223VsWNHrF+/Hm+//TY34L86WKlvGwUFBeHOnTs4e/YsQkJCwOPxMGDAAFy5cgUXLlxAUFAQeDxeo88dtdXeZ5rOFU3R7rVpk/XRVEdttrNQKETXrl1x/PhxnDp1CiNGjODSNH2XmJiYAIBSO3j48KHGeg8cOBCLFi3CsGHDMG/evAY9ucvLy6ve7eXt7Q0zMzPs2LEDbdq0Qbt27eDt7Q0TExNs27YN5ubmSnd8a+Lz+SoXjDSVV1t95yZNNO1PTXlru12bYr9q07aIqpcuuA8KCkJqairS0tKUApW+ffvi4cOHSElJQVBQEDd9xowZ2LNnD37++WekpaUhPj4eW7dubfSt8fDwcKSkpODbb79FZmYmrl27hq+++gozZszgvuiEQiH++usvZGdnIy8vTyWP119/HQkJCVi1ahWSkpIQGxvLPTdZU33Dw8OxY8cOREdHIysrC7t378bff/9db53DwsJw6dIlREdHK52QtVkXX19fHD58GGKxGFKpFGvXrkVRUZHackxMTGBubs49PSEtLQ0//vijxm3as2dPeHh4YNasWbhx4wbS09Nx7tw5HD9+vMnK+OGHH3D9+nVkZ2dj8eLFAKD0yMXG1EkoFOL48eMoLCzktom6aYGBgTAwMMCGDRsQEhICIyMjjfWti6b2UR3o3L17l3uRUP/+/RETE4O4uDj07NlTq3LatGmDhQsX4osvvuDa8NO2zT59+sDa2hqffvop0tPTce/ePaxevbreemg6luzt7ZGcnIySkhIoFAqsW7dOqctdfcfa5MmTsWvXLuzfvx8pKSm4ePEiEhISYGRkhEmTJmHp0qW4fv06MjMzsXLlSjx+/Bjh4eEAAB8fH+Tl5XFP6UpOTm7US2dqtxe5XI5PPvlE7RNEFAoFtmzZwq3vzZs3IZFI4OjoiMDAQHh7e+P9999HUlISHjx4gPnz58Pf3x9du3ZVW7a2bcXExATjx4/HF198gaioKGRmZuLmzZtar6+vry/Onz+PzMxMMMZw5swZnD17lks/d+4czp8/j/z8fGRlZSExMREuLi4AqvYvj8fDkSNHUFBQALFYrJK/p6cnjI2N8fvvv3M/UpydnWFjY4MDBw4orUdjzh211d5nms4VTdHutWmT9dFUR222M1D1XRIdHY1Lly416LukdevWsLOzw969e8EYg0gk0rgNalqyZAkKCwvx9ddfa73M22+/jd27d+OPP/5AVlYWDh48iL1792LWrFkAqrq59ejRA7/++ivXboCqd+fs2LGj3nOlUChEYmIi7t69i+zsbK3Kq62u8482NO3P+s57NWnark2xX7VtW6SWl2lAbbWQkBA2btw4leljx45lr7zyisr0gwcPsgEDBjAXFxfm5+fHpk6dqjR4slr1IJ3ag5w8PDyUBlDFxsaysLAw5ubmxjp16sSWLl2qNFgkIyODjRgxgrm5uXGj0msObmKsavDdkCFDmKurK/Pz82NbtmzRqr5yuZytXbuWdevWjXl4eLD58+ezrVu31jmgttrw4cOZs7Mzy8/PV5quaV0eP37MJk6cyHx8fFhQUBA3GKeuAbWnTp1iQUFBzN/fnw0ZMoRdvnyZeXh4cOm1B0xWy83NZf/73/+Yj48Pa9euHevXrx87fPhwo8qoqXqf/vHHH2zgwIHMxcWFDRw4kF27du2p63TmzBkWFBTE3NzcuH2rbhpjjH311VdMKBSyEydOqK0nY6oDERn7d+BizX2iqT136tRJ6Qk7jDE2cOBA1rlz5zrLVve0HIVCoTJY+2nb5oMHD9iYMWOYh4cH6927N7tw4QLz9/evc0CtumOppvLycjZr1izm6+vLunbtyr788ku2dOlSpfZZ37H2008/sZ49ezIXFxcWGBjIDT6VSqVs5cqVLCAggLm6urJRo0apDDzbsWMH69GjB/Pz82OjRo1iBw4cUBlQW7MNMFY1iK/mQMna7eX+/ftMKBRyg0FrksvlbMqUKaxDhw7M1dWV9e/fnx06dIhLz8vLY7NmzWKenp6sffv2bObMmdwToeqibVuRSqVs1apVrGvXrszFxYV169aNLV++XG2etduxVCplCxcuZJ06dWJdunRh06ZNY99//z03oDYqKor16dOHubm5sY4dO7LZs2crDa5du3Yt69SpE/P09GS3b99WW+asWbOYm5sbE4vF3LTPP/9cZVtqOnc0Zp8xpvlcoand16au3WvTJmuqvS6a6qjNdi4uLmaurq5s0KBBKmmavkuuXr3KBg8ezDp06MD69+/Pdu/ezbp27arV03IYq3oYgbOzM7t8+bLW39UHDx5kffv2ZS4uLiw4OFjlKWU7duxgQqFQ6WlIx48fZ0KhkBtYq45EIuGOtYCAAK3Lq62u84827VDT/qzrvFffdlWnKfarNm3rZaMpXuflFxYzbX8ItLKou5/50yooEjV7GaTxFi9ejKSkJOzatet5V+WZEolE8PHxwenTpxs1QLipREVF4d1330VsbCwNQiJ1Onz4MDZu3KjyvO7/kqioKCxYsKDRXQ7Ii23w4MEYMWIE5syZ87yrQsh/VnXMXJeXrlsOaTiFQoGoqCiEhoY+76o8N4xp/Ru4WRw/fhzDhg2jwJ7UKyYmhnuJ2n+VQqHgxj+QliUtLQ2JiYkYOXLk864KIS3aS/e0HKK9iooKlJeX46effoJCoai3jzlpenK5HCUlJbh69SqOHTum8W2FhHzxxRfPuwqNVlZWBrFYjAsXLnB95knLUFpaitLSUnz22WcYMmQIhELh864SIS0aBfekTmfPnsWsWbPQrl07bN68ma4aP2NFRUXo1q0bLC0tsWzZMnh5eT3vKhHSbOLj4zFu3DjY2tpizZo1z7s6pAl988032LlzJwIDA7F06dLnXR1CWjzqc08IIYQQQsh/BPW5J4QQQggh5CVBwT0hhBBCCCEtBAX3hBBCCCGEtBAU3BNCCCGEENJCUHBPCCGEEEJIC/HSB/dRUVHw9fV93tXgDB48GL/88ssLUZZIJIKDgwMSExMBAGvWrMGCBQteiLo1Vvjm+9h3Pa/J830RPMu2o8nixYsxc+bMJsvvRTtOX0QN3Ua1j+8XDe3zF8fzOm+Gb76Pgzfymyy/c4nFGLg6rsnye1ZKK+UYtuYe0vMrn3dVtNbU3wGkYV6659z37dsXf/75J3R0XrpVf2qdO3eGm5sb9zkiIgIJCQn48MMPn2OtCCHaWLhwIYYOHYrg4ODnXZX/vIyCSozekKAy/b1BbTG+u/VzqFHTOXm3CMk5FZjVz7bJ8hSVyzH0u7uYEmyDacE2TZZvc4hJL8MvF54gPqsc5RIF2lrqYZivJcJ7WEPA5z2TOqw4lon+3ubo5mIKADDS4+OVjpZoZfJixi0UC7x4XsyW0kxSUlKQnJz8vKuhEY/3bE4gDVU7KDh16hQcHByeU23Ii+5FbccvI6lUinPnzmHo0KHPuyotyoaJbrA21eU+W72gwVdDnL8vQluLpn1hYeSdQlga6yDiVgGmBtvgRT0znEssxscH0jC6sxWm9LKBsT4fD55UYPO5bMRmlOGbcc3/5mSpnOHKwxL09zbnpvF5PMwdYNfsZTcWxQIvnpeqW86QIUMAAC4uLnBwcMDdu3cBALq6uti7dy8CAwPh4eGB0aNHIykpSWnZffv2ITg4GO3atUNoaCju3LmjtgyZTIZFixYhICAA7dq1Q79+/XD48GEAwJ49e9CrVy+l+c+fP690NRyoeg17eHg43N3d0adPHxw4cIBLE4lEcHZ2Rl5eHsaOHQtXV1dcuXJFYx2Li4sxe/ZseHh4wN/fH1u2bFF542x8fDxGjRoFNzc39OnTB9evX1dKr3mbbe7cuTh8+DDWrVsHBwcHTJs2TWVb1FVXbbdDTTk5OZg+fTo8PT3h7++PVatWQS6XAwCys7MxdepUeHt7w8vLCyNGjMC9e/fqzEtULsf8vSkIXn4Hw9bcw5a/niil38ksw9SfH6DX8tsYszEBUXGFXNq5xGLM2pmMuEdivLYxAcHL70AqZ5ApGNb++RiDv7mLvivv4JPf01AkltVZhxUrVqBPnz5wd3dHcHAw/vj/9s48LKtqa+A/BgEFQVA0ZAjwZXIAxDlRsVQ0pyAynDK9amJOZd5bGinodUpNc7g5pJUmDpmhXg1xxutsJooCosisIqCAyLy/P4ijr8ALmH2V7t/z8Og5Z5+11x7OPuvsvfZ6d+9Wq+eFCxcSFBSEq6srLVu2ZMKECeTm5ippatKej1Muc/r06bi4uODq6sqiRYtITExk8ODBqFQqPD09CQsLU+7JyMhg0qRJdOjQAUdHRwYOHKjUa3BwMIMGDVLL4/bt29jY2HDhwgUAdHV1mTlzJi4uLrRp04Z///vfFBc/qpPi4mLmzJmDu7s7zs7OjB8/nszMzCrLUN1zqknfHj16sHz5cjV527dvp3Xr1hQXF9dal507d9K3b1+cnZ3x8PBg/vz5Gut+6dKlhISE4Obmhr+/P6C5T4PmPgKwZ88ePD09adasGX5+fty9W7nbRHFxMV27diUpKYkhQ4ZgbW3NunXrlOuXLl2iT58+yni1f//+anVPS0tj7NixODs707x5cyZOnKhWX5MmTargwrdw4UKGDRumHOfk5Ch92MPDg+XLlzN58mQ117KajM2PU1RURHBwMK1bt8bBwQE/Pz+1cbAmenl7e3Py5EmmT5+Oo6Mjy5YtqzI/K1M9bBvpK3/1DXTIyS+h45xIMh8UE/DddTrPjeSXhLJnd/evmby5MhrPeZGM3hBHdNpDRVZuQQmf/phAt/mX8F4SRcjpdGb+lKi4wyRlFtB+9kXuZBcp95SUCtrPvsjllDzlnKY8loSl8J/Dt/hifyo9F13mtc8vE7gzgbzCUgACdyYSdjmLDcdv0372RaZtu6lW3mOx2XSbf4n8olK1836rovnuxJ0q62nXhQze9WxCbn4JZ+Nz1K79mlg23nadf4lei6P4ICS+gvzysk78/gbTtt2k9Lef3tQ0VgMcvHIP3xVX8ZwbyXvfxpH5oOoxuVTAwn0p+Ho05KPelrjbGOLQpC6vu5qyfKg9/7uWw+Ho+wCEXsjEd8VVtfvPxOfgOTdS7Zymttj5S0bZtbmR9Ft2heUH0iguFfitjCb1XiETNt2g/eyLhJxOJye/hPazL3L9Tv6jekv6rexzI+m79Aqrj9yiVDz6TdKha2IJu3yPj7ZW/q5Lzynio63xvLrwMl4LLjFq/TWu3X6kX03RZAvo6Ogwa9YsWrZsWel7rKoxMDw8HCcnJx4+VNenW7durFq1qtY6voi8UMb95s2bgbIZ/KSkJFq0aAFAVlYW//3vf/nmm284ePAgdevW5V//+pdy33//+1/mzZvH/PnzOXnyJJ06dWL48OFqnbScLVu2cOzYMX744QdOnTrFzJkzcXJyqpWeq1atYsiQIRw7dowJEyYwbdo0zpw5o1wvKSnhH//4B3379uWnn36iZcuW1eo4c+ZMoqOj2bFjBzt27CAyMlL5uIEyA2D06NE0bdqUQ4cO8eWXX/LFF19UqePy5cvp1q0bEydOJCkpia+//rrSdJXpWltKSkp45513aNSoEUeOHOHbb79l586dfPXVVwDMnj2bunXrcuTIEcLDw3n33XexsbGpUl7I6XR6NG/Ajved+ai3JeuO3ebczbJ6SrtfyMTvb9Df3Yxdk5rz/qsWBO9KIjL5gXJ/wt0CFv+cwoTXLFjzbjPq6GjxRVgqvyY+4Kt3mhHynhMPCko7gj8AACAASURBVEr47KfEKnVwcnJi5cqVnDt3jjFjxvDhhx+q9ae1a9eiq6tLaGgo3333HWfPnlXKC9W3Z2WsWbMGc3Nz9u/fT1BQEMuWLcPf358hQ4Zw5MgRevfuzYcffkhBQZlfp7GxMe3bt2fr1q2cOnUKOzs7Pv30UwB8fHw4ffo0d+48eqHv27cPS0tLWrduDZQ9N2ZmZhw4cICVK1cSGhrKypUrlfSzZs3i7NmzbN++nQMHDpCTk8OkSZOq1L+657Q6fZ80jnfv3k3//v3R1dWttS6NGjVixowZnDx5ktWrV7N+/XoiIiKqTL9nzx52797NmjVrmDNnTrV9GjT3kfj4eCZMmMDQoUOJiIjgvffeY9GiRZXmraury8mTJ9HT02Pz5s0kJSUxevRo5frKlSuZOXMmx48fp0+fPkyaNImcnEcG2JO6CyEYPXo0xcXFhIaGsmPHDrKysnj33XcpLa1olFVFUFAQV65cYdu2bWzbto2YmJgKbVRdmz/J/PnzOXjwIKtXryY8PJw2bdrg7+/P7du3q7ynMmbNmoWuri7bt2+v8BFbE0qFKDOcmpuwbqQKZ4t6HLx6nxWH0vikrxWhE5vTxtaIyZtv8KCg7INuSVgq1+7ks3qEirUjVFxJfcihq/drlW91eQBsPpWOrrYW60c5sGyIPb8mPmDjb4b5bB8bOjarz0jPJpwJdOPzQbZq8l9R1UdPV4uI2Ee/jnn9Tj6JGQX0bN6gUp0up+SRkFFArxYN6O5iQugF9Y/m6TsS6NG8Absnu7BmRDN6tWyAQZ2KpsmcPcnkFZYwx9cGba3qx+qkzAJm/JiIj0dDdkxwYWinxqw+cqvKuruSmkd6ThFvt29U4Zq1mT6dmtWvVXtoaoubv71DZvSzYs+U5sz3s6WtnRG62lqETnJBT0eLFcPsORPoVqmb193cIqZsvkHHZvXZEuBM8Bs27LuUxcqD6uVbuC8ZL2cTto134oNeTdXedcvCUzGoo8228U6EvOfEW+0aPdWKjSZbICwsDH19ffbt28fmzZs5f/68MsZpGgO7d++Ovr4+Bw4cUGTFxMRw48YNBgwYUGsdX0ReKOO+KoqKipg7dy5OTk5YW1szbtw4IiMffYF//fXXjB49ms6dO2Nubs7UqVMpKCjg6NGjFWTl5ZXNoJiYmNCoUSO8vLxwcXGplT59+vShb9++WFhY8NZbb9G7d282btyolqZXr16MGDECV1dXjIyMNOr44MEDfvrpJ2bMmEGrVq2wt7dn7ty5aGs/av6IiAjS0tKYN28eL7/8Mm5ubs/Mf+5JXWvLyZMnSUhIYM6cObz00ku4urry7rvv8uOPPwJldS6EwMzMDCsrK3x9fTXm08XRmNddTWlsXIfuzia4WtXjampZu4VeyMTV2hAfj4aYGerS3dmE9vb1Cbt0T7n/bm4RU3tb0s3JBBeLejwsKiX0QgYfeltiZ26ARQM9xnV/iVPXc8iqYvbex8eHli1bYmJiwpAhQygoKCAhIUG53qhRI6ZPn46dnR0eHh68+eabSp+sSXtWRpMmTfjggw+wtrbGx8cHlUpF586d6d+/P1ZWVkyYMIHs7GySk5OBslnTYcOGYWtri5mZGX5+fkRHl/kZt2rVimbNmrFnzx5F/t69e9UGXktLSyZPnoylpSUdO3ZkwoQJSj/Oy8sjJCSEmTNn4uDggJWVFdOmTePo0aNkZFS+ga6651STvm+88QbR0dGKW979+/eJiIjA19f3qXTp0qULr7zyCqamprRr146WLVtq3Jh6584d1q5dS4cOHVCpVNX2adDcR0JCQmjRogUBAQE0bdqUnj17KrPqtSUgIICOHTvy0ksv8cEHH/Dw4UM198UndT9x4gRXr15l8eLFODk54eLiwhdffMGlS5cqrPZVxYMHD9ixYweffvop7u7uqFQqFixYUGEvVHVt/jgFBQVs2LCBwMBA2rdvj62tLZ988gkWFhaEhITUqk7Mzc0JDg7Gzc0NC4uq3SF8VkTTcU6k8ncj/dHMajcnE95q2wgXi3rU09Nm6+l0hnQwp62tEQ2NdHnPqwmFJYJTN3LJKyxlb2QWk16zwNmiLjYN9fn4dUsEosq8K0NTHuWYGeoyoYcF1mb6tLSsx+uuZlxNy9Mg9RG62lr0aN6A8CuPxsND0fdpaVkPiyoMw9ALGbyiMqa+gQ59WplyNPo+2Q/LPjYEkFdYgq6OFiZ1dbFtZECfVqbqArTgP4dvcSn5AUv87dDX1f5Nruax+qcLmTi9VJfhrzSmiXEdujoaM8DdrMqypWQVoqOthZVZ5eWwaahPSlbNN7Rqaov8olJKBBjq69Cgni4tLevRqVn9GsvecS4Dm4b6jO32ElamerSxNWJSj6b8cO4uBcWPPrC7OBrTz80MCxM9ejRvQKvH3nV5haUIoEE9XSwa6NGnlSmG+jo11qEmNG7cmI8//hhra2tcXV3x9fVVnl9NY6Curi79+vVj165diqy9e/fSunVrrKysnqmOzyt/fwfBZ4CBgYGav5ixsTH5+fkUFxejq6tLdHQ0V69eZfXq1UqavLy8SmeDhg4dypkzZ/D09MTPz4+xY8fW2hfN3t5e7djFxUXtCxYq+r9r0jE5OZmSkhJatWqlXDMyMsLS0lI5TkhIwNraGhOTR35+zs7OtdK7Kn7vBr7o6GgePnyIh4eHcq6wsFAxBAIDA5UPm3fffZfhw4drNO6bmRuoHRsa6JBbUDYgXr+Tzy8JuWoRFR4WlvKKg7FyXLeONi0t6ynHSRkFFJYIpoTcUHxJy5eNM3KKMa2n/pgVFhayatUqwsLCyMrKQktLCyGEMmMO4ODgoOazbmJiosza1qQ9K0OlUqkd169fX80VqrzOHjwom/lKS0tj2bJlnDlzhry8PAoLC9V09PHxYdeuXYwaNYqMjAzOnDnDzJkzleuV9ePbt2+Tn59PfHw8hYWFjBgxQiln+azvnTt3aNiwYQX9q3tONelraWlJu3bt2L17N1OmTGHfvn1YW1vj7u5OVFRUrXXZuXMnmzZtIjU1FYD09HRee+21Kuvew8MDQ0ND5bi6Pl1dH0lISFBrf3j659XR0VH5f506dTAwMFCbuX9S9+vXr2NtbY2p6SMjzNzcHAsLC6Kjo+nQoUO1eSYnJ1NcXKwWDcfQ0LDCi7u6Nn+cxMREioqKKkTYcXNzUz7yakpNx6xlQ+xoZPTI597KTJ+C31xK2turj0Fxd/KJvf2QTScfrXY9LCzhbk4RafcKKRUCJ4u6yjVDfR1eMqndTKqmPMqxM9dX83mvb6DDg4Kar7j0cTVl/MbrPCgowVBfh8NX79G/CqP5YVEp4VH3+GxA2Uqqx8tGmBrqsvdSFv7tG6EFzPZ5maBdieyNzGJwB3N6tjBB+7Gx72RcDkdj7rPobTtM6j5q8+rG6pSsApwfq0+AZo3Vjx+nui1CQgg1vapDU1u85mLCKM/G/GPDNTo1M2ZYJ3PcrA01SFPnZkYBLhb11M41b1qXh0WlpGQVYv/bO+7Jd53RY++6KT2bMm37TXyWX2VQu0b4tmlYqXG/fv16goODAahXr55Gl9cnefI9ZmxsrLzHqhsDfX198ff3Jzc3FyMjI/bu3cvbb79d47xfdKRxD9StW/UDD2UP9bRp0xSf/XKMjY0rpDU0NGTdunVcunSJ1atX4+XlxcqVK+ndu3elsh83ljTl/+TmRH19/RrrmJSUBFBhZrdOnTpq92u6/nt4UtfK0FQPQggsLCzUZjXhUXns7e05cOCA4v6xfv16tm3bhp1d5Zuf9CtZ8n08Ly8nEyb1aPrEPY/qX09XvS3K59a+HGKv9qIHKo1uMH/+fA4fPszatWtRqVQIISq4EWnqk+I3v8ratpeBgUGFc5qiRo0aNQpbW1u2b99Ow4YNOXHiBMOHD1eu+/j4sGjRIlJSUjh27Bi2traKq5smvcsNVYBNmzbRuHFjtXTm5pVHG6nuOa2Jvhs2bGDKlCns3r0bHx8fNb1qqkt4eDj//Oc/+frrr+ncuTM6Ojr4+flp1K2y51VTn66ujzzL57W6en1S98LCwkrTCSE06vD4M/54X9CUV3W6PWu9qtKjKmzM9CvMWBf8Zkfr6ai3jwACulvQ3dlE7byRgQ6p98p0f9J4rKOj2ZgsKFaf2deURzmVubzUBlcrQ8zr1+FoTDatrOpxIz2fHlW45IRfvkdeYSnTdzxalRRCsOtCBv6/ub90cTRm9+Tm7LmYycpDafx4/i5fDrVXZuhjbz/Eu2UDVh5Ko4O9kXK+urFaiIoGu6b6bNpAj5JSQXJmITYNK7Z/YmYBlqZVf2wV1rItxnR7iYGtG7Lt7F0mfX8Dv7aNmNijZptmi0sqruiUn3m8jJredTYN9Ql5z4mI2Pt8+787bDlzl6/eaYa1mXrZ33zzTbp27QpUfOdUR3XvMU1jYNu2bWnSpAlhYWG0adOG2NhY+vfvX6v8X2ReKLec8k5TG79QKPN9jYuLw8LCQu3v8dmsJ2nVqhUrVqxg3LhxygYQIyOjChtE4uPjK9wbGxurdhwVFaXRh7w6Ha2srNDW1lb74i4sLCQlJUU5trGxISkpSc3vu7rIQtra2rWuS6h5PZTj5OTErVu30NLSUitbkyaPQqppa2vTq1cvdu7cia2tLVu2bKm1XgD25gZcu5OPuXEdGj/29/iM0ZNYm+mjp6NFSlah2j2NjeugW0notBMnTuDn56fMpJd/fNWUmrTn7yUnJ4fLly8zZswYZeb6ST2trKxo164d+/btIzw8vIIv5LVr1xQjDsr6cZMmTdDX18fW1hY9PT0SExMr9NmnCVNbE3379etHfHw8Z8+e5cSJE4pxX1tdTpw4QYcOHejatSs6OmUv6nJXpppSXZ+uro/Y2NhUmEH7o57XJ3FxcSEpKYmsrEebF9PT07l16xYODg5A9c+4lZUVOjo6XL36aFNicXFxrZ+Fx7Gzs8PAwICLFy+qnY+MjFRWJ2o79jxL7M31ib+bX2GMqKenTdMGemhrobahsbBYkHbv0QdL+azq45tNn4x7rimPmqKthdrGzMro08qUw9H3ibiWjbuNkVrEoMf56UIG/dzM+H6so/K32N+OuDv5RKU+cgWqW0ebt9o24vuxjsTcesgvCY/2OI14pTGf9rdGCMHyA2mPlVXzWG1pqldhg2iChjjxzZvWw7x+HbaeqbgxPSmzgFPXc+nZouwjpp6eNvlF6nX0NG3R2LgOE16zYNHbdmw6eUdxqdHS0kLTo6pqbFDBlepq6kP0dbWrdI+qDG2tMvexdSMdsDbTr7AfAspWjVUqFSqVqsJqrCLnKcaWmrzXfX192bt3L+Hh4bRv317tmkQzL5Rxb2lpiZaWFqGhoWRmZir+8dUxZswYQkJCWL9+PQkJCVy9epWvv/5abem6nKNHjxIREUFGRgZpaWnExMQoM8gtWrTg7t27HDx4ECh7GVf2o0P79+9n165dpKWlsX37dsLDw9VmIGuro5GREQMGDODf//43UVFRJCYmMmvWLIqKHi3VduvWDXNzc2bMmEFiYiJXrlypcoNeOVZWVhw7doxbt25VGamjMmpaD+W88sorODo6EhAQwPnz50lMTOTo0aPs27cPKIt6cunSJbKzs7l27RppaWlVztpXxxseDbl9v5B5/03m+p18EjIKCLt8T6NPaj09bQa2bsjS8FSOxtwn7V4hl1PyqvzRF0tLSyIjIyktLSU3N5fg4GDFSKwJNWnP34uRkREmJiZK5JuEhAS1zZ7l+Pr6cujQIU6cOFHBuL99+zaLFi0iOTmZ06dPs3LlSqUfGxkZMXjwYIKCgggLCyM5OZlffvnlqX+Eqyb6NmjQAC8vL4KDg2nVqhW2trZPpYulpSXXr18nJyeH0tJSli9fXusNm9X16er6iL+/P7/++ivr1q0jLS2NiIgIJWBAVVhZWbFv3z6ysrK4d++exrSa6NSpE82bN2fq1KnExcVx7do1PvzwQ1q3bk27du0AcHV1JSIiguTkZIQQHD58mCNHjigyjIyMGDhwIPPmzSMmJoaUlBSCg4MVl7CnoV69egwfPpw5c+Zw9uxZkpOTWbBgAampqQwdOrRGev2RDOnYmF0XMtl65i7JWYXE3c5ny5m75BaUUE9Pm54tTPnyQBqxtx6Seq+QJftT1GZozQx1aWxch9BfMxFATn5JhQ2imvKoKRYmepy+kUN6TlGV0WX6tDLl3M1c/nctm14tKp+1j0/PJyolj3deMadZYwPlz9PBGHdrQ0IvZFIqygIcJGQUkFtQwuWUPIpLBJZPGKj6utoEvWHDj+czOBFX9t6tbqwe4N6QqJSHhJxO5052Eadv5PDThap/EEtbC/7Zx5Iff8lg6f5ULqfkEZ+eT9jlLCZtvkF3Z2M6/+by4/RSXTIfFPG/a2UbixMyCth+Tn2819QWCRkF7I+6x637hWQ/LOFS8gPMjesoqxIWDfQ4HH2f+w+Llf0Jj+Pj0ZCkzELWHr1F2v1Cfk18wPKDqQzpaF7phFJl7LmYSXTaQ3LyS4hPz+dOdiE2ZjVbsXqSp7EFqhsDoez9cuLECQ4dOiQ30taSF8q4Nzc3Z9q0acydO5fOnTvXOOZ93759WbJkCZs3b6Z79+4MHjyYEydOVLpEVVBQQGBgIB06dMDb2xt9fX0+++wzoMx9ZM6cOcomso8++ogPP/ywgoyvvvqKrVu30qVLF1asWMHnn39O+/btf5eOc+fOxcXFBX9/fwYOHIi9vT3e3t7K/bq6umzcuJHU1FR69uxJQEAAEydOrNJFAmD8+PHUqVMHT09PpYw1oab18Lhu33//PVZWVowYMYLXXnuNoKAgZRk+JSWFkSNH4u7uzvDhw+nfv/9TRbiAsqXZVcObkZRRwMj113j362tsP3u32gHzA++m9Hc34/OfU/BbFc0nP9wkPadyY3vGjBncvn0bDw8PevfuTZ8+fXBzc6uVntW15+9FS0uLpUuXsmHDBjw8PAgICGDevHkVZrL79evH6dOnefnllyv49H/88cfk5OTQs2dPxo8fj4+PD++//75yfdasWbz99tsEBgbStWtXAgICuHWr6mgWz0JfHx8ffv31V2XW/ml0GTZsGK1bt8bT05OOHTty7949tegzNaG6Pl1dH1GpVKxdu5aQkBC6dOnC0qVLWbhwocY8yyPitGvXTgnP+zRoa2vz7bffYmBgQP/+/enfvz+GhoZq+338/Pzo27cv/fv3p3379nz//fdMmTJFTU5QUBA2Njb069eP119/HVNT0wr7CGrL9OnT6du3L+PGjaNbt26cOnWK77//HjMzsxrr9UfxmosJnw2w5qcLGbz9n2je33Sd8zdzFVecf71uiUMTAwI2Xmfk+mtYmOihaqLu1jDH52VO38ih56LLjPkmDi9nExob16lxHjXhnVcao6uthc+KqywOq3w10NpMH9uG+vyS8IBXXUwqTRN6IZM2tkbYNqroDjiofSP2X87iYVEp527m8o8N1+i9OIpl4akEDrCu1C3GxaIe/+jahOBdiWTlFVc7Vts20mfhINuysJUrr/J1xG1m9NO8GbObkwkrh9kTfzefD0Ju8PZXMXy2M5G32jUi2OdlZa+CTUN9/tnHioX7UvBeHMXsXUmM6ar+o1+a2kJbC7acTsf/qxgGfHmF0zdy1CITfdCrKWfjc+i79Ao/PxHeE8pm/FcNt+fszVzeWhXNxz/c5FXnBozpVvOZ7Vv3i5i6NZ7eS6KYHHKDHs0b0E/DhmNNPI0tUN0YCGWrcSqVilOnTtG3b9+n0u1FRSsj636Nt+ObNajoY/6syLyX/YfnIZFInj3e3t4MGDBAzXCXSJ6GHj16MHLkSGWm/UVn2NpYBribMahdxfCMfzZLwlK4mVHAl0Mqd9V4Hrh1v5Dha2Pp1cKUaX00ByyQ/DHMmjWLuLg4Nm3a9Ger8pei3GauCrmhVvJCcC+vmF6LNceB/yOwaKBH6MTahUL9O5GQkEBMTAwDBw78s1WR/M3Jzc0lMTHxLx/q7ov9qYScTv/D8zkT6Mbjru/tZ1+sOvH/M6c+deNobDbvdSubrf4r6fYsORPoxmyfl5kScgNLUz2GdDR/bstazjy/l3nNpXJXq/9vSktLCQsL46OPPvqzVfnbIWfuJRJJrcnNzSU3N5dp06ZhZGTEf/7znz9bJcnfjLVr12JhYUHLli3R0tJiwYIFnD17loiIiEojO72IDF0Ty8DWf52Z+4LiUvKLStl86i57IzPZMaHsB5eed/ZH3SMpswD/9o2eeSx4SUXy8/N5+PAha9euZceOHURERGj8BfYXETlzL5FInjmLFy9m48aNdOrUiTlz5vzZ6kj+hhgbG7NkyRJSUlLQ1dXF1dWV7777Thr2f2FOxuUwfUcCto30WfCW7Qth2ANVbhqW/DEcOXKEgIAAVCoVa9askYb9UyBn7iUSiUQikUgkkr8J1c3cv1DRciQSiUQikUgkkucZadxLJBKJRCKRSCTPCdK4l0gkEolEIpFInhOkcS+RSCQSiUQikTwnSONeIpFIJBKJRCJ5TpDG/e8kLCyM1q1bPzN5kZGR9O7dG5VKxahRo56ZXIDt27fToUMHHB0d/7C45EuXLmXatGl/iOxyjh8/Tvfu3f/QPP6/mDVrFu+99x4AOTk5tG3blhs3bvzJWkkkEolEIvm7Io37vxgzZszAzc2NkydPPtP44dnZ2fzrX/9i6tSpHD9+nEGDBj0z2Y/Tpk0bunbt+kxlenl5UVxcrBzb2tri6+v7TPP4K1CvXj18fX0xNzd/ZjLv3r2LtbU1oaGhz0ymRCKRSCSSvy7yR6z+YsTFxTF16tRnauABJCQkUFRUxMCBA9HX13+msh+nS5cuz1RefHw8169fVztnZWXFxIkTn2k+fwV0dHSYPn36M5VZr149tX8lEolEIpE837xQM/dhYWH4+fmxadMm2rZti6OjI+PGjePu3btMmzYNFxcXWrduzaJFi9Tumz9/Pt26dcPBwYEuXbqwe/fuKvM4fvw4Li4unD17FoDi4mLmzJmDu7s7zs7OjB8/nszMzAr3Xb58GU9PT3Jzcxk+fDjW1tbcvHkTgJCQELp06UKzZs149dVX2bVrl3JfdnY2tra23L17l0GDBmFvb8+pU6fUZG/bto2hQ4cCoFKpaNeuHQAXL15kyJAhuLm50aJFC8aOHUt2drai98yZM/Hw8EClUtG9e3d++uknRebZs2fx9fXFwcEBd3d3li9fDqi7mZTrdubMGV5//XVFzv79+2tUv5cuXaJPnz4A2NnZYW1tTVRUFGFhYbi6uir3e3t7ExoayqhRo3BwcKBt27YsXbpULY/Y2FjeeOMN7O3t8fLy4sCBA7Rv356YmJhK29Hb25uTJ08yffp0HB0dWbZsGQDnz59nwIABqFQqunXrplYnGRkZTJo0SXF9GjhwIFeuXFGuCyH4/PPPcXd3x8nJiY8++kgtz+zsbKytrRWdyvvrtm3b6NSpE46Ojrz55pvExcUp9+Tk5DB+/HgcHR3x8PBg+fLlTJ48mW+++QYoM+q1tbWlcS+RSCQSyYtCRtZ9UdO/P5L/jzx+/vlnYW9vL0aPHi2uXbsmzp07J9zd3YW7u7tYvHixSExMFLt27RLW1tbi/Pnzyn0//vijuHTpkrh375749ttvhUqlEjk5OYpMd3d3IYQQUVFRonnz5mLv3r3KvTNmzBADBgwQsbGxIikpSQwbNkwMHTq0Sh3t7e3FsWPHlOPw8HDh6Ogodu7cKRITE8W2bduESqUSBw8eFEIIcf/+fWFlZSUGDBggvvnmG3Hx4kVFt8c5f/68sLKyEkVFRcq569eviz179ohbt26JhIQE0bNnT7FgwQIhhBAbN24UXl5e4vr16yI9PV0cPnxYXLlyRQghRHx8vHBwcBBBQUEiKipKnDx5Uly8eFEIIcTMmTPF2LFj1XTz8vISERERIikpScydO1c4OTmJ7OzsGtVvZXr//PPPolWrVspxr169RIsWLcS2bdtEUlKS2LVrl3j55ZfF8ePHhRBCFBcXiy5duogxY8aIuLg4ce7cOdG3b19hbW0toqOjK22HXr16iV69eonAwEDx66+/itTUVJGUlCScnJzEpk2bRHp6uti7d6+ws7MTZ8+eFUIIUVhYKDZu3Cji4+NFRkaGmDx5svDx8VFkbtmyRTg7O4v9+/eL5ORksWbNGmFnZ1ehvsp1Ku+vQ4cOFZcvXxY3btwQgwcPFr6+vorMqVOnim7duokLFy6Ia9euiffff1/Y2dmJDRs2KGmcnJzEhQsXKi2nRCKRSCSSvxfV2esvnHFvZWUlkpOTlXOffPKJ8PT0VEvXo0cPsXHjxkplFBUVCWtra3H58mVFZuvWrUVycrLw8PAQ69evV9I+ePBA2Nvbq30oXLx4UVhZWYm7d+9WKv9J497X11cEBwerpfn000/FoEGDhBCPDMIVK1ZoLHtlRvKTLFy4UIwaNUoIIcTq1auFl5dXpXrOmzdPeHt7VyqjMuN+69atyvWCggJhY2NTpbH5ZP3W1LifMmWKmhwfHx+xatUqIYQQR48eFXZ2diIzM1O5/r///U/NkH6SXr16VfgIW7hwYYVzI0aMEDNmzKhURkREhHBxcVGO+/XrJ2bPnq2WZuDAgRqNeysrK5GYmKikP3bsmHBwcBBCCJGbmytsbW1FeHi4cj03N1c4ODioGffu7u4iJiamUh0lEolEIpH8vajOXn/hfO7r1q2LpaWlcly/fn3s7e3V0tSvX58HDx4AUFhYyKpVqwgLCyMrKwstLS2EEBQUFCjpdXR0eO+992jcuDEjR45UzsfHx1NYWMiIESPQ0tICoLS0FIA7d+7QsGHDavW9fv0677zzjto5Nzc3NdcceDpf919++YWVK1cSGxtLUVEROTk5SuSfoUOHcubMGTw9PfHz82Ps2LFYW1sDcO3aNdzciqkNCwAABjdJREFU3Gqcj6Ojo/J/PT09DAwMyMnJAWpWv7XNA8DY2FjJ48aNG1hbW2Nqaqpcd3Jyqlbmk3UaHR3NqVOn1FyCHjx4wKuvvgpAWloay5Yt48yZM+Tl5VFYWKhWjoSEBEaPHq0m09nZmaysrCp1MDAwUOodwMTEhIcPH1JcXExycjLFxcVq+hgaGmJlZaUmw9DQULrlSCQSiUTygvDCGfcGBgYVzunqVl0N8+fP5/Dhw6xduxaVSoUQAhsbG7U0t27donfv3vzwww/88MMP+Pn5AWU+1gCbNm2icePGavfUdMNsYWFhhXNCCOrUqaN2rrabZG/fvs2QIUOYNGkSq1atQl9fn8WLF3PhwgWgzCBct24dly5dYvXq1Xh5ebFy5Up69+6NEEL5WKkJdevWrfJaTer39+ZRmb41qa8n0wgh8Pb25tNPP1U7X96nRo0aha2tLdu3b6dhw4acOHGC4cOHq92vra2+zeXJdnyS6soFVFs2Q0NDDA0NNeYjkUgkEonk+eCF2lD7NJw4cQI/Pz9UKhUASUlJFdI0atSI2bNnExQURGBgoJLG1tYWPT09EhMTsbCwUPvT9EHxOC4uLly8eFHtXGRkZIWZ6tpy8eJFiouLCQgIUIzBysrWqlUrVqxYwbhx41i1ahVQtrk1MjLyd+VfTnX1W24Ml694PA22trYkJyeTm5urnHuaWPJOTk5cvXqVl156Sa0tTU1NycnJ4fLly4wZM0ZZkXmyLDY2NmobbIEKkYBqg5WVFTo6Oly9elU5V1xcXCHfd955h/r16z91PhKJRCKRSP4+SOO+GiwtLYmMjKS0tJTc3FyCg4PR0dGpNO2gQYPw9PRk8uTJlJSUYGRkxODBgwkKCiIsLIzk5GR++eUXJZJJTRg3bhybN29m9+7dpKWl8eOPP7JlyxYCAgJ+d7kKCwsVYzMiIoJ9+/Yp148ePUpERAQZGRmkpaURExODnZ0dAP7+/kRHR7Nw4ULi4uK4ePEiERERT62Hpvq1tLRES0uL0NBQMjMzycvLq3UeXbp0wdzcnMDAQFJSUoiNjWX+/Pm1ljNkyBBSU1P5+OOPiYmJ4fr164SGhhIZGYmRkREmJibKykdCQgJfffWV2v1Dhw7lu+++49ChQ6SlpbF582bOnTtXaz3KMTIyYuDAgcybN4+YmBhSUlIIDg5WXMoAUlNTWb58OeHh4U+dj0QikUgkkr8P0rivhhkzZnD79m08PDzo3bs3ffr00ehvvmDBAuLj41mxYgVQFhry7bffJjAwkK5duxIQEMCtW7dqnH/Pnj2ZN28eS5YsoXPnzixdupS5c+f+7njyLVq04KOPPmLYsGG0adOGDRs2MG/ePOV6QUEBgYGBdOjQAW9vb/T19fnss88AcHBw4Ntvv+XIkSN4e3szYsQIYmNjn0qP6urX3NycadOmMXfuXDp37vxUM926urqsW7eOuLg4unTpwqhRo/D396+1HGtra7Zu3Up8fDz9+/enX79+fPPNN+jq6qKlpcXSpUvZsGEDHh4eBAQEMG/ePLUVGn9/f8aNG8cnn3yCl5cX58+f5+OPP661Ho8TFBSEjY0N/fr14/XXX8fU1JRWrVop14UQFBcXKy48EolEIpFInm+0MrLu1/itb9bA+A9TJPNe9h+eh0RSTlZWFq6urhw9erTChuq/Oz169GDkyJHKbxtIJBKJRCJ5fii3matCztxLXkiioqLQ0tJSi5z0PJCbm0tiYmKFiDkSiUQikUheDF64aDmSF5NZs2bRs2dP7O3tSU9PZ9asWfTu3bvWUYb+aqxduxYLCwtatmyJlpYWCxYswMTEhA4dOvzZqkkkEolEIvkTkMa95IWgtLSUqVOnkp6eToMGDejatSuBgYF/tlq/G2NjY5YsWUJKSgq6urq4urry3XffVRryVSKRSCQSyfOP9LmXSCQSiUQikUj+Jkife4lEIpFIJBKJ5AVBGvcSiUQikUgkEslzgjTuJRKJRCKRSCSS5wRp3EskEolEIpFIJM8J0riXSCQSiUQikUieE6RxL5FIJBKJRCKRPCdI414ikUgkEolEInlOkMa9RCKRSCQSiUTynCCNe4lEIpFIJBKJ5DlBGvcSiUQikUgkEslzwv8BcNEmexamrNcAAAAASUVORK5CYII=;" parent="1" vertex="1">
                    <mxGeometry x="866" y="1530" width="759" height="741" as="geometry"/>
                </mxCell>
                <mxCell id="129" value="&lt;font color=&quot;#ffffff&quot;&gt;exemple d'Article pris de Reddit&lt;/font&gt;" style="rounded=0;whiteSpace=wrap;html=1;strokeColor=#FFFFFF;strokeWidth=2;fontColor=#000000;" parent="1" vertex="1">
                    <mxGeometry x="960" y="1450" width="510" height="60" as="geometry"/>
                </mxCell>
                <mxCell id="130" value="&lt;font style=&quot;font-size: 34px;&quot;&gt;css&lt;/font&gt;" style="rounded=1;whiteSpace=wrap;html=1;fillColor=#6a00ff;fontColor=#ffffff;strokeColor=#3700CC;" vertex="1" parent="1">
                    <mxGeometry x="-1050" y="-480" width="370" height="210" as="geometry"/>
                </mxCell>
            </root>
        </mxGraphModel>
    </diagram>
</mxfile>